{"glyphs":{"0":{"ha":1515,"x_min":151,"x_max":1296,"o":"m 1235 532 q 1234 521 1235 529 q 1233 503 1233 513 q 1231 486 1232 494 q 1229 474 1229 478 q 1224 449 1228 461 q 1218 424 1221 436 q 1147 269 1194 339 q 1033 148 1099 199 q 888 69 968 97 q 718 40 807 40 q 513 83 608 40 q 348 197 417 125 q 240 367 279 269 q 204 574 201 464 q 207 578 207 574 q 226 703 208 643 q 279 818 244 763 q 308 862 290 838 q 347 909 325 886 q 390 951 368 932 q 433 981 413 971 l 435 985 l 439 985 l 442 988 q 448 991 444 990 q 454 994 451 992 q 467 1002 461 999 q 478 1010 472 1006 q 508 1024 492 1018 q 540 1038 525 1031 q 628 1062 583 1054 q 718 1069 672 1069 q 912 1033 818 1069 q 1078 925 1006 996 q 1124 874 1103 900 q 1164 817 1146 847 q 1174 798 1169 808 q 1182 778 1178 788 q 1190 766 1186 771 q 1194 754 1193 761 q 1208 721 1203 738 q 1218 686 1213 704 q 1231 610 1228 646 q 1235 532 1235 575 m 990 785 q 917 783 954 782 q 843 783 881 783 l 815 783 q 793 708 803 746 q 771 632 783 669 q 783 631 776 631 q 796 632 789 632 q 810 629 806 632 l 810 292 l 961 292 l 961 457 l 1076 457 q 1096 526 1085 492 q 1115 594 1107 560 l 961 594 q 962 606 963 600 q 961 617 961 611 q 961 624 961 619 q 964 629 961 628 l 1092 629 q 1115 712 1101 671 q 1138 794 1128 753 l 993 794 q 990 785 989 792 m 344 778 q 324 705 335 742 q 304 632 313 668 q 316 631 310 631 q 329 632 322 632 q 335 632 332 632 q 342 629 339 632 l 342 292 l 493 292 l 493 422 q 493 444 493 433 q 496 467 493 456 q 524 466 510 465 q 554 467 539 467 q 571 467 563 467 q 589 465 579 467 l 589 294 q 619 292 604 292 q 647 292 633 292 q 694 292 671 292 q 740 292 717 293 l 740 783 q 694 783 717 782 q 647 783 671 783 q 589 781 618 783 l 589 622 l 493 622 q 494 671 493 646 q 494 721 494 696 q 492 783 494 751 l 349 783 q 346 781 346 783 q 344 778 346 779 m 361 -125 l 335 -125 l 335 -68 l 329 -68 l 336 -43 l 365 -43 l 367 -40 l 390 -40 l 383 -69 l 361 -69 l 361 -75 l 388 -75 l 379 -99 l 361 -99 l 361 -125 m 400 -68 l 393 -68 l 400 -43 l 425 -43 l 425 -87 q 433 -101 425 -101 q 442 -87 442 -101 l 442 -43 l 467 -43 l 467 -90 q 433 -126 467 -126 q 400 -90 400 -126 l 400 -68 m 504 -100 l 521 -100 l 513 -125 l 479 -125 l 479 -68 l 471 -68 l 479 -43 l 504 -43 l 504 -100 m 554 -100 l 571 -100 l 563 -125 l 529 -125 l 529 -68 l 522 -68 l 529 -43 l 554 -43 l 554 -100 m 678 -43 l 651 -125 l 628 -125 l 599 -43 l 626 -43 l 639 -82 l 651 -43 l 678 -43 m 729 -125 l 682 -125 l 682 -68 l 676 -68 l 683 -43 l 713 -43 l 714 -40 l 738 -40 l 731 -69 l 708 -69 l 708 -74 l 736 -74 l 731 -94 l 708 -94 l 708 -99 l 738 -99 l 729 -125 m 772 -107 l 772 -125 l 747 -125 l 747 -68 l 740 -68 l 747 -43 l 772 -43 q 789 -44 783 -43 q 801 -50 794 -46 q 811 -74 811 -60 q 797 -100 811 -90 l 814 -125 l 783 -125 l 772 -107 m 776 -68 l 772 -68 l 772 -82 l 776 -82 q 785 -75 785 -82 q 776 -68 785 -68 m 858 -40 l 881 -44 l 872 -69 q 854 -65 861 -65 q 849 -68 849 -65 q 853 -72 849 -71 q 865 -76 858 -74 q 876 -83 871 -78 q 882 -99 882 -89 q 873 -119 882 -112 q 849 -126 864 -126 q 822 -119 836 -126 l 828 -94 q 840 -100 833 -97 q 849 -103 846 -103 q 856 -99 856 -103 q 850 -94 856 -96 q 838 -90 844 -92 q 826 -83 832 -87 q 821 -68 821 -78 q 828 -50 821 -57 q 847 -43 836 -43 q 857 -44 853 -43 l 858 -40 m 917 -43 l 917 -125 l 892 -125 l 892 -68 l 885 -68 l 892 -43 l 917 -43 m 967 -43 q 997 -56 985 -43 q 1008 -85 1008 -68 q 997 -114 1008 -101 q 967 -126 985 -126 q 936 -114 947 -126 q 925 -85 925 -101 q 937 -56 925 -68 q 967 -43 949 -43 m 982 -85 q 978 -73 982 -78 q 967 -68 974 -68 q 954 -73 958 -68 q 950 -85 950 -78 q 954 -97 950 -92 q 967 -101 958 -101 q 978 -97 974 -101 q 982 -85 982 -92 m 1043 -89 l 1043 -125 l 1018 -125 l 1018 -68 l 1011 -68 l 1018 -43 l 1043 -43 l 1061 -74 l 1061 -43 l 1088 -43 l 1088 -125 l 1065 -125 l 1043 -89 m 193 -183 q 223 -196 211 -183 q 235 -226 235 -208 q 223 -256 235 -243 q 193 -268 211 -268 q 163 -255 174 -268 q 151 -225 151 -242 q 163 -196 151 -208 q 193 -183 175 -183 m 208 -226 q 193 -210 208 -210 q 176 -226 176 -210 q 193 -242 176 -242 q 208 -226 208 -242 m 269 -231 l 269 -267 l 244 -267 l 244 -210 l 238 -210 l 246 -185 l 269 -185 l 288 -215 l 288 -185 l 314 -185 l 314 -267 l 292 -267 l 269 -231 m 379 -185 l 379 -211 l 396 -211 l 396 -185 l 421 -185 l 421 -267 l 396 -267 l 396 -237 l 379 -237 l 379 -267 l 354 -267 l 354 -210 l 349 -210 l 356 -185 l 379 -185 m 481 -267 l 433 -267 l 433 -210 l 428 -210 l 435 -185 l 464 -185 l 464 -182 l 489 -182 l 481 -210 l 458 -210 l 458 -215 l 488 -215 l 482 -235 l 458 -235 l 458 -240 l 488 -240 l 481 -267 m 525 -247 l 525 -267 l 499 -267 l 499 -210 l 492 -210 l 500 -185 l 525 -185 q 551 -192 544 -185 q 563 -215 563 -200 q 550 -242 563 -233 l 564 -267 l 535 -267 l 525 -247 m 529 -210 l 525 -210 l 525 -224 l 528 -224 q 538 -217 538 -224 q 529 -210 538 -210 m 614 -183 q 644 -196 632 -183 q 656 -226 656 -208 q 644 -256 656 -243 q 614 -268 632 -268 q 583 -255 594 -268 q 571 -225 571 -242 q 583 -196 571 -208 q 614 -183 594 -183 m 631 -226 q 626 -215 631 -219 q 614 -210 621 -210 q 597 -226 597 -210 q 614 -242 597 -242 q 626 -237 621 -242 q 631 -226 631 -233 m 689 -267 l 664 -267 l 664 -210 l 658 -210 l 665 -185 l 694 -185 l 696 -182 l 719 -182 l 711 -210 l 689 -210 l 689 -215 l 715 -215 l 710 -239 l 689 -239 l 689 -267 m 768 -183 q 797 -196 785 -183 q 810 -226 810 -208 q 797 -256 810 -243 q 768 -268 785 -268 q 737 -255 749 -268 q 725 -225 725 -242 q 737 -196 725 -208 q 768 -183 749 -183 m 783 -226 q 768 -210 783 -210 q 751 -226 751 -210 q 768 -242 751 -242 q 783 -226 783 -242 m 843 -231 l 843 -267 l 818 -267 l 818 -210 l 811 -210 l 818 -185 l 843 -185 l 863 -215 l 863 -185 l 888 -185 l 888 -267 l 865 -267 l 843 -231 m 932 -210 l 932 -267 l 906 -267 l 906 -210 l 893 -210 l 901 -185 l 928 -185 l 929 -182 l 953 -182 l 944 -210 l 932 -210 m 992 -182 l 1013 -186 l 1006 -211 q 988 -207 994 -207 q 982 -208 982 -207 q 987 -212 982 -211 q 998 -217 992 -214 q 1009 -225 1004 -219 q 1014 -240 1014 -231 q 982 -268 1014 -268 q 969 -266 975 -268 q 956 -261 964 -264 l 961 -236 q 982 -243 972 -243 q 988 -240 988 -243 q 982 -235 988 -237 q 970 -231 976 -233 q 958 -224 964 -229 q 953 -210 953 -219 q 961 -191 953 -199 q 981 -183 969 -183 q 985 -184 983 -183 q 990 -185 988 -185 l 992 -182 m 1033 -240 q 1046 -254 1046 -240 q 1033 -268 1046 -268 q 1019 -254 1019 -268 q 1033 -240 1019 -240 m 1099 -182 l 1119 -190 l 1107 -215 q 1098 -210 1100 -212 q 1092 -208 1096 -208 q 1075 -225 1075 -208 q 1092 -242 1075 -242 q 1108 -235 1100 -242 l 1119 -257 q 1090 -268 1106 -268 q 1062 -256 1075 -268 q 1049 -225 1049 -244 q 1061 -196 1049 -208 q 1090 -183 1074 -183 q 1097 -185 1093 -183 l 1099 -182 m 1165 -183 q 1196 -196 1185 -183 q 1207 -226 1207 -208 q 1196 -256 1207 -243 q 1165 -268 1185 -268 q 1135 -255 1146 -268 q 1124 -225 1124 -242 q 1135 -196 1124 -208 q 1165 -183 1147 -183 m 1182 -226 q 1165 -210 1182 -210 q 1149 -226 1149 -210 q 1165 -242 1149 -242 q 1182 -226 1182 -242 m 1242 -224 l 1242 -267 l 1217 -267 l 1217 -210 l 1211 -210 l 1217 -185 l 1242 -185 l 1256 -203 l 1269 -185 l 1296 -185 l 1296 -267 l 1271 -267 l 1271 -224 l 1256 -240 l 1242 -224 z "},"1":{"ha":1515,"x_min":151,"x_max":1296,"o":"m 1235 532 q 1234 521 1235 529 q 1233 503 1233 513 q 1231 486 1232 494 q 1229 474 1229 478 q 1224 449 1228 461 q 1218 424 1221 436 q 1147 269 1194 339 q 1033 148 1099 199 q 888 69 968 97 q 718 40 807 40 q 513 83 608 40 q 348 197 417 125 q 240 367 279 269 q 204 574 201 464 q 207 578 207 574 q 226 703 208 643 q 279 818 244 763 q 308 862 290 838 q 347 909 325 886 q 390 951 368 932 q 433 981 413 971 l 435 985 l 439 985 l 442 988 q 448 991 444 990 q 454 994 451 992 q 467 1002 461 999 q 478 1010 472 1006 q 508 1024 492 1018 q 540 1038 525 1031 q 628 1062 583 1054 q 718 1069 672 1069 q 912 1033 818 1069 q 1078 925 1006 996 q 1124 874 1103 900 q 1164 817 1146 847 q 1174 798 1169 808 q 1182 778 1178 788 q 1190 766 1186 771 q 1194 754 1193 761 q 1208 721 1203 738 q 1218 686 1213 704 q 1231 610 1228 646 q 1235 532 1235 575 m 990 785 q 917 783 954 782 q 843 783 881 783 l 815 783 q 793 708 803 746 q 771 632 783 669 q 783 631 776 631 q 796 632 789 632 q 810 629 806 632 l 810 292 l 961 292 l 961 457 l 1076 457 q 1096 526 1085 492 q 1115 594 1107 560 l 961 594 q 962 606 963 600 q 961 617 961 611 q 961 624 961 619 q 964 629 961 628 l 1092 629 q 1115 712 1101 671 q 1138 794 1128 753 l 993 794 q 990 785 989 792 m 344 778 q 324 705 335 742 q 304 632 313 668 q 316 631 310 631 q 329 632 322 632 q 335 632 332 632 q 342 629 339 632 l 342 292 l 493 292 l 493 422 q 493 444 493 433 q 496 467 493 456 q 524 466 510 465 q 554 467 539 467 q 571 467 563 467 q 589 465 579 467 l 589 294 q 619 292 604 292 q 647 292 633 292 q 694 292 671 292 q 740 292 717 293 l 740 783 q 694 783 717 782 q 647 783 671 783 q 589 781 618 783 l 589 622 l 493 622 q 494 671 493 646 q 494 721 494 696 q 492 783 494 751 l 349 783 q 346 781 346 783 q 344 778 346 779 m 361 -125 l 335 -125 l 335 -68 l 329 -68 l 336 -43 l 365 -43 l 367 -40 l 390 -40 l 383 -69 l 361 -69 l 361 -75 l 388 -75 l 379 -99 l 361 -99 l 361 -125 m 400 -68 l 393 -68 l 400 -43 l 425 -43 l 425 -87 q 433 -101 425 -101 q 442 -87 442 -101 l 442 -43 l 467 -43 l 467 -90 q 433 -126 467 -126 q 400 -90 400 -126 l 400 -68 m 504 -100 l 521 -100 l 513 -125 l 479 -125 l 479 -68 l 471 -68 l 479 -43 l 504 -43 l 504 -100 m 554 -100 l 571 -100 l 563 -125 l 529 -125 l 529 -68 l 522 -68 l 529 -43 l 554 -43 l 554 -100 m 678 -43 l 651 -125 l 628 -125 l 599 -43 l 626 -43 l 639 -82 l 651 -43 l 678 -43 m 729 -125 l 682 -125 l 682 -68 l 676 -68 l 683 -43 l 713 -43 l 714 -40 l 738 -40 l 731 -69 l 708 -69 l 708 -74 l 736 -74 l 731 -94 l 708 -94 l 708 -99 l 738 -99 l 729 -125 m 772 -107 l 772 -125 l 747 -125 l 747 -68 l 740 -68 l 747 -43 l 772 -43 q 789 -44 783 -43 q 801 -50 794 -46 q 811 -74 811 -60 q 797 -100 811 -90 l 814 -125 l 783 -125 l 772 -107 m 776 -68 l 772 -68 l 772 -82 l 776 -82 q 785 -75 785 -82 q 776 -68 785 -68 m 858 -40 l 881 -44 l 872 -69 q 854 -65 861 -65 q 849 -68 849 -65 q 853 -72 849 -71 q 865 -76 858 -74 q 876 -83 871 -78 q 882 -99 882 -89 q 873 -119 882 -112 q 849 -126 864 -126 q 822 -119 836 -126 l 828 -94 q 840 -100 833 -97 q 849 -103 846 -103 q 856 -99 856 -103 q 850 -94 856 -96 q 838 -90 844 -92 q 826 -83 832 -87 q 821 -68 821 -78 q 828 -50 821 -57 q 847 -43 836 -43 q 857 -44 853 -43 l 858 -40 m 917 -43 l 917 -125 l 892 -125 l 892 -68 l 885 -68 l 892 -43 l 917 -43 m 967 -43 q 997 -56 985 -43 q 1008 -85 1008 -68 q 997 -114 1008 -101 q 967 -126 985 -126 q 936 -114 947 -126 q 925 -85 925 -101 q 937 -56 925 -68 q 967 -43 949 -43 m 982 -85 q 978 -73 982 -78 q 967 -68 974 -68 q 954 -73 958 -68 q 950 -85 950 -78 q 954 -97 950 -92 q 967 -101 958 -101 q 978 -97 974 -101 q 982 -85 982 -92 m 1043 -89 l 1043 -125 l 1018 -125 l 1018 -68 l 1011 -68 l 1018 -43 l 1043 -43 l 1061 -74 l 1061 -43 l 1088 -43 l 1088 -125 l 1065 -125 l 1043 -89 m 193 -183 q 223 -196 211 -183 q 235 -226 235 -208 q 223 -256 235 -243 q 193 -268 211 -268 q 163 -255 174 -268 q 151 -225 151 -242 q 163 -196 151 -208 q 193 -183 175 -183 m 208 -226 q 193 -210 208 -210 q 176 -226 176 -210 q 193 -242 176 -242 q 208 -226 208 -242 m 269 -231 l 269 -267 l 244 -267 l 244 -210 l 238 -210 l 246 -185 l 269 -185 l 288 -215 l 288 -185 l 314 -185 l 314 -267 l 292 -267 l 269 -231 m 379 -185 l 379 -211 l 396 -211 l 396 -185 l 421 -185 l 421 -267 l 396 -267 l 396 -237 l 379 -237 l 379 -267 l 354 -267 l 354 -210 l 349 -210 l 356 -185 l 379 -185 m 481 -267 l 433 -267 l 433 -210 l 428 -210 l 435 -185 l 464 -185 l 464 -182 l 489 -182 l 481 -210 l 458 -210 l 458 -215 l 488 -215 l 482 -235 l 458 -235 l 458 -240 l 488 -240 l 481 -267 m 525 -247 l 525 -267 l 499 -267 l 499 -210 l 492 -210 l 500 -185 l 525 -185 q 551 -192 544 -185 q 563 -215 563 -200 q 550 -242 563 -233 l 564 -267 l 535 -267 l 525 -247 m 529 -210 l 525 -210 l 525 -224 l 528 -224 q 538 -217 538 -224 q 529 -210 538 -210 m 614 -183 q 644 -196 632 -183 q 656 -226 656 -208 q 644 -256 656 -243 q 614 -268 632 -268 q 583 -255 594 -268 q 571 -225 571 -242 q 583 -196 571 -208 q 614 -183 594 -183 m 631 -226 q 626 -215 631 -219 q 614 -210 621 -210 q 597 -226 597 -210 q 614 -242 597 -242 q 626 -237 621 -242 q 631 -226 631 -233 m 689 -267 l 664 -267 l 664 -210 l 658 -210 l 665 -185 l 694 -185 l 696 -182 l 719 -182 l 711 -210 l 689 -210 l 689 -215 l 715 -215 l 710 -239 l 689 -239 l 689 -267 m 768 -183 q 797 -196 785 -183 q 810 -226 810 -208 q 797 -256 810 -243 q 768 -268 785 -268 q 737 -255 749 -268 q 725 -225 725 -242 q 737 -196 725 -208 q 768 -183 749 -183 m 783 -226 q 768 -210 783 -210 q 751 -226 751 -210 q 768 -242 751 -242 q 783 -226 783 -242 m 843 -231 l 843 -267 l 818 -267 l 818 -210 l 811 -210 l 818 -185 l 843 -185 l 863 -215 l 863 -185 l 888 -185 l 888 -267 l 865 -267 l 843 -231 m 932 -210 l 932 -267 l 906 -267 l 906 -210 l 893 -210 l 901 -185 l 928 -185 l 929 -182 l 953 -182 l 944 -210 l 932 -210 m 992 -182 l 1013 -186 l 1006 -211 q 988 -207 994 -207 q 982 -208 982 -207 q 987 -212 982 -211 q 998 -217 992 -214 q 1009 -225 1004 -219 q 1014 -240 1014 -231 q 982 -268 1014 -268 q 969 -266 975 -268 q 956 -261 964 -264 l 961 -236 q 982 -243 972 -243 q 988 -240 988 -243 q 982 -235 988 -237 q 970 -231 976 -233 q 958 -224 964 -229 q 953 -210 953 -219 q 961 -191 953 -199 q 981 -183 969 -183 q 985 -184 983 -183 q 990 -185 988 -185 l 992 -182 m 1033 -240 q 1046 -254 1046 -240 q 1033 -268 1046 -268 q 1019 -254 1019 -268 q 1033 -240 1019 -240 m 1099 -182 l 1119 -190 l 1107 -215 q 1098 -210 1100 -212 q 1092 -208 1096 -208 q 1075 -225 1075 -208 q 1092 -242 1075 -242 q 1108 -235 1100 -242 l 1119 -257 q 1090 -268 1106 -268 q 1062 -256 1075 -268 q 1049 -225 1049 -244 q 1061 -196 1049 -208 q 1090 -183 1074 -183 q 1097 -185 1093 -183 l 1099 -182 m 1165 -183 q 1196 -196 1185 -183 q 1207 -226 1207 -208 q 1196 -256 1207 -243 q 1165 -268 1185 -268 q 1135 -255 1146 -268 q 1124 -225 1124 -242 q 1135 -196 1124 -208 q 1165 -183 1147 -183 m 1182 -226 q 1165 -210 1182 -210 q 1149 -226 1149 -210 q 1165 -242 1149 -242 q 1182 -226 1182 -242 m 1242 -224 l 1242 -267 l 1217 -267 l 1217 -210 l 1211 -210 l 1217 -185 l 1242 -185 l 1256 -203 l 1269 -185 l 1296 -185 l 1296 -267 l 1271 -267 l 1271 -224 l 1256 -240 l 1242 -224 z "},"2":{"ha":1515,"x_min":151,"x_max":1296,"o":"m 1235 532 q 1234 521 1235 529 q 1233 503 1233 513 q 1231 486 1232 494 q 1229 474 1229 478 q 1224 449 1228 461 q 1218 424 1221 436 q 1147 269 1194 339 q 1033 148 1099 199 q 888 69 968 97 q 718 40 807 40 q 513 83 608 40 q 348 197 417 125 q 240 367 279 269 q 204 574 201 464 q 207 578 207 574 q 226 703 208 643 q 279 818 244 763 q 308 862 290 838 q 347 909 325 886 q 390 951 368 932 q 433 981 413 971 l 435 985 l 439 985 l 442 988 q 448 991 444 990 q 454 994 451 992 q 467 1002 461 999 q 478 1010 472 1006 q 508 1024 492 1018 q 540 1038 525 1031 q 628 1062 583 1054 q 718 1069 672 1069 q 912 1033 818 1069 q 1078 925 1006 996 q 1124 874 1103 900 q 1164 817 1146 847 q 1174 798 1169 808 q 1182 778 1178 788 q 1190 766 1186 771 q 1194 754 1193 761 q 1208 721 1203 738 q 1218 686 1213 704 q 1231 610 1228 646 q 1235 532 1235 575 m 990 785 q 917 783 954 782 q 843 783 881 783 l 815 783 q 793 708 803 746 q 771 632 783 669 q 783 631 776 631 q 796 632 789 632 q 810 629 806 632 l 810 292 l 961 292 l 961 457 l 1076 457 q 1096 526 1085 492 q 1115 594 1107 560 l 961 594 q 962 606 963 600 q 961 617 961 611 q 961 624 961 619 q 964 629 961 628 l 1092 629 q 1115 712 1101 671 q 1138 794 1128 753 l 993 794 q 990 785 989 792 m 344 778 q 324 705 335 742 q 304 632 313 668 q 316 631 310 631 q 329 632 322 632 q 335 632 332 632 q 342 629 339 632 l 342 292 l 493 292 l 493 422 q 493 444 493 433 q 496 467 493 456 q 524 466 510 465 q 554 467 539 467 q 571 467 563 467 q 589 465 579 467 l 589 294 q 619 292 604 292 q 647 292 633 292 q 694 292 671 292 q 740 292 717 293 l 740 783 q 694 783 717 782 q 647 783 671 783 q 589 781 618 783 l 589 622 l 493 622 q 494 671 493 646 q 494 721 494 696 q 492 783 494 751 l 349 783 q 346 781 346 783 q 344 778 346 779 m 361 -125 l 335 -125 l 335 -68 l 329 -68 l 336 -43 l 365 -43 l 367 -40 l 390 -40 l 383 -69 l 361 -69 l 361 -75 l 388 -75 l 379 -99 l 361 -99 l 361 -125 m 400 -68 l 393 -68 l 400 -43 l 425 -43 l 425 -87 q 433 -101 425 -101 q 442 -87 442 -101 l 442 -43 l 467 -43 l 467 -90 q 433 -126 467 -126 q 400 -90 400 -126 l 400 -68 m 504 -100 l 521 -100 l 513 -125 l 479 -125 l 479 -68 l 471 -68 l 479 -43 l 504 -43 l 504 -100 m 554 -100 l 571 -100 l 563 -125 l 529 -125 l 529 -68 l 522 -68 l 529 -43 l 554 -43 l 554 -100 m 678 -43 l 651 -125 l 628 -125 l 599 -43 l 626 -43 l 639 -82 l 651 -43 l 678 -43 m 729 -125 l 682 -125 l 682 -68 l 676 -68 l 683 -43 l 713 -43 l 714 -40 l 738 -40 l 731 -69 l 708 -69 l 708 -74 l 736 -74 l 731 -94 l 708 -94 l 708 -99 l 738 -99 l 729 -125 m 772 -107 l 772 -125 l 747 -125 l 747 -68 l 740 -68 l 747 -43 l 772 -43 q 789 -44 783 -43 q 801 -50 794 -46 q 811 -74 811 -60 q 797 -100 811 -90 l 814 -125 l 783 -125 l 772 -107 m 776 -68 l 772 -68 l 772 -82 l 776 -82 q 785 -75 785 -82 q 776 -68 785 -68 m 858 -40 l 881 -44 l 872 -69 q 854 -65 861 -65 q 849 -68 849 -65 q 853 -72 849 -71 q 865 -76 858 -74 q 876 -83 871 -78 q 882 -99 882 -89 q 873 -119 882 -112 q 849 -126 864 -126 q 822 -119 836 -126 l 828 -94 q 840 -100 833 -97 q 849 -103 846 -103 q 856 -99 856 -103 q 850 -94 856 -96 q 838 -90 844 -92 q 826 -83 832 -87 q 821 -68 821 -78 q 828 -50 821 -57 q 847 -43 836 -43 q 857 -44 853 -43 l 858 -40 m 917 -43 l 917 -125 l 892 -125 l 892 -68 l 885 -68 l 892 -43 l 917 -43 m 967 -43 q 997 -56 985 -43 q 1008 -85 1008 -68 q 997 -114 1008 -101 q 967 -126 985 -126 q 936 -114 947 -126 q 925 -85 925 -101 q 937 -56 925 -68 q 967 -43 949 -43 m 982 -85 q 978 -73 982 -78 q 967 -68 974 -68 q 954 -73 958 -68 q 950 -85 950 -78 q 954 -97 950 -92 q 967 -101 958 -101 q 978 -97 974 -101 q 982 -85 982 -92 m 1043 -89 l 1043 -125 l 1018 -125 l 1018 -68 l 1011 -68 l 1018 -43 l 1043 -43 l 1061 -74 l 1061 -43 l 1088 -43 l 1088 -125 l 1065 -125 l 1043 -89 m 193 -183 q 223 -196 211 -183 q 235 -226 235 -208 q 223 -256 235 -243 q 193 -268 211 -268 q 163 -255 174 -268 q 151 -225 151 -242 q 163 -196 151 -208 q 193 -183 175 -183 m 208 -226 q 193 -210 208 -210 q 176 -226 176 -210 q 193 -242 176 -242 q 208 -226 208 -242 m 269 -231 l 269 -267 l 244 -267 l 244 -210 l 238 -210 l 246 -185 l 269 -185 l 288 -215 l 288 -185 l 314 -185 l 314 -267 l 292 -267 l 269 -231 m 379 -185 l 379 -211 l 396 -211 l 396 -185 l 421 -185 l 421 -267 l 396 -267 l 396 -237 l 379 -237 l 379 -267 l 354 -267 l 354 -210 l 349 -210 l 356 -185 l 379 -185 m 481 -267 l 433 -267 l 433 -210 l 428 -210 l 435 -185 l 464 -185 l 464 -182 l 489 -182 l 481 -210 l 458 -210 l 458 -215 l 488 -215 l 482 -235 l 458 -235 l 458 -240 l 488 -240 l 481 -267 m 525 -247 l 525 -267 l 499 -267 l 499 -210 l 492 -210 l 500 -185 l 525 -185 q 551 -192 544 -185 q 563 -215 563 -200 q 550 -242 563 -233 l 564 -267 l 535 -267 l 525 -247 m 529 -210 l 525 -210 l 525 -224 l 528 -224 q 538 -217 538 -224 q 529 -210 538 -210 m 614 -183 q 644 -196 632 -183 q 656 -226 656 -208 q 644 -256 656 -243 q 614 -268 632 -268 q 583 -255 594 -268 q 571 -225 571 -242 q 583 -196 571 -208 q 614 -183 594 -183 m 631 -226 q 626 -215 631 -219 q 614 -210 621 -210 q 597 -226 597 -210 q 614 -242 597 -242 q 626 -237 621 -242 q 631 -226 631 -233 m 689 -267 l 664 -267 l 664 -210 l 658 -210 l 665 -185 l 694 -185 l 696 -182 l 719 -182 l 711 -210 l 689 -210 l 689 -215 l 715 -215 l 710 -239 l 689 -239 l 689 -267 m 768 -183 q 797 -196 785 -183 q 810 -226 810 -208 q 797 -256 810 -243 q 768 -268 785 -268 q 737 -255 749 -268 q 725 -225 725 -242 q 737 -196 725 -208 q 768 -183 749 -183 m 783 -226 q 768 -210 783 -210 q 751 -226 751 -210 q 768 -242 751 -242 q 783 -226 783 -242 m 843 -231 l 843 -267 l 818 -267 l 818 -210 l 811 -210 l 818 -185 l 843 -185 l 863 -215 l 863 -185 l 888 -185 l 888 -267 l 865 -267 l 843 -231 m 932 -210 l 932 -267 l 906 -267 l 906 -210 l 893 -210 l 901 -185 l 928 -185 l 929 -182 l 953 -182 l 944 -210 l 932 -210 m 992 -182 l 1013 -186 l 1006 -211 q 988 -207 994 -207 q 982 -208 982 -207 q 987 -212 982 -211 q 998 -217 992 -214 q 1009 -225 1004 -219 q 1014 -240 1014 -231 q 982 -268 1014 -268 q 969 -266 975 -268 q 956 -261 964 -264 l 961 -236 q 982 -243 972 -243 q 988 -240 988 -243 q 982 -235 988 -237 q 970 -231 976 -233 q 958 -224 964 -229 q 953 -210 953 -219 q 961 -191 953 -199 q 981 -183 969 -183 q 985 -184 983 -183 q 990 -185 988 -185 l 992 -182 m 1033 -240 q 1046 -254 1046 -240 q 1033 -268 1046 -268 q 1019 -254 1019 -268 q 1033 -240 1019 -240 m 1099 -182 l 1119 -190 l 1107 -215 q 1098 -210 1100 -212 q 1092 -208 1096 -208 q 1075 -225 1075 -208 q 1092 -242 1075 -242 q 1108 -235 1100 -242 l 1119 -257 q 1090 -268 1106 -268 q 1062 -256 1075 -268 q 1049 -225 1049 -244 q 1061 -196 1049 -208 q 1090 -183 1074 -183 q 1097 -185 1093 -183 l 1099 -182 m 1165 -183 q 1196 -196 1185 -183 q 1207 -226 1207 -208 q 1196 -256 1207 -243 q 1165 -268 1185 -268 q 1135 -255 1146 -268 q 1124 -225 1124 -242 q 1135 -196 1124 -208 q 1165 -183 1147 -183 m 1182 -226 q 1165 -210 1182 -210 q 1149 -226 1149 -210 q 1165 -242 1149 -242 q 1182 -226 1182 -242 m 1242 -224 l 1242 -267 l 1217 -267 l 1217 -210 l 1211 -210 l 1217 -185 l 1242 -185 l 1256 -203 l 1269 -185 l 1296 -185 l 1296 -267 l 1271 -267 l 1271 -224 l 1256 -240 l 1242 -224 z "},"3":{"ha":1515,"x_min":151,"x_max":1296,"o":"m 1235 532 q 1234 521 1235 529 q 1233 503 1233 513 q 1231 486 1232 494 q 1229 474 1229 478 q 1224 449 1228 461 q 1218 424 1221 436 q 1147 269 1194 339 q 1033 148 1099 199 q 888 69 968 97 q 718 40 807 40 q 513 83 608 40 q 348 197 417 125 q 240 367 279 269 q 204 574 201 464 q 207 578 207 574 q 226 703 208 643 q 279 818 244 763 q 308 862 290 838 q 347 909 325 886 q 390 951 368 932 q 433 981 413 971 l 435 985 l 439 985 l 442 988 q 448 991 444 990 q 454 994 451 992 q 467 1002 461 999 q 478 1010 472 1006 q 508 1024 492 1018 q 540 1038 525 1031 q 628 1062 583 1054 q 718 1069 672 1069 q 912 1033 818 1069 q 1078 925 1006 996 q 1124 874 1103 900 q 1164 817 1146 847 q 1174 798 1169 808 q 1182 778 1178 788 q 1190 766 1186 771 q 1194 754 1193 761 q 1208 721 1203 738 q 1218 686 1213 704 q 1231 610 1228 646 q 1235 532 1235 575 m 990 785 q 917 783 954 782 q 843 783 881 783 l 815 783 q 793 708 803 746 q 771 632 783 669 q 783 631 776 631 q 796 632 789 632 q 810 629 806 632 l 810 292 l 961 292 l 961 457 l 1076 457 q 1096 526 1085 492 q 1115 594 1107 560 l 961 594 q 962 606 963 600 q 961 617 961 611 q 961 624 961 619 q 964 629 961 628 l 1092 629 q 1115 712 1101 671 q 1138 794 1128 753 l 993 794 q 990 785 989 792 m 344 778 q 324 705 335 742 q 304 632 313 668 q 316 631 310 631 q 329 632 322 632 q 335 632 332 632 q 342 629 339 632 l 342 292 l 493 292 l 493 422 q 493 444 493 433 q 496 467 493 456 q 524 466 510 465 q 554 467 539 467 q 571 467 563 467 q 589 465 579 467 l 589 294 q 619 292 604 292 q 647 292 633 292 q 694 292 671 292 q 740 292 717 293 l 740 783 q 694 783 717 782 q 647 783 671 783 q 589 781 618 783 l 589 622 l 493 622 q 494 671 493 646 q 494 721 494 696 q 492 783 494 751 l 349 783 q 346 781 346 783 q 344 778 346 779 m 361 -125 l 335 -125 l 335 -68 l 329 -68 l 336 -43 l 365 -43 l 367 -40 l 390 -40 l 383 -69 l 361 -69 l 361 -75 l 388 -75 l 379 -99 l 361 -99 l 361 -125 m 400 -68 l 393 -68 l 400 -43 l 425 -43 l 425 -87 q 433 -101 425 -101 q 442 -87 442 -101 l 442 -43 l 467 -43 l 467 -90 q 433 -126 467 -126 q 400 -90 400 -126 l 400 -68 m 504 -100 l 521 -100 l 513 -125 l 479 -125 l 479 -68 l 471 -68 l 479 -43 l 504 -43 l 504 -100 m 554 -100 l 571 -100 l 563 -125 l 529 -125 l 529 -68 l 522 -68 l 529 -43 l 554 -43 l 554 -100 m 678 -43 l 651 -125 l 628 -125 l 599 -43 l 626 -43 l 639 -82 l 651 -43 l 678 -43 m 729 -125 l 682 -125 l 682 -68 l 676 -68 l 683 -43 l 713 -43 l 714 -40 l 738 -40 l 731 -69 l 708 -69 l 708 -74 l 736 -74 l 731 -94 l 708 -94 l 708 -99 l 738 -99 l 729 -125 m 772 -107 l 772 -125 l 747 -125 l 747 -68 l 740 -68 l 747 -43 l 772 -43 q 789 -44 783 -43 q 801 -50 794 -46 q 811 -74 811 -60 q 797 -100 811 -90 l 814 -125 l 783 -125 l 772 -107 m 776 -68 l 772 -68 l 772 -82 l 776 -82 q 785 -75 785 -82 q 776 -68 785 -68 m 858 -40 l 881 -44 l 872 -69 q 854 -65 861 -65 q 849 -68 849 -65 q 853 -72 849 -71 q 865 -76 858 -74 q 876 -83 871 -78 q 882 -99 882 -89 q 873 -119 882 -112 q 849 -126 864 -126 q 822 -119 836 -126 l 828 -94 q 840 -100 833 -97 q 849 -103 846 -103 q 856 -99 856 -103 q 850 -94 856 -96 q 838 -90 844 -92 q 826 -83 832 -87 q 821 -68 821 -78 q 828 -50 821 -57 q 847 -43 836 -43 q 857 -44 853 -43 l 858 -40 m 917 -43 l 917 -125 l 892 -125 l 892 -68 l 885 -68 l 892 -43 l 917 -43 m 967 -43 q 997 -56 985 -43 q 1008 -85 1008 -68 q 997 -114 1008 -101 q 967 -126 985 -126 q 936 -114 947 -126 q 925 -85 925 -101 q 937 -56 925 -68 q 967 -43 949 -43 m 982 -85 q 978 -73 982 -78 q 967 -68 974 -68 q 954 -73 958 -68 q 950 -85 950 -78 q 954 -97 950 -92 q 967 -101 958 -101 q 978 -97 974 -101 q 982 -85 982 -92 m 1043 -89 l 1043 -125 l 1018 -125 l 1018 -68 l 1011 -68 l 1018 -43 l 1043 -43 l 1061 -74 l 1061 -43 l 1088 -43 l 1088 -125 l 1065 -125 l 1043 -89 m 193 -183 q 223 -196 211 -183 q 235 -226 235 -208 q 223 -256 235 -243 q 193 -268 211 -268 q 163 -255 174 -268 q 151 -225 151 -242 q 163 -196 151 -208 q 193 -183 175 -183 m 208 -226 q 193 -210 208 -210 q 176 -226 176 -210 q 193 -242 176 -242 q 208 -226 208 -242 m 269 -231 l 269 -267 l 244 -267 l 244 -210 l 238 -210 l 246 -185 l 269 -185 l 288 -215 l 288 -185 l 314 -185 l 314 -267 l 292 -267 l 269 -231 m 379 -185 l 379 -211 l 396 -211 l 396 -185 l 421 -185 l 421 -267 l 396 -267 l 396 -237 l 379 -237 l 379 -267 l 354 -267 l 354 -210 l 349 -210 l 356 -185 l 379 -185 m 481 -267 l 433 -267 l 433 -210 l 428 -210 l 435 -185 l 464 -185 l 464 -182 l 489 -182 l 481 -210 l 458 -210 l 458 -215 l 488 -215 l 482 -235 l 458 -235 l 458 -240 l 488 -240 l 481 -267 m 525 -247 l 525 -267 l 499 -267 l 499 -210 l 492 -210 l 500 -185 l 525 -185 q 551 -192 544 -185 q 563 -215 563 -200 q 550 -242 563 -233 l 564 -267 l 535 -267 l 525 -247 m 529 -210 l 525 -210 l 525 -224 l 528 -224 q 538 -217 538 -224 q 529 -210 538 -210 m 614 -183 q 644 -196 632 -183 q 656 -226 656 -208 q 644 -256 656 -243 q 614 -268 632 -268 q 583 -255 594 -268 q 571 -225 571 -242 q 583 -196 571 -208 q 614 -183 594 -183 m 631 -226 q 626 -215 631 -219 q 614 -210 621 -210 q 597 -226 597 -210 q 614 -242 597 -242 q 626 -237 621 -242 q 631 -226 631 -233 m 689 -267 l 664 -267 l 664 -210 l 658 -210 l 665 -185 l 694 -185 l 696 -182 l 719 -182 l 711 -210 l 689 -210 l 689 -215 l 715 -215 l 710 -239 l 689 -239 l 689 -267 m 768 -183 q 797 -196 785 -183 q 810 -226 810 -208 q 797 -256 810 -243 q 768 -268 785 -268 q 737 -255 749 -268 q 725 -225 725 -242 q 737 -196 725 -208 q 768 -183 749 -183 m 783 -226 q 768 -210 783 -210 q 751 -226 751 -210 q 768 -242 751 -242 q 783 -226 783 -242 m 843 -231 l 843 -267 l 818 -267 l 818 -210 l 811 -210 l 818 -185 l 843 -185 l 863 -215 l 863 -185 l 888 -185 l 888 -267 l 865 -267 l 843 -231 m 932 -210 l 932 -267 l 906 -267 l 906 -210 l 893 -210 l 901 -185 l 928 -185 l 929 -182 l 953 -182 l 944 -210 l 932 -210 m 992 -182 l 1013 -186 l 1006 -211 q 988 -207 994 -207 q 982 -208 982 -207 q 987 -212 982 -211 q 998 -217 992 -214 q 1009 -225 1004 -219 q 1014 -240 1014 -231 q 982 -268 1014 -268 q 969 -266 975 -268 q 956 -261 964 -264 l 961 -236 q 982 -243 972 -243 q 988 -240 988 -243 q 982 -235 988 -237 q 970 -231 976 -233 q 958 -224 964 -229 q 953 -210 953 -219 q 961 -191 953 -199 q 981 -183 969 -183 q 985 -184 983 -183 q 990 -185 988 -185 l 992 -182 m 1033 -240 q 1046 -254 1046 -240 q 1033 -268 1046 -268 q 1019 -254 1019 -268 q 1033 -240 1019 -240 m 1099 -182 l 1119 -190 l 1107 -215 q 1098 -210 1100 -212 q 1092 -208 1096 -208 q 1075 -225 1075 -208 q 1092 -242 1075 -242 q 1108 -235 1100 -242 l 1119 -257 q 1090 -268 1106 -268 q 1062 -256 1075 -268 q 1049 -225 1049 -244 q 1061 -196 1049 -208 q 1090 -183 1074 -183 q 1097 -185 1093 -183 l 1099 -182 m 1165 -183 q 1196 -196 1185 -183 q 1207 -226 1207 -208 q 1196 -256 1207 -243 q 1165 -268 1185 -268 q 1135 -255 1146 -268 q 1124 -225 1124 -242 q 1135 -196 1124 -208 q 1165 -183 1147 -183 m 1182 -226 q 1165 -210 1182 -210 q 1149 -226 1149 -210 q 1165 -242 1149 -242 q 1182 -226 1182 -242 m 1242 -224 l 1242 -267 l 1217 -267 l 1217 -210 l 1211 -210 l 1217 -185 l 1242 -185 l 1256 -203 l 1269 -185 l 1296 -185 l 1296 -267 l 1271 -267 l 1271 -224 l 1256 -240 l 1242 -224 z "},"4":{"ha":1515,"x_min":151,"x_max":1296,"o":"m 1235 532 q 1234 521 1235 529 q 1233 503 1233 513 q 1231 486 1232 494 q 1229 474 1229 478 q 1224 449 1228 461 q 1218 424 1221 436 q 1147 269 1194 339 q 1033 148 1099 199 q 888 69 968 97 q 718 40 807 40 q 513 83 608 40 q 348 197 417 125 q 240 367 279 269 q 204 574 201 464 q 207 578 207 574 q 226 703 208 643 q 279 818 244 763 q 308 862 290 838 q 347 909 325 886 q 390 951 368 932 q 433 981 413 971 l 435 985 l 439 985 l 442 988 q 448 991 444 990 q 454 994 451 992 q 467 1002 461 999 q 478 1010 472 1006 q 508 1024 492 1018 q 540 1038 525 1031 q 628 1062 583 1054 q 718 1069 672 1069 q 912 1033 818 1069 q 1078 925 1006 996 q 1124 874 1103 900 q 1164 817 1146 847 q 1174 798 1169 808 q 1182 778 1178 788 q 1190 766 1186 771 q 1194 754 1193 761 q 1208 721 1203 738 q 1218 686 1213 704 q 1231 610 1228 646 q 1235 532 1235 575 m 990 785 q 917 783 954 782 q 843 783 881 783 l 815 783 q 793 708 803 746 q 771 632 783 669 q 783 631 776 631 q 796 632 789 632 q 810 629 806 632 l 810 292 l 961 292 l 961 457 l 1076 457 q 1096 526 1085 492 q 1115 594 1107 560 l 961 594 q 962 606 963 600 q 961 617 961 611 q 961 624 961 619 q 964 629 961 628 l 1092 629 q 1115 712 1101 671 q 1138 794 1128 753 l 993 794 q 990 785 989 792 m 344 778 q 324 705 335 742 q 304 632 313 668 q 316 631 310 631 q 329 632 322 632 q 335 632 332 632 q 342 629 339 632 l 342 292 l 493 292 l 493 422 q 493 444 493 433 q 496 467 493 456 q 524 466 510 465 q 554 467 539 467 q 571 467 563 467 q 589 465 579 467 l 589 294 q 619 292 604 292 q 647 292 633 292 q 694 292 671 292 q 740 292 717 293 l 740 783 q 694 783 717 782 q 647 783 671 783 q 589 781 618 783 l 589 622 l 493 622 q 494 671 493 646 q 494 721 494 696 q 492 783 494 751 l 349 783 q 346 781 346 783 q 344 778 346 779 m 361 -125 l 335 -125 l 335 -68 l 329 -68 l 336 -43 l 365 -43 l 367 -40 l 390 -40 l 383 -69 l 361 -69 l 361 -75 l 388 -75 l 379 -99 l 361 -99 l 361 -125 m 400 -68 l 393 -68 l 400 -43 l 425 -43 l 425 -87 q 433 -101 425 -101 q 442 -87 442 -101 l 442 -43 l 467 -43 l 467 -90 q 433 -126 467 -126 q 400 -90 400 -126 l 400 -68 m 504 -100 l 521 -100 l 513 -125 l 479 -125 l 479 -68 l 471 -68 l 479 -43 l 504 -43 l 504 -100 m 554 -100 l 571 -100 l 563 -125 l 529 -125 l 529 -68 l 522 -68 l 529 -43 l 554 -43 l 554 -100 m 678 -43 l 651 -125 l 628 -125 l 599 -43 l 626 -43 l 639 -82 l 651 -43 l 678 -43 m 729 -125 l 682 -125 l 682 -68 l 676 -68 l 683 -43 l 713 -43 l 714 -40 l 738 -40 l 731 -69 l 708 -69 l 708 -74 l 736 -74 l 731 -94 l 708 -94 l 708 -99 l 738 -99 l 729 -125 m 772 -107 l 772 -125 l 747 -125 l 747 -68 l 740 -68 l 747 -43 l 772 -43 q 789 -44 783 -43 q 801 -50 794 -46 q 811 -74 811 -60 q 797 -100 811 -90 l 814 -125 l 783 -125 l 772 -107 m 776 -68 l 772 -68 l 772 -82 l 776 -82 q 785 -75 785 -82 q 776 -68 785 -68 m 858 -40 l 881 -44 l 872 -69 q 854 -65 861 -65 q 849 -68 849 -65 q 853 -72 849 -71 q 865 -76 858 -74 q 876 -83 871 -78 q 882 -99 882 -89 q 873 -119 882 -112 q 849 -126 864 -126 q 822 -119 836 -126 l 828 -94 q 840 -100 833 -97 q 849 -103 846 -103 q 856 -99 856 -103 q 850 -94 856 -96 q 838 -90 844 -92 q 826 -83 832 -87 q 821 -68 821 -78 q 828 -50 821 -57 q 847 -43 836 -43 q 857 -44 853 -43 l 858 -40 m 917 -43 l 917 -125 l 892 -125 l 892 -68 l 885 -68 l 892 -43 l 917 -43 m 967 -43 q 997 -56 985 -43 q 1008 -85 1008 -68 q 997 -114 1008 -101 q 967 -126 985 -126 q 936 -114 947 -126 q 925 -85 925 -101 q 937 -56 925 -68 q 967 -43 949 -43 m 982 -85 q 978 -73 982 -78 q 967 -68 974 -68 q 954 -73 958 -68 q 950 -85 950 -78 q 954 -97 950 -92 q 967 -101 958 -101 q 978 -97 974 -101 q 982 -85 982 -92 m 1043 -89 l 1043 -125 l 1018 -125 l 1018 -68 l 1011 -68 l 1018 -43 l 1043 -43 l 1061 -74 l 1061 -43 l 1088 -43 l 1088 -125 l 1065 -125 l 1043 -89 m 193 -183 q 223 -196 211 -183 q 235 -226 235 -208 q 223 -256 235 -243 q 193 -268 211 -268 q 163 -255 174 -268 q 151 -225 151 -242 q 163 -196 151 -208 q 193 -183 175 -183 m 208 -226 q 193 -210 208 -210 q 176 -226 176 -210 q 193 -242 176 -242 q 208 -226 208 -242 m 269 -231 l 269 -267 l 244 -267 l 244 -210 l 238 -210 l 246 -185 l 269 -185 l 288 -215 l 288 -185 l 314 -185 l 314 -267 l 292 -267 l 269 -231 m 379 -185 l 379 -211 l 396 -211 l 396 -185 l 421 -185 l 421 -267 l 396 -267 l 396 -237 l 379 -237 l 379 -267 l 354 -267 l 354 -210 l 349 -210 l 356 -185 l 379 -185 m 481 -267 l 433 -267 l 433 -210 l 428 -210 l 435 -185 l 464 -185 l 464 -182 l 489 -182 l 481 -210 l 458 -210 l 458 -215 l 488 -215 l 482 -235 l 458 -235 l 458 -240 l 488 -240 l 481 -267 m 525 -247 l 525 -267 l 499 -267 l 499 -210 l 492 -210 l 500 -185 l 525 -185 q 551 -192 544 -185 q 563 -215 563 -200 q 550 -242 563 -233 l 564 -267 l 535 -267 l 525 -247 m 529 -210 l 525 -210 l 525 -224 l 528 -224 q 538 -217 538 -224 q 529 -210 538 -210 m 614 -183 q 644 -196 632 -183 q 656 -226 656 -208 q 644 -256 656 -243 q 614 -268 632 -268 q 583 -255 594 -268 q 571 -225 571 -242 q 583 -196 571 -208 q 614 -183 594 -183 m 631 -226 q 626 -215 631 -219 q 614 -210 621 -210 q 597 -226 597 -210 q 614 -242 597 -242 q 626 -237 621 -242 q 631 -226 631 -233 m 689 -267 l 664 -267 l 664 -210 l 658 -210 l 665 -185 l 694 -185 l 696 -182 l 719 -182 l 711 -210 l 689 -210 l 689 -215 l 715 -215 l 710 -239 l 689 -239 l 689 -267 m 768 -183 q 797 -196 785 -183 q 810 -226 810 -208 q 797 -256 810 -243 q 768 -268 785 -268 q 737 -255 749 -268 q 725 -225 725 -242 q 737 -196 725 -208 q 768 -183 749 -183 m 783 -226 q 768 -210 783 -210 q 751 -226 751 -210 q 768 -242 751 -242 q 783 -226 783 -242 m 843 -231 l 843 -267 l 818 -267 l 818 -210 l 811 -210 l 818 -185 l 843 -185 l 863 -215 l 863 -185 l 888 -185 l 888 -267 l 865 -267 l 843 -231 m 932 -210 l 932 -267 l 906 -267 l 906 -210 l 893 -210 l 901 -185 l 928 -185 l 929 -182 l 953 -182 l 944 -210 l 932 -210 m 992 -182 l 1013 -186 l 1006 -211 q 988 -207 994 -207 q 982 -208 982 -207 q 987 -212 982 -211 q 998 -217 992 -214 q 1009 -225 1004 -219 q 1014 -240 1014 -231 q 982 -268 1014 -268 q 969 -266 975 -268 q 956 -261 964 -264 l 961 -236 q 982 -243 972 -243 q 988 -240 988 -243 q 982 -235 988 -237 q 970 -231 976 -233 q 958 -224 964 -229 q 953 -210 953 -219 q 961 -191 953 -199 q 981 -183 969 -183 q 985 -184 983 -183 q 990 -185 988 -185 l 992 -182 m 1033 -240 q 1046 -254 1046 -240 q 1033 -268 1046 -268 q 1019 -254 1019 -268 q 1033 -240 1019 -240 m 1099 -182 l 1119 -190 l 1107 -215 q 1098 -210 1100 -212 q 1092 -208 1096 -208 q 1075 -225 1075 -208 q 1092 -242 1075 -242 q 1108 -235 1100 -242 l 1119 -257 q 1090 -268 1106 -268 q 1062 -256 1075 -268 q 1049 -225 1049 -244 q 1061 -196 1049 -208 q 1090 -183 1074 -183 q 1097 -185 1093 -183 l 1099 -182 m 1165 -183 q 1196 -196 1185 -183 q 1207 -226 1207 -208 q 1196 -256 1207 -243 q 1165 -268 1185 -268 q 1135 -255 1146 -268 q 1124 -225 1124 -242 q 1135 -196 1124 -208 q 1165 -183 1147 -183 m 1182 -226 q 1165 -210 1182 -210 q 1149 -226 1149 -210 q 1165 -242 1149 -242 q 1182 -226 1182 -242 m 1242 -224 l 1242 -267 l 1217 -267 l 1217 -210 l 1211 -210 l 1217 -185 l 1242 -185 l 1256 -203 l 1269 -185 l 1296 -185 l 1296 -267 l 1271 -267 l 1271 -224 l 1256 -240 l 1242 -224 z "},"5":{"ha":1515,"x_min":151,"x_max":1296,"o":"m 1235 532 q 1234 521 1235 529 q 1233 503 1233 513 q 1231 486 1232 494 q 1229 474 1229 478 q 1224 449 1228 461 q 1218 424 1221 436 q 1147 269 1194 339 q 1033 148 1099 199 q 888 69 968 97 q 718 40 807 40 q 513 83 608 40 q 348 197 417 125 q 240 367 279 269 q 204 574 201 464 q 207 578 207 574 q 226 703 208 643 q 279 818 244 763 q 308 862 290 838 q 347 909 325 886 q 390 951 368 932 q 433 981 413 971 l 435 985 l 439 985 l 442 988 q 448 991 444 990 q 454 994 451 992 q 467 1002 461 999 q 478 1010 472 1006 q 508 1024 492 1018 q 540 1038 525 1031 q 628 1062 583 1054 q 718 1069 672 1069 q 912 1033 818 1069 q 1078 925 1006 996 q 1124 874 1103 900 q 1164 817 1146 847 q 1174 798 1169 808 q 1182 778 1178 788 q 1190 766 1186 771 q 1194 754 1193 761 q 1208 721 1203 738 q 1218 686 1213 704 q 1231 610 1228 646 q 1235 532 1235 575 m 990 785 q 917 783 954 782 q 843 783 881 783 l 815 783 q 793 708 803 746 q 771 632 783 669 q 783 631 776 631 q 796 632 789 632 q 810 629 806 632 l 810 292 l 961 292 l 961 457 l 1076 457 q 1096 526 1085 492 q 1115 594 1107 560 l 961 594 q 962 606 963 600 q 961 617 961 611 q 961 624 961 619 q 964 629 961 628 l 1092 629 q 1115 712 1101 671 q 1138 794 1128 753 l 993 794 q 990 785 989 792 m 344 778 q 324 705 335 742 q 304 632 313 668 q 316 631 310 631 q 329 632 322 632 q 335 632 332 632 q 342 629 339 632 l 342 292 l 493 292 l 493 422 q 493 444 493 433 q 496 467 493 456 q 524 466 510 465 q 554 467 539 467 q 571 467 563 467 q 589 465 579 467 l 589 294 q 619 292 604 292 q 647 292 633 292 q 694 292 671 292 q 740 292 717 293 l 740 783 q 694 783 717 782 q 647 783 671 783 q 589 781 618 783 l 589 622 l 493 622 q 494 671 493 646 q 494 721 494 696 q 492 783 494 751 l 349 783 q 346 781 346 783 q 344 778 346 779 m 361 -125 l 335 -125 l 335 -68 l 329 -68 l 336 -43 l 365 -43 l 367 -40 l 390 -40 l 383 -69 l 361 -69 l 361 -75 l 388 -75 l 379 -99 l 361 -99 l 361 -125 m 400 -68 l 393 -68 l 400 -43 l 425 -43 l 425 -87 q 433 -101 425 -101 q 442 -87 442 -101 l 442 -43 l 467 -43 l 467 -90 q 433 -126 467 -126 q 400 -90 400 -126 l 400 -68 m 504 -100 l 521 -100 l 513 -125 l 479 -125 l 479 -68 l 471 -68 l 479 -43 l 504 -43 l 504 -100 m 554 -100 l 571 -100 l 563 -125 l 529 -125 l 529 -68 l 522 -68 l 529 -43 l 554 -43 l 554 -100 m 678 -43 l 651 -125 l 628 -125 l 599 -43 l 626 -43 l 639 -82 l 651 -43 l 678 -43 m 729 -125 l 682 -125 l 682 -68 l 676 -68 l 683 -43 l 713 -43 l 714 -40 l 738 -40 l 731 -69 l 708 -69 l 708 -74 l 736 -74 l 731 -94 l 708 -94 l 708 -99 l 738 -99 l 729 -125 m 772 -107 l 772 -125 l 747 -125 l 747 -68 l 740 -68 l 747 -43 l 772 -43 q 789 -44 783 -43 q 801 -50 794 -46 q 811 -74 811 -60 q 797 -100 811 -90 l 814 -125 l 783 -125 l 772 -107 m 776 -68 l 772 -68 l 772 -82 l 776 -82 q 785 -75 785 -82 q 776 -68 785 -68 m 858 -40 l 881 -44 l 872 -69 q 854 -65 861 -65 q 849 -68 849 -65 q 853 -72 849 -71 q 865 -76 858 -74 q 876 -83 871 -78 q 882 -99 882 -89 q 873 -119 882 -112 q 849 -126 864 -126 q 822 -119 836 -126 l 828 -94 q 840 -100 833 -97 q 849 -103 846 -103 q 856 -99 856 -103 q 850 -94 856 -96 q 838 -90 844 -92 q 826 -83 832 -87 q 821 -68 821 -78 q 828 -50 821 -57 q 847 -43 836 -43 q 857 -44 853 -43 l 858 -40 m 917 -43 l 917 -125 l 892 -125 l 892 -68 l 885 -68 l 892 -43 l 917 -43 m 967 -43 q 997 -56 985 -43 q 1008 -85 1008 -68 q 997 -114 1008 -101 q 967 -126 985 -126 q 936 -114 947 -126 q 925 -85 925 -101 q 937 -56 925 -68 q 967 -43 949 -43 m 982 -85 q 978 -73 982 -78 q 967 -68 974 -68 q 954 -73 958 -68 q 950 -85 950 -78 q 954 -97 950 -92 q 967 -101 958 -101 q 978 -97 974 -101 q 982 -85 982 -92 m 1043 -89 l 1043 -125 l 1018 -125 l 1018 -68 l 1011 -68 l 1018 -43 l 1043 -43 l 1061 -74 l 1061 -43 l 1088 -43 l 1088 -125 l 1065 -125 l 1043 -89 m 193 -183 q 223 -196 211 -183 q 235 -226 235 -208 q 223 -256 235 -243 q 193 -268 211 -268 q 163 -255 174 -268 q 151 -225 151 -242 q 163 -196 151 -208 q 193 -183 175 -183 m 208 -226 q 193 -210 208 -210 q 176 -226 176 -210 q 193 -242 176 -242 q 208 -226 208 -242 m 269 -231 l 269 -267 l 244 -267 l 244 -210 l 238 -210 l 246 -185 l 269 -185 l 288 -215 l 288 -185 l 314 -185 l 314 -267 l 292 -267 l 269 -231 m 379 -185 l 379 -211 l 396 -211 l 396 -185 l 421 -185 l 421 -267 l 396 -267 l 396 -237 l 379 -237 l 379 -267 l 354 -267 l 354 -210 l 349 -210 l 356 -185 l 379 -185 m 481 -267 l 433 -267 l 433 -210 l 428 -210 l 435 -185 l 464 -185 l 464 -182 l 489 -182 l 481 -210 l 458 -210 l 458 -215 l 488 -215 l 482 -235 l 458 -235 l 458 -240 l 488 -240 l 481 -267 m 525 -247 l 525 -267 l 499 -267 l 499 -210 l 492 -210 l 500 -185 l 525 -185 q 551 -192 544 -185 q 563 -215 563 -200 q 550 -242 563 -233 l 564 -267 l 535 -267 l 525 -247 m 529 -210 l 525 -210 l 525 -224 l 528 -224 q 538 -217 538 -224 q 529 -210 538 -210 m 614 -183 q 644 -196 632 -183 q 656 -226 656 -208 q 644 -256 656 -243 q 614 -268 632 -268 q 583 -255 594 -268 q 571 -225 571 -242 q 583 -196 571 -208 q 614 -183 594 -183 m 631 -226 q 626 -215 631 -219 q 614 -210 621 -210 q 597 -226 597 -210 q 614 -242 597 -242 q 626 -237 621 -242 q 631 -226 631 -233 m 689 -267 l 664 -267 l 664 -210 l 658 -210 l 665 -185 l 694 -185 l 696 -182 l 719 -182 l 711 -210 l 689 -210 l 689 -215 l 715 -215 l 710 -239 l 689 -239 l 689 -267 m 768 -183 q 797 -196 785 -183 q 810 -226 810 -208 q 797 -256 810 -243 q 768 -268 785 -268 q 737 -255 749 -268 q 725 -225 725 -242 q 737 -196 725 -208 q 768 -183 749 -183 m 783 -226 q 768 -210 783 -210 q 751 -226 751 -210 q 768 -242 751 -242 q 783 -226 783 -242 m 843 -231 l 843 -267 l 818 -267 l 818 -210 l 811 -210 l 818 -185 l 843 -185 l 863 -215 l 863 -185 l 888 -185 l 888 -267 l 865 -267 l 843 -231 m 932 -210 l 932 -267 l 906 -267 l 906 -210 l 893 -210 l 901 -185 l 928 -185 l 929 -182 l 953 -182 l 944 -210 l 932 -210 m 992 -182 l 1013 -186 l 1006 -211 q 988 -207 994 -207 q 982 -208 982 -207 q 987 -212 982 -211 q 998 -217 992 -214 q 1009 -225 1004 -219 q 1014 -240 1014 -231 q 982 -268 1014 -268 q 969 -266 975 -268 q 956 -261 964 -264 l 961 -236 q 982 -243 972 -243 q 988 -240 988 -243 q 982 -235 988 -237 q 970 -231 976 -233 q 958 -224 964 -229 q 953 -210 953 -219 q 961 -191 953 -199 q 981 -183 969 -183 q 985 -184 983 -183 q 990 -185 988 -185 l 992 -182 m 1033 -240 q 1046 -254 1046 -240 q 1033 -268 1046 -268 q 1019 -254 1019 -268 q 1033 -240 1019 -240 m 1099 -182 l 1119 -190 l 1107 -215 q 1098 -210 1100 -212 q 1092 -208 1096 -208 q 1075 -225 1075 -208 q 1092 -242 1075 -242 q 1108 -235 1100 -242 l 1119 -257 q 1090 -268 1106 -268 q 1062 -256 1075 -268 q 1049 -225 1049 -244 q 1061 -196 1049 -208 q 1090 -183 1074 -183 q 1097 -185 1093 -183 l 1099 -182 m 1165 -183 q 1196 -196 1185 -183 q 1207 -226 1207 -208 q 1196 -256 1207 -243 q 1165 -268 1185 -268 q 1135 -255 1146 -268 q 1124 -225 1124 -242 q 1135 -196 1124 -208 q 1165 -183 1147 -183 m 1182 -226 q 1165 -210 1182 -210 q 1149 -226 1149 -210 q 1165 -242 1149 -242 q 1182 -226 1182 -242 m 1242 -224 l 1242 -267 l 1217 -267 l 1217 -210 l 1211 -210 l 1217 -185 l 1242 -185 l 1256 -203 l 1269 -185 l 1296 -185 l 1296 -267 l 1271 -267 l 1271 -224 l 1256 -240 l 1242 -224 z "},"6":{"ha":1515,"x_min":151,"x_max":1296,"o":"m 1235 532 q 1234 521 1235 529 q 1233 503 1233 513 q 1231 486 1232 494 q 1229 474 1229 478 q 1224 449 1228 461 q 1218 424 1221 436 q 1147 269 1194 339 q 1033 148 1099 199 q 888 69 968 97 q 718 40 807 40 q 513 83 608 40 q 348 197 417 125 q 240 367 279 269 q 204 574 201 464 q 207 578 207 574 q 226 703 208 643 q 279 818 244 763 q 308 862 290 838 q 347 909 325 886 q 390 951 368 932 q 433 981 413 971 l 435 985 l 439 985 l 442 988 q 448 991 444 990 q 454 994 451 992 q 467 1002 461 999 q 478 1010 472 1006 q 508 1024 492 1018 q 540 1038 525 1031 q 628 1062 583 1054 q 718 1069 672 1069 q 912 1033 818 1069 q 1078 925 1006 996 q 1124 874 1103 900 q 1164 817 1146 847 q 1174 798 1169 808 q 1182 778 1178 788 q 1190 766 1186 771 q 1194 754 1193 761 q 1208 721 1203 738 q 1218 686 1213 704 q 1231 610 1228 646 q 1235 532 1235 575 m 990 785 q 917 783 954 782 q 843 783 881 783 l 815 783 q 793 708 803 746 q 771 632 783 669 q 783 631 776 631 q 796 632 789 632 q 810 629 806 632 l 810 292 l 961 292 l 961 457 l 1076 457 q 1096 526 1085 492 q 1115 594 1107 560 l 961 594 q 962 606 963 600 q 961 617 961 611 q 961 624 961 619 q 964 629 961 628 l 1092 629 q 1115 712 1101 671 q 1138 794 1128 753 l 993 794 q 990 785 989 792 m 344 778 q 324 705 335 742 q 304 632 313 668 q 316 631 310 631 q 329 632 322 632 q 335 632 332 632 q 342 629 339 632 l 342 292 l 493 292 l 493 422 q 493 444 493 433 q 496 467 493 456 q 524 466 510 465 q 554 467 539 467 q 571 467 563 467 q 589 465 579 467 l 589 294 q 619 292 604 292 q 647 292 633 292 q 694 292 671 292 q 740 292 717 293 l 740 783 q 694 783 717 782 q 647 783 671 783 q 589 781 618 783 l 589 622 l 493 622 q 494 671 493 646 q 494 721 494 696 q 492 783 494 751 l 349 783 q 346 781 346 783 q 344 778 346 779 m 361 -125 l 335 -125 l 335 -68 l 329 -68 l 336 -43 l 365 -43 l 367 -40 l 390 -40 l 383 -69 l 361 -69 l 361 -75 l 388 -75 l 379 -99 l 361 -99 l 361 -125 m 400 -68 l 393 -68 l 400 -43 l 425 -43 l 425 -87 q 433 -101 425 -101 q 442 -87 442 -101 l 442 -43 l 467 -43 l 467 -90 q 433 -126 467 -126 q 400 -90 400 -126 l 400 -68 m 504 -100 l 521 -100 l 513 -125 l 479 -125 l 479 -68 l 471 -68 l 479 -43 l 504 -43 l 504 -100 m 554 -100 l 571 -100 l 563 -125 l 529 -125 l 529 -68 l 522 -68 l 529 -43 l 554 -43 l 554 -100 m 678 -43 l 651 -125 l 628 -125 l 599 -43 l 626 -43 l 639 -82 l 651 -43 l 678 -43 m 729 -125 l 682 -125 l 682 -68 l 676 -68 l 683 -43 l 713 -43 l 714 -40 l 738 -40 l 731 -69 l 708 -69 l 708 -74 l 736 -74 l 731 -94 l 708 -94 l 708 -99 l 738 -99 l 729 -125 m 772 -107 l 772 -125 l 747 -125 l 747 -68 l 740 -68 l 747 -43 l 772 -43 q 789 -44 783 -43 q 801 -50 794 -46 q 811 -74 811 -60 q 797 -100 811 -90 l 814 -125 l 783 -125 l 772 -107 m 776 -68 l 772 -68 l 772 -82 l 776 -82 q 785 -75 785 -82 q 776 -68 785 -68 m 858 -40 l 881 -44 l 872 -69 q 854 -65 861 -65 q 849 -68 849 -65 q 853 -72 849 -71 q 865 -76 858 -74 q 876 -83 871 -78 q 882 -99 882 -89 q 873 -119 882 -112 q 849 -126 864 -126 q 822 -119 836 -126 l 828 -94 q 840 -100 833 -97 q 849 -103 846 -103 q 856 -99 856 -103 q 850 -94 856 -96 q 838 -90 844 -92 q 826 -83 832 -87 q 821 -68 821 -78 q 828 -50 821 -57 q 847 -43 836 -43 q 857 -44 853 -43 l 858 -40 m 917 -43 l 917 -125 l 892 -125 l 892 -68 l 885 -68 l 892 -43 l 917 -43 m 967 -43 q 997 -56 985 -43 q 1008 -85 1008 -68 q 997 -114 1008 -101 q 967 -126 985 -126 q 936 -114 947 -126 q 925 -85 925 -101 q 937 -56 925 -68 q 967 -43 949 -43 m 982 -85 q 978 -73 982 -78 q 967 -68 974 -68 q 954 -73 958 -68 q 950 -85 950 -78 q 954 -97 950 -92 q 967 -101 958 -101 q 978 -97 974 -101 q 982 -85 982 -92 m 1043 -89 l 1043 -125 l 1018 -125 l 1018 -68 l 1011 -68 l 1018 -43 l 1043 -43 l 1061 -74 l 1061 -43 l 1088 -43 l 1088 -125 l 1065 -125 l 1043 -89 m 193 -183 q 223 -196 211 -183 q 235 -226 235 -208 q 223 -256 235 -243 q 193 -268 211 -268 q 163 -255 174 -268 q 151 -225 151 -242 q 163 -196 151 -208 q 193 -183 175 -183 m 208 -226 q 193 -210 208 -210 q 176 -226 176 -210 q 193 -242 176 -242 q 208 -226 208 -242 m 269 -231 l 269 -267 l 244 -267 l 244 -210 l 238 -210 l 246 -185 l 269 -185 l 288 -215 l 288 -185 l 314 -185 l 314 -267 l 292 -267 l 269 -231 m 379 -185 l 379 -211 l 396 -211 l 396 -185 l 421 -185 l 421 -267 l 396 -267 l 396 -237 l 379 -237 l 379 -267 l 354 -267 l 354 -210 l 349 -210 l 356 -185 l 379 -185 m 481 -267 l 433 -267 l 433 -210 l 428 -210 l 435 -185 l 464 -185 l 464 -182 l 489 -182 l 481 -210 l 458 -210 l 458 -215 l 488 -215 l 482 -235 l 458 -235 l 458 -240 l 488 -240 l 481 -267 m 525 -247 l 525 -267 l 499 -267 l 499 -210 l 492 -210 l 500 -185 l 525 -185 q 551 -192 544 -185 q 563 -215 563 -200 q 550 -242 563 -233 l 564 -267 l 535 -267 l 525 -247 m 529 -210 l 525 -210 l 525 -224 l 528 -224 q 538 -217 538 -224 q 529 -210 538 -210 m 614 -183 q 644 -196 632 -183 q 656 -226 656 -208 q 644 -256 656 -243 q 614 -268 632 -268 q 583 -255 594 -268 q 571 -225 571 -242 q 583 -196 571 -208 q 614 -183 594 -183 m 631 -226 q 626 -215 631 -219 q 614 -210 621 -210 q 597 -226 597 -210 q 614 -242 597 -242 q 626 -237 621 -242 q 631 -226 631 -233 m 689 -267 l 664 -267 l 664 -210 l 658 -210 l 665 -185 l 694 -185 l 696 -182 l 719 -182 l 711 -210 l 689 -210 l 689 -215 l 715 -215 l 710 -239 l 689 -239 l 689 -267 m 768 -183 q 797 -196 785 -183 q 810 -226 810 -208 q 797 -256 810 -243 q 768 -268 785 -268 q 737 -255 749 -268 q 725 -225 725 -242 q 737 -196 725 -208 q 768 -183 749 -183 m 783 -226 q 768 -210 783 -210 q 751 -226 751 -210 q 768 -242 751 -242 q 783 -226 783 -242 m 843 -231 l 843 -267 l 818 -267 l 818 -210 l 811 -210 l 818 -185 l 843 -185 l 863 -215 l 863 -185 l 888 -185 l 888 -267 l 865 -267 l 843 -231 m 932 -210 l 932 -267 l 906 -267 l 906 -210 l 893 -210 l 901 -185 l 928 -185 l 929 -182 l 953 -182 l 944 -210 l 932 -210 m 992 -182 l 1013 -186 l 1006 -211 q 988 -207 994 -207 q 982 -208 982 -207 q 987 -212 982 -211 q 998 -217 992 -214 q 1009 -225 1004 -219 q 1014 -240 1014 -231 q 982 -268 1014 -268 q 969 -266 975 -268 q 956 -261 964 -264 l 961 -236 q 982 -243 972 -243 q 988 -240 988 -243 q 982 -235 988 -237 q 970 -231 976 -233 q 958 -224 964 -229 q 953 -210 953 -219 q 961 -191 953 -199 q 981 -183 969 -183 q 985 -184 983 -183 q 990 -185 988 -185 l 992 -182 m 1033 -240 q 1046 -254 1046 -240 q 1033 -268 1046 -268 q 1019 -254 1019 -268 q 1033 -240 1019 -240 m 1099 -182 l 1119 -190 l 1107 -215 q 1098 -210 1100 -212 q 1092 -208 1096 -208 q 1075 -225 1075 -208 q 1092 -242 1075 -242 q 1108 -235 1100 -242 l 1119 -257 q 1090 -268 1106 -268 q 1062 -256 1075 -268 q 1049 -225 1049 -244 q 1061 -196 1049 -208 q 1090 -183 1074 -183 q 1097 -185 1093 -183 l 1099 -182 m 1165 -183 q 1196 -196 1185 -183 q 1207 -226 1207 -208 q 1196 -256 1207 -243 q 1165 -268 1185 -268 q 1135 -255 1146 -268 q 1124 -225 1124 -242 q 1135 -196 1124 -208 q 1165 -183 1147 -183 m 1182 -226 q 1165 -210 1182 -210 q 1149 -226 1149 -210 q 1165 -242 1149 -242 q 1182 -226 1182 -242 m 1242 -224 l 1242 -267 l 1217 -267 l 1217 -210 l 1211 -210 l 1217 -185 l 1242 -185 l 1256 -203 l 1269 -185 l 1296 -185 l 1296 -267 l 1271 -267 l 1271 -224 l 1256 -240 l 1242 -224 z "},"7":{"ha":1515,"x_min":151,"x_max":1296,"o":"m 1235 532 q 1234 521 1235 529 q 1233 503 1233 513 q 1231 486 1232 494 q 1229 474 1229 478 q 1224 449 1228 461 q 1218 424 1221 436 q 1147 269 1194 339 q 1033 148 1099 199 q 888 69 968 97 q 718 40 807 40 q 513 83 608 40 q 348 197 417 125 q 240 367 279 269 q 204 574 201 464 q 207 578 207 574 q 226 703 208 643 q 279 818 244 763 q 308 862 290 838 q 347 909 325 886 q 390 951 368 932 q 433 981 413 971 l 435 985 l 439 985 l 442 988 q 448 991 444 990 q 454 994 451 992 q 467 1002 461 999 q 478 1010 472 1006 q 508 1024 492 1018 q 540 1038 525 1031 q 628 1062 583 1054 q 718 1069 672 1069 q 912 1033 818 1069 q 1078 925 1006 996 q 1124 874 1103 900 q 1164 817 1146 847 q 1174 798 1169 808 q 1182 778 1178 788 q 1190 766 1186 771 q 1194 754 1193 761 q 1208 721 1203 738 q 1218 686 1213 704 q 1231 610 1228 646 q 1235 532 1235 575 m 990 785 q 917 783 954 782 q 843 783 881 783 l 815 783 q 793 708 803 746 q 771 632 783 669 q 783 631 776 631 q 796 632 789 632 q 810 629 806 632 l 810 292 l 961 292 l 961 457 l 1076 457 q 1096 526 1085 492 q 1115 594 1107 560 l 961 594 q 962 606 963 600 q 961 617 961 611 q 961 624 961 619 q 964 629 961 628 l 1092 629 q 1115 712 1101 671 q 1138 794 1128 753 l 993 794 q 990 785 989 792 m 344 778 q 324 705 335 742 q 304 632 313 668 q 316 631 310 631 q 329 632 322 632 q 335 632 332 632 q 342 629 339 632 l 342 292 l 493 292 l 493 422 q 493 444 493 433 q 496 467 493 456 q 524 466 510 465 q 554 467 539 467 q 571 467 563 467 q 589 465 579 467 l 589 294 q 619 292 604 292 q 647 292 633 292 q 694 292 671 292 q 740 292 717 293 l 740 783 q 694 783 717 782 q 647 783 671 783 q 589 781 618 783 l 589 622 l 493 622 q 494 671 493 646 q 494 721 494 696 q 492 783 494 751 l 349 783 q 346 781 346 783 q 344 778 346 779 m 361 -125 l 335 -125 l 335 -68 l 329 -68 l 336 -43 l 365 -43 l 367 -40 l 390 -40 l 383 -69 l 361 -69 l 361 -75 l 388 -75 l 379 -99 l 361 -99 l 361 -125 m 400 -68 l 393 -68 l 400 -43 l 425 -43 l 425 -87 q 433 -101 425 -101 q 442 -87 442 -101 l 442 -43 l 467 -43 l 467 -90 q 433 -126 467 -126 q 400 -90 400 -126 l 400 -68 m 504 -100 l 521 -100 l 513 -125 l 479 -125 l 479 -68 l 471 -68 l 479 -43 l 504 -43 l 504 -100 m 554 -100 l 571 -100 l 563 -125 l 529 -125 l 529 -68 l 522 -68 l 529 -43 l 554 -43 l 554 -100 m 678 -43 l 651 -125 l 628 -125 l 599 -43 l 626 -43 l 639 -82 l 651 -43 l 678 -43 m 729 -125 l 682 -125 l 682 -68 l 676 -68 l 683 -43 l 713 -43 l 714 -40 l 738 -40 l 731 -69 l 708 -69 l 708 -74 l 736 -74 l 731 -94 l 708 -94 l 708 -99 l 738 -99 l 729 -125 m 772 -107 l 772 -125 l 747 -125 l 747 -68 l 740 -68 l 747 -43 l 772 -43 q 789 -44 783 -43 q 801 -50 794 -46 q 811 -74 811 -60 q 797 -100 811 -90 l 814 -125 l 783 -125 l 772 -107 m 776 -68 l 772 -68 l 772 -82 l 776 -82 q 785 -75 785 -82 q 776 -68 785 -68 m 858 -40 l 881 -44 l 872 -69 q 854 -65 861 -65 q 849 -68 849 -65 q 853 -72 849 -71 q 865 -76 858 -74 q 876 -83 871 -78 q 882 -99 882 -89 q 873 -119 882 -112 q 849 -126 864 -126 q 822 -119 836 -126 l 828 -94 q 840 -100 833 -97 q 849 -103 846 -103 q 856 -99 856 -103 q 850 -94 856 -96 q 838 -90 844 -92 q 826 -83 832 -87 q 821 -68 821 -78 q 828 -50 821 -57 q 847 -43 836 -43 q 857 -44 853 -43 l 858 -40 m 917 -43 l 917 -125 l 892 -125 l 892 -68 l 885 -68 l 892 -43 l 917 -43 m 967 -43 q 997 -56 985 -43 q 1008 -85 1008 -68 q 997 -114 1008 -101 q 967 -126 985 -126 q 936 -114 947 -126 q 925 -85 925 -101 q 937 -56 925 -68 q 967 -43 949 -43 m 982 -85 q 978 -73 982 -78 q 967 -68 974 -68 q 954 -73 958 -68 q 950 -85 950 -78 q 954 -97 950 -92 q 967 -101 958 -101 q 978 -97 974 -101 q 982 -85 982 -92 m 1043 -89 l 1043 -125 l 1018 -125 l 1018 -68 l 1011 -68 l 1018 -43 l 1043 -43 l 1061 -74 l 1061 -43 l 1088 -43 l 1088 -125 l 1065 -125 l 1043 -89 m 193 -183 q 223 -196 211 -183 q 235 -226 235 -208 q 223 -256 235 -243 q 193 -268 211 -268 q 163 -255 174 -268 q 151 -225 151 -242 q 163 -196 151 -208 q 193 -183 175 -183 m 208 -226 q 193 -210 208 -210 q 176 -226 176 -210 q 193 -242 176 -242 q 208 -226 208 -242 m 269 -231 l 269 -267 l 244 -267 l 244 -210 l 238 -210 l 246 -185 l 269 -185 l 288 -215 l 288 -185 l 314 -185 l 314 -267 l 292 -267 l 269 -231 m 379 -185 l 379 -211 l 396 -211 l 396 -185 l 421 -185 l 421 -267 l 396 -267 l 396 -237 l 379 -237 l 379 -267 l 354 -267 l 354 -210 l 349 -210 l 356 -185 l 379 -185 m 481 -267 l 433 -267 l 433 -210 l 428 -210 l 435 -185 l 464 -185 l 464 -182 l 489 -182 l 481 -210 l 458 -210 l 458 -215 l 488 -215 l 482 -235 l 458 -235 l 458 -240 l 488 -240 l 481 -267 m 525 -247 l 525 -267 l 499 -267 l 499 -210 l 492 -210 l 500 -185 l 525 -185 q 551 -192 544 -185 q 563 -215 563 -200 q 550 -242 563 -233 l 564 -267 l 535 -267 l 525 -247 m 529 -210 l 525 -210 l 525 -224 l 528 -224 q 538 -217 538 -224 q 529 -210 538 -210 m 614 -183 q 644 -196 632 -183 q 656 -226 656 -208 q 644 -256 656 -243 q 614 -268 632 -268 q 583 -255 594 -268 q 571 -225 571 -242 q 583 -196 571 -208 q 614 -183 594 -183 m 631 -226 q 626 -215 631 -219 q 614 -210 621 -210 q 597 -226 597 -210 q 614 -242 597 -242 q 626 -237 621 -242 q 631 -226 631 -233 m 689 -267 l 664 -267 l 664 -210 l 658 -210 l 665 -185 l 694 -185 l 696 -182 l 719 -182 l 711 -210 l 689 -210 l 689 -215 l 715 -215 l 710 -239 l 689 -239 l 689 -267 m 768 -183 q 797 -196 785 -183 q 810 -226 810 -208 q 797 -256 810 -243 q 768 -268 785 -268 q 737 -255 749 -268 q 725 -225 725 -242 q 737 -196 725 -208 q 768 -183 749 -183 m 783 -226 q 768 -210 783 -210 q 751 -226 751 -210 q 768 -242 751 -242 q 783 -226 783 -242 m 843 -231 l 843 -267 l 818 -267 l 818 -210 l 811 -210 l 818 -185 l 843 -185 l 863 -215 l 863 -185 l 888 -185 l 888 -267 l 865 -267 l 843 -231 m 932 -210 l 932 -267 l 906 -267 l 906 -210 l 893 -210 l 901 -185 l 928 -185 l 929 -182 l 953 -182 l 944 -210 l 932 -210 m 992 -182 l 1013 -186 l 1006 -211 q 988 -207 994 -207 q 982 -208 982 -207 q 987 -212 982 -211 q 998 -217 992 -214 q 1009 -225 1004 -219 q 1014 -240 1014 -231 q 982 -268 1014 -268 q 969 -266 975 -268 q 956 -261 964 -264 l 961 -236 q 982 -243 972 -243 q 988 -240 988 -243 q 982 -235 988 -237 q 970 -231 976 -233 q 958 -224 964 -229 q 953 -210 953 -219 q 961 -191 953 -199 q 981 -183 969 -183 q 985 -184 983 -183 q 990 -185 988 -185 l 992 -182 m 1033 -240 q 1046 -254 1046 -240 q 1033 -268 1046 -268 q 1019 -254 1019 -268 q 1033 -240 1019 -240 m 1099 -182 l 1119 -190 l 1107 -215 q 1098 -210 1100 -212 q 1092 -208 1096 -208 q 1075 -225 1075 -208 q 1092 -242 1075 -242 q 1108 -235 1100 -242 l 1119 -257 q 1090 -268 1106 -268 q 1062 -256 1075 -268 q 1049 -225 1049 -244 q 1061 -196 1049 -208 q 1090 -183 1074 -183 q 1097 -185 1093 -183 l 1099 -182 m 1165 -183 q 1196 -196 1185 -183 q 1207 -226 1207 -208 q 1196 -256 1207 -243 q 1165 -268 1185 -268 q 1135 -255 1146 -268 q 1124 -225 1124 -242 q 1135 -196 1124 -208 q 1165 -183 1147 -183 m 1182 -226 q 1165 -210 1182 -210 q 1149 -226 1149 -210 q 1165 -242 1149 -242 q 1182 -226 1182 -242 m 1242 -224 l 1242 -267 l 1217 -267 l 1217 -210 l 1211 -210 l 1217 -185 l 1242 -185 l 1256 -203 l 1269 -185 l 1296 -185 l 1296 -267 l 1271 -267 l 1271 -224 l 1256 -240 l 1242 -224 z "},"8":{"ha":1515,"x_min":151,"x_max":1296,"o":"m 1235 532 q 1234 521 1235 529 q 1233 503 1233 513 q 1231 486 1232 494 q 1229 474 1229 478 q 1224 449 1228 461 q 1218 424 1221 436 q 1147 269 1194 339 q 1033 148 1099 199 q 888 69 968 97 q 718 40 807 40 q 513 83 608 40 q 348 197 417 125 q 240 367 279 269 q 204 574 201 464 q 207 578 207 574 q 226 703 208 643 q 279 818 244 763 q 308 862 290 838 q 347 909 325 886 q 390 951 368 932 q 433 981 413 971 l 435 985 l 439 985 l 442 988 q 448 991 444 990 q 454 994 451 992 q 467 1002 461 999 q 478 1010 472 1006 q 508 1024 492 1018 q 540 1038 525 1031 q 628 1062 583 1054 q 718 1069 672 1069 q 912 1033 818 1069 q 1078 925 1006 996 q 1124 874 1103 900 q 1164 817 1146 847 q 1174 798 1169 808 q 1182 778 1178 788 q 1190 766 1186 771 q 1194 754 1193 761 q 1208 721 1203 738 q 1218 686 1213 704 q 1231 610 1228 646 q 1235 532 1235 575 m 990 785 q 917 783 954 782 q 843 783 881 783 l 815 783 q 793 708 803 746 q 771 632 783 669 q 783 631 776 631 q 796 632 789 632 q 810 629 806 632 l 810 292 l 961 292 l 961 457 l 1076 457 q 1096 526 1085 492 q 1115 594 1107 560 l 961 594 q 962 606 963 600 q 961 617 961 611 q 961 624 961 619 q 964 629 961 628 l 1092 629 q 1115 712 1101 671 q 1138 794 1128 753 l 993 794 q 990 785 989 792 m 344 778 q 324 705 335 742 q 304 632 313 668 q 316 631 310 631 q 329 632 322 632 q 335 632 332 632 q 342 629 339 632 l 342 292 l 493 292 l 493 422 q 493 444 493 433 q 496 467 493 456 q 524 466 510 465 q 554 467 539 467 q 571 467 563 467 q 589 465 579 467 l 589 294 q 619 292 604 292 q 647 292 633 292 q 694 292 671 292 q 740 292 717 293 l 740 783 q 694 783 717 782 q 647 783 671 783 q 589 781 618 783 l 589 622 l 493 622 q 494 671 493 646 q 494 721 494 696 q 492 783 494 751 l 349 783 q 346 781 346 783 q 344 778 346 779 m 361 -125 l 335 -125 l 335 -68 l 329 -68 l 336 -43 l 365 -43 l 367 -40 l 390 -40 l 383 -69 l 361 -69 l 361 -75 l 388 -75 l 379 -99 l 361 -99 l 361 -125 m 400 -68 l 393 -68 l 400 -43 l 425 -43 l 425 -87 q 433 -101 425 -101 q 442 -87 442 -101 l 442 -43 l 467 -43 l 467 -90 q 433 -126 467 -126 q 400 -90 400 -126 l 400 -68 m 504 -100 l 521 -100 l 513 -125 l 479 -125 l 479 -68 l 471 -68 l 479 -43 l 504 -43 l 504 -100 m 554 -100 l 571 -100 l 563 -125 l 529 -125 l 529 -68 l 522 -68 l 529 -43 l 554 -43 l 554 -100 m 678 -43 l 651 -125 l 628 -125 l 599 -43 l 626 -43 l 639 -82 l 651 -43 l 678 -43 m 729 -125 l 682 -125 l 682 -68 l 676 -68 l 683 -43 l 713 -43 l 714 -40 l 738 -40 l 731 -69 l 708 -69 l 708 -74 l 736 -74 l 731 -94 l 708 -94 l 708 -99 l 738 -99 l 729 -125 m 772 -107 l 772 -125 l 747 -125 l 747 -68 l 740 -68 l 747 -43 l 772 -43 q 789 -44 783 -43 q 801 -50 794 -46 q 811 -74 811 -60 q 797 -100 811 -90 l 814 -125 l 783 -125 l 772 -107 m 776 -68 l 772 -68 l 772 -82 l 776 -82 q 785 -75 785 -82 q 776 -68 785 -68 m 858 -40 l 881 -44 l 872 -69 q 854 -65 861 -65 q 849 -68 849 -65 q 853 -72 849 -71 q 865 -76 858 -74 q 876 -83 871 -78 q 882 -99 882 -89 q 873 -119 882 -112 q 849 -126 864 -126 q 822 -119 836 -126 l 828 -94 q 840 -100 833 -97 q 849 -103 846 -103 q 856 -99 856 -103 q 850 -94 856 -96 q 838 -90 844 -92 q 826 -83 832 -87 q 821 -68 821 -78 q 828 -50 821 -57 q 847 -43 836 -43 q 857 -44 853 -43 l 858 -40 m 917 -43 l 917 -125 l 892 -125 l 892 -68 l 885 -68 l 892 -43 l 917 -43 m 967 -43 q 997 -56 985 -43 q 1008 -85 1008 -68 q 997 -114 1008 -101 q 967 -126 985 -126 q 936 -114 947 -126 q 925 -85 925 -101 q 937 -56 925 -68 q 967 -43 949 -43 m 982 -85 q 978 -73 982 -78 q 967 -68 974 -68 q 954 -73 958 -68 q 950 -85 950 -78 q 954 -97 950 -92 q 967 -101 958 -101 q 978 -97 974 -101 q 982 -85 982 -92 m 1043 -89 l 1043 -125 l 1018 -125 l 1018 -68 l 1011 -68 l 1018 -43 l 1043 -43 l 1061 -74 l 1061 -43 l 1088 -43 l 1088 -125 l 1065 -125 l 1043 -89 m 193 -183 q 223 -196 211 -183 q 235 -226 235 -208 q 223 -256 235 -243 q 193 -268 211 -268 q 163 -255 174 -268 q 151 -225 151 -242 q 163 -196 151 -208 q 193 -183 175 -183 m 208 -226 q 193 -210 208 -210 q 176 -226 176 -210 q 193 -242 176 -242 q 208 -226 208 -242 m 269 -231 l 269 -267 l 244 -267 l 244 -210 l 238 -210 l 246 -185 l 269 -185 l 288 -215 l 288 -185 l 314 -185 l 314 -267 l 292 -267 l 269 -231 m 379 -185 l 379 -211 l 396 -211 l 396 -185 l 421 -185 l 421 -267 l 396 -267 l 396 -237 l 379 -237 l 379 -267 l 354 -267 l 354 -210 l 349 -210 l 356 -185 l 379 -185 m 481 -267 l 433 -267 l 433 -210 l 428 -210 l 435 -185 l 464 -185 l 464 -182 l 489 -182 l 481 -210 l 458 -210 l 458 -215 l 488 -215 l 482 -235 l 458 -235 l 458 -240 l 488 -240 l 481 -267 m 525 -247 l 525 -267 l 499 -267 l 499 -210 l 492 -210 l 500 -185 l 525 -185 q 551 -192 544 -185 q 563 -215 563 -200 q 550 -242 563 -233 l 564 -267 l 535 -267 l 525 -247 m 529 -210 l 525 -210 l 525 -224 l 528 -224 q 538 -217 538 -224 q 529 -210 538 -210 m 614 -183 q 644 -196 632 -183 q 656 -226 656 -208 q 644 -256 656 -243 q 614 -268 632 -268 q 583 -255 594 -268 q 571 -225 571 -242 q 583 -196 571 -208 q 614 -183 594 -183 m 631 -226 q 626 -215 631 -219 q 614 -210 621 -210 q 597 -226 597 -210 q 614 -242 597 -242 q 626 -237 621 -242 q 631 -226 631 -233 m 689 -267 l 664 -267 l 664 -210 l 658 -210 l 665 -185 l 694 -185 l 696 -182 l 719 -182 l 711 -210 l 689 -210 l 689 -215 l 715 -215 l 710 -239 l 689 -239 l 689 -267 m 768 -183 q 797 -196 785 -183 q 810 -226 810 -208 q 797 -256 810 -243 q 768 -268 785 -268 q 737 -255 749 -268 q 725 -225 725 -242 q 737 -196 725 -208 q 768 -183 749 -183 m 783 -226 q 768 -210 783 -210 q 751 -226 751 -210 q 768 -242 751 -242 q 783 -226 783 -242 m 843 -231 l 843 -267 l 818 -267 l 818 -210 l 811 -210 l 818 -185 l 843 -185 l 863 -215 l 863 -185 l 888 -185 l 888 -267 l 865 -267 l 843 -231 m 932 -210 l 932 -267 l 906 -267 l 906 -210 l 893 -210 l 901 -185 l 928 -185 l 929 -182 l 953 -182 l 944 -210 l 932 -210 m 992 -182 l 1013 -186 l 1006 -211 q 988 -207 994 -207 q 982 -208 982 -207 q 987 -212 982 -211 q 998 -217 992 -214 q 1009 -225 1004 -219 q 1014 -240 1014 -231 q 982 -268 1014 -268 q 969 -266 975 -268 q 956 -261 964 -264 l 961 -236 q 982 -243 972 -243 q 988 -240 988 -243 q 982 -235 988 -237 q 970 -231 976 -233 q 958 -224 964 -229 q 953 -210 953 -219 q 961 -191 953 -199 q 981 -183 969 -183 q 985 -184 983 -183 q 990 -185 988 -185 l 992 -182 m 1033 -240 q 1046 -254 1046 -240 q 1033 -268 1046 -268 q 1019 -254 1019 -268 q 1033 -240 1019 -240 m 1099 -182 l 1119 -190 l 1107 -215 q 1098 -210 1100 -212 q 1092 -208 1096 -208 q 1075 -225 1075 -208 q 1092 -242 1075 -242 q 1108 -235 1100 -242 l 1119 -257 q 1090 -268 1106 -268 q 1062 -256 1075 -268 q 1049 -225 1049 -244 q 1061 -196 1049 -208 q 1090 -183 1074 -183 q 1097 -185 1093 -183 l 1099 -182 m 1165 -183 q 1196 -196 1185 -183 q 1207 -226 1207 -208 q 1196 -256 1207 -243 q 1165 -268 1185 -268 q 1135 -255 1146 -268 q 1124 -225 1124 -242 q 1135 -196 1124 -208 q 1165 -183 1147 -183 m 1182 -226 q 1165 -210 1182 -210 q 1149 -226 1149 -210 q 1165 -242 1149 -242 q 1182 -226 1182 -242 m 1242 -224 l 1242 -267 l 1217 -267 l 1217 -210 l 1211 -210 l 1217 -185 l 1242 -185 l 1256 -203 l 1269 -185 l 1296 -185 l 1296 -267 l 1271 -267 l 1271 -224 l 1256 -240 l 1242 -224 z "},"9":{"ha":1515,"x_min":151,"x_max":1296,"o":"m 1235 532 q 1234 521 1235 529 q 1233 503 1233 513 q 1231 486 1232 494 q 1229 474 1229 478 q 1224 449 1228 461 q 1218 424 1221 436 q 1147 269 1194 339 q 1033 148 1099 199 q 888 69 968 97 q 718 40 807 40 q 513 83 608 40 q 348 197 417 125 q 240 367 279 269 q 204 574 201 464 q 207 578 207 574 q 226 703 208 643 q 279 818 244 763 q 308 862 290 838 q 347 909 325 886 q 390 951 368 932 q 433 981 413 971 l 435 985 l 439 985 l 442 988 q 448 991 444 990 q 454 994 451 992 q 467 1002 461 999 q 478 1010 472 1006 q 508 1024 492 1018 q 540 1038 525 1031 q 628 1062 583 1054 q 718 1069 672 1069 q 912 1033 818 1069 q 1078 925 1006 996 q 1124 874 1103 900 q 1164 817 1146 847 q 1174 798 1169 808 q 1182 778 1178 788 q 1190 766 1186 771 q 1194 754 1193 761 q 1208 721 1203 738 q 1218 686 1213 704 q 1231 610 1228 646 q 1235 532 1235 575 m 990 785 q 917 783 954 782 q 843 783 881 783 l 815 783 q 793 708 803 746 q 771 632 783 669 q 783 631 776 631 q 796 632 789 632 q 810 629 806 632 l 810 292 l 961 292 l 961 457 l 1076 457 q 1096 526 1085 492 q 1115 594 1107 560 l 961 594 q 962 606 963 600 q 961 617 961 611 q 961 624 961 619 q 964 629 961 628 l 1092 629 q 1115 712 1101 671 q 1138 794 1128 753 l 993 794 q 990 785 989 792 m 344 778 q 324 705 335 742 q 304 632 313 668 q 316 631 310 631 q 329 632 322 632 q 335 632 332 632 q 342 629 339 632 l 342 292 l 493 292 l 493 422 q 493 444 493 433 q 496 467 493 456 q 524 466 510 465 q 554 467 539 467 q 571 467 563 467 q 589 465 579 467 l 589 294 q 619 292 604 292 q 647 292 633 292 q 694 292 671 292 q 740 292 717 293 l 740 783 q 694 783 717 782 q 647 783 671 783 q 589 781 618 783 l 589 622 l 493 622 q 494 671 493 646 q 494 721 494 696 q 492 783 494 751 l 349 783 q 346 781 346 783 q 344 778 346 779 m 361 -125 l 335 -125 l 335 -68 l 329 -68 l 336 -43 l 365 -43 l 367 -40 l 390 -40 l 383 -69 l 361 -69 l 361 -75 l 388 -75 l 379 -99 l 361 -99 l 361 -125 m 400 -68 l 393 -68 l 400 -43 l 425 -43 l 425 -87 q 433 -101 425 -101 q 442 -87 442 -101 l 442 -43 l 467 -43 l 467 -90 q 433 -126 467 -126 q 400 -90 400 -126 l 400 -68 m 504 -100 l 521 -100 l 513 -125 l 479 -125 l 479 -68 l 471 -68 l 479 -43 l 504 -43 l 504 -100 m 554 -100 l 571 -100 l 563 -125 l 529 -125 l 529 -68 l 522 -68 l 529 -43 l 554 -43 l 554 -100 m 678 -43 l 651 -125 l 628 -125 l 599 -43 l 626 -43 l 639 -82 l 651 -43 l 678 -43 m 729 -125 l 682 -125 l 682 -68 l 676 -68 l 683 -43 l 713 -43 l 714 -40 l 738 -40 l 731 -69 l 708 -69 l 708 -74 l 736 -74 l 731 -94 l 708 -94 l 708 -99 l 738 -99 l 729 -125 m 772 -107 l 772 -125 l 747 -125 l 747 -68 l 740 -68 l 747 -43 l 772 -43 q 789 -44 783 -43 q 801 -50 794 -46 q 811 -74 811 -60 q 797 -100 811 -90 l 814 -125 l 783 -125 l 772 -107 m 776 -68 l 772 -68 l 772 -82 l 776 -82 q 785 -75 785 -82 q 776 -68 785 -68 m 858 -40 l 881 -44 l 872 -69 q 854 -65 861 -65 q 849 -68 849 -65 q 853 -72 849 -71 q 865 -76 858 -74 q 876 -83 871 -78 q 882 -99 882 -89 q 873 -119 882 -112 q 849 -126 864 -126 q 822 -119 836 -126 l 828 -94 q 840 -100 833 -97 q 849 -103 846 -103 q 856 -99 856 -103 q 850 -94 856 -96 q 838 -90 844 -92 q 826 -83 832 -87 q 821 -68 821 -78 q 828 -50 821 -57 q 847 -43 836 -43 q 857 -44 853 -43 l 858 -40 m 917 -43 l 917 -125 l 892 -125 l 892 -68 l 885 -68 l 892 -43 l 917 -43 m 967 -43 q 997 -56 985 -43 q 1008 -85 1008 -68 q 997 -114 1008 -101 q 967 -126 985 -126 q 936 -114 947 -126 q 925 -85 925 -101 q 937 -56 925 -68 q 967 -43 949 -43 m 982 -85 q 978 -73 982 -78 q 967 -68 974 -68 q 954 -73 958 -68 q 950 -85 950 -78 q 954 -97 950 -92 q 967 -101 958 -101 q 978 -97 974 -101 q 982 -85 982 -92 m 1043 -89 l 1043 -125 l 1018 -125 l 1018 -68 l 1011 -68 l 1018 -43 l 1043 -43 l 1061 -74 l 1061 -43 l 1088 -43 l 1088 -125 l 1065 -125 l 1043 -89 m 193 -183 q 223 -196 211 -183 q 235 -226 235 -208 q 223 -256 235 -243 q 193 -268 211 -268 q 163 -255 174 -268 q 151 -225 151 -242 q 163 -196 151 -208 q 193 -183 175 -183 m 208 -226 q 193 -210 208 -210 q 176 -226 176 -210 q 193 -242 176 -242 q 208 -226 208 -242 m 269 -231 l 269 -267 l 244 -267 l 244 -210 l 238 -210 l 246 -185 l 269 -185 l 288 -215 l 288 -185 l 314 -185 l 314 -267 l 292 -267 l 269 -231 m 379 -185 l 379 -211 l 396 -211 l 396 -185 l 421 -185 l 421 -267 l 396 -267 l 396 -237 l 379 -237 l 379 -267 l 354 -267 l 354 -210 l 349 -210 l 356 -185 l 379 -185 m 481 -267 l 433 -267 l 433 -210 l 428 -210 l 435 -185 l 464 -185 l 464 -182 l 489 -182 l 481 -210 l 458 -210 l 458 -215 l 488 -215 l 482 -235 l 458 -235 l 458 -240 l 488 -240 l 481 -267 m 525 -247 l 525 -267 l 499 -267 l 499 -210 l 492 -210 l 500 -185 l 525 -185 q 551 -192 544 -185 q 563 -215 563 -200 q 550 -242 563 -233 l 564 -267 l 535 -267 l 525 -247 m 529 -210 l 525 -210 l 525 -224 l 528 -224 q 538 -217 538 -224 q 529 -210 538 -210 m 614 -183 q 644 -196 632 -183 q 656 -226 656 -208 q 644 -256 656 -243 q 614 -268 632 -268 q 583 -255 594 -268 q 571 -225 571 -242 q 583 -196 571 -208 q 614 -183 594 -183 m 631 -226 q 626 -215 631 -219 q 614 -210 621 -210 q 597 -226 597 -210 q 614 -242 597 -242 q 626 -237 621 -242 q 631 -226 631 -233 m 689 -267 l 664 -267 l 664 -210 l 658 -210 l 665 -185 l 694 -185 l 696 -182 l 719 -182 l 711 -210 l 689 -210 l 689 -215 l 715 -215 l 710 -239 l 689 -239 l 689 -267 m 768 -183 q 797 -196 785 -183 q 810 -226 810 -208 q 797 -256 810 -243 q 768 -268 785 -268 q 737 -255 749 -268 q 725 -225 725 -242 q 737 -196 725 -208 q 768 -183 749 -183 m 783 -226 q 768 -210 783 -210 q 751 -226 751 -210 q 768 -242 751 -242 q 783 -226 783 -242 m 843 -231 l 843 -267 l 818 -267 l 818 -210 l 811 -210 l 818 -185 l 843 -185 l 863 -215 l 863 -185 l 888 -185 l 888 -267 l 865 -267 l 843 -231 m 932 -210 l 932 -267 l 906 -267 l 906 -210 l 893 -210 l 901 -185 l 928 -185 l 929 -182 l 953 -182 l 944 -210 l 932 -210 m 992 -182 l 1013 -186 l 1006 -211 q 988 -207 994 -207 q 982 -208 982 -207 q 987 -212 982 -211 q 998 -217 992 -214 q 1009 -225 1004 -219 q 1014 -240 1014 -231 q 982 -268 1014 -268 q 969 -266 975 -268 q 956 -261 964 -264 l 961 -236 q 982 -243 972 -243 q 988 -240 988 -243 q 982 -235 988 -237 q 970 -231 976 -233 q 958 -224 964 -229 q 953 -210 953 -219 q 961 -191 953 -199 q 981 -183 969 -183 q 985 -184 983 -183 q 990 -185 988 -185 l 992 -182 m 1033 -240 q 1046 -254 1046 -240 q 1033 -268 1046 -268 q 1019 -254 1019 -268 q 1033 -240 1019 -240 m 1099 -182 l 1119 -190 l 1107 -215 q 1098 -210 1100 -212 q 1092 -208 1096 -208 q 1075 -225 1075 -208 q 1092 -242 1075 -242 q 1108 -235 1100 -242 l 1119 -257 q 1090 -268 1106 -268 q 1062 -256 1075 -268 q 1049 -225 1049 -244 q 1061 -196 1049 -208 q 1090 -183 1074 -183 q 1097 -185 1093 -183 l 1099 -182 m 1165 -183 q 1196 -196 1185 -183 q 1207 -226 1207 -208 q 1196 -256 1207 -243 q 1165 -268 1185 -268 q 1135 -255 1146 -268 q 1124 -225 1124 -242 q 1135 -196 1124 -208 q 1165 -183 1147 -183 m 1182 -226 q 1165 -210 1182 -210 q 1149 -226 1149 -210 q 1165 -242 1149 -242 q 1182 -226 1182 -242 m 1242 -224 l 1242 -267 l 1217 -267 l 1217 -210 l 1211 -210 l 1217 -185 l 1242 -185 l 1256 -203 l 1269 -185 l 1296 -185 l 1296 -267 l 1271 -267 l 1271 -224 l 1256 -240 l 1242 -224 z "},"\u0000":{"ha":0,"x_min":0,"x_max":0,"o":""},"\r":{"ha":579,"x_min":0,"x_max":0,"o":""}," ":{"ha":486,"x_min":0,"x_max":0,"o":""},"E":{"ha":693,"x_min":-76,"x_max":1013,"o":"m 331 815 q 267 831 300 821 q 203 856 233 840 q 150 895 174 872 q 114 951 126 918 q 108 1015 103 985 q 131 1072 114 1046 q 173 1117 147 1097 q 226 1149 199 1136 q 251 1155 232 1150 q 294 1164 269 1160 q 344 1169 318 1168 q 392 1168 371 1171 q 426 1155 414 1165 q 433 1125 438 1144 q 422 1113 431 1115 q 403 1110 414 1110 q 383 1114 393 1111 q 365 1118 372 1117 q 299 1115 333 1124 q 236 1086 264 1107 q 196 1025 204 1063 q 207 953 188 988 q 264 894 226 914 q 339 860 301 874 q 401 984 357 931 q 505 1075 446 1038 q 632 1135 564 1113 q 768 1165 700 1157 q 824 1167 793 1168 q 885 1163 856 1167 q 941 1149 915 1158 q 982 1128 967 1140 q 1011 1067 1010 1099 q 998 1004 1013 1035 q 958 947 983 974 q 907 904 932 921 q 752 836 839 858 q 586 806 665 814 q 527 804 561 803 q 469 801 493 806 q 459 790 461 797 q 461 776 457 783 q 474 765 465 769 q 497 760 483 760 q 546 764 519 761 q 599 766 572 767 q 651 758 626 765 q 697 732 676 750 q 713 703 713 718 q 705 676 714 689 q 681 655 696 664 q 650 642 665 646 q 565 635 611 631 q 481 650 519 639 q 444 668 461 657 q 408 686 428 679 q 366 685 386 693 q 328 667 346 676 q 254 617 289 644 q 192 554 219 589 q 144 482 164 521 q 113 401 124 443 q 104 317 103 360 q 122 232 106 274 q 197 137 149 167 q 304 103 246 107 q 424 115 363 99 q 536 156 485 131 q 652 230 599 188 q 750 325 706 272 q 774 356 763 340 q 794 389 785 371 q 800 403 797 394 q 807 419 803 411 q 817 434 811 428 q 829 442 822 440 q 845 438 842 444 q 847 422 849 432 q 840 403 844 413 q 833 389 836 393 q 760 272 803 328 q 665 167 717 215 q 553 80 613 118 q 431 18 494 42 q 343 -6 389 3 q 251 -15 297 -15 q 160 -5 206 -15 q 76 26 115 6 q 7 83 38 47 q -43 163 -24 118 q -67 313 -76 238 q -22 455 -58 388 q 72 577 14 522 q 193 668 129 632 q 276 704 233 690 q 364 732 319 718 q 345 772 350 751 q 331 815 340 793 m 492 715 q 521 693 506 703 q 556 683 536 683 q 579 688 567 683 q 583 707 592 692 q 566 719 578 717 q 540 722 554 722 q 513 719 526 721 q 492 715 500 717 m 474 850 q 614 861 544 850 q 747 900 683 872 q 801 928 769 910 q 861 969 833 946 q 904 1022 889 993 q 907 1079 919 1050 q 889 1106 901 1096 q 860 1119 876 1115 q 827 1124 844 1124 q 794 1121 810 1124 q 722 1101 758 1115 q 654 1068 686 1088 q 574 1013 611 1042 q 511 943 538 983 q 490 899 499 924 q 474 850 481 874 z "},"F":{"ha":886,"x_min":-69,"x_max":1465,"o":"m 881 572 l 856 524 q 819 453 836 489 q 781 381 801 417 q 698 255 743 315 q 594 146 653 194 q 477 69 540 101 q 346 18 414 38 q 204 -8 278 -1 q 61 8 131 -15 q -2 42 29 18 q -51 95 -33 65 q -69 159 -69 125 q -37 225 -68 193 q 21 253 -14 249 q 81 233 56 258 q 101 181 104 208 q 89 149 100 161 q 71 119 78 136 q 68 88 63 101 q 86 66 74 75 q 115 51 99 57 q 146 43 132 46 q 224 42 185 36 q 299 63 263 49 q 438 151 381 93 q 538 280 494 210 q 618 426 582 350 q 694 572 654 503 l 639 572 q 621 578 628 572 q 614 590 614 583 l 614 611 q 621 624 614 618 q 639 631 628 631 l 725 631 l 768 708 q 848 821 804 768 q 947 918 892 874 q 997 953 971 938 q 1049 985 1022 969 q 1070 997 1057 989 q 1097 1010 1083 1004 q 1123 1017 1110 1015 q 1147 1013 1136 1019 q 1155 1001 1156 1007 q 1149 988 1154 994 q 1138 977 1144 982 q 1125 968 1131 972 q 1093 946 1107 957 q 1064 917 1079 935 q 1024 858 1040 889 q 989 794 1008 826 q 953 729 967 756 q 930 685 939 703 q 915 654 921 667 q 906 631 910 642 l 982 631 q 1001 624 993 631 q 1008 611 1008 618 l 1008 590 q 1001 578 1008 583 q 982 572 993 572 l 881 572 m 332 335 q 237 365 275 335 q 179 442 199 394 q 163 506 167 472 q 161 572 160 540 q 177 684 161 629 q 219 790 193 739 q 280 885 244 840 q 356 969 315 931 q 542 1100 439 1050 q 760 1165 644 1150 q 893 1170 826 1174 q 1026 1156 960 1167 q 1161 1136 1096 1143 q 1297 1128 1226 1129 q 1354 1133 1325 1129 q 1407 1149 1383 1136 q 1422 1156 1413 1151 q 1440 1162 1431 1160 q 1456 1162 1449 1164 q 1465 1149 1464 1160 q 1448 1124 1461 1136 q 1419 1102 1435 1113 q 1387 1084 1403 1092 q 1361 1072 1371 1076 q 1247 1040 1306 1047 q 1128 1035 1188 1032 q 1008 1047 1068 1038 q 890 1064 949 1056 q 772 1076 832 1072 q 656 1072 713 1079 q 544 1044 599 1065 q 443 982 490 1024 q 388 919 411 949 q 346 854 365 890 q 294 731 314 796 q 278 600 275 665 q 286 542 279 571 q 308 491 293 514 q 347 454 324 468 q 404 442 371 440 q 456 451 431 443 q 504 474 482 460 q 535 497 521 485 q 565 518 550 510 q 597 525 581 528 q 606 499 613 522 q 583 469 600 482 q 553 443 567 456 q 503 403 529 422 q 451 368 478 383 q 394 344 424 353 q 332 335 365 335 z "},"G":{"ha":1017,"x_min":-72,"x_max":1369,"o":"m 528 21 q 406 -13 471 -4 q 282 3 340 -22 q 203 69 233 24 q 164 164 174 115 q 165 299 151 232 q 201 428 179 365 q 251 547 224 490 q 319 656 279 604 q 234 710 274 676 q 169 784 194 743 q 137 874 144 825 q 146 975 129 922 q 202 1061 163 1028 q 292 1111 242 1094 q 397 1129 342 1128 q 500 1119 451 1131 q 553 1104 524 1114 q 604 1079 582 1094 q 618 1065 611 1074 q 614 1046 625 1056 q 593 1044 606 1039 q 572 1051 581 1049 q 477 1070 528 1069 q 378 1057 426 1071 q 296 1016 333 1044 q 246 940 258 988 q 243 841 231 893 q 288 753 256 789 q 300 737 292 746 q 319 719 308 728 q 340 707 329 711 q 360 707 350 703 q 378 723 369 711 q 393 742 386 735 q 415 767 404 756 q 440 790 426 778 q 522 863 479 829 q 610 928 565 896 q 806 1051 704 994 q 1017 1136 907 1108 q 1111 1156 1056 1147 q 1219 1159 1167 1164 q 1311 1130 1271 1154 q 1360 1050 1351 1106 q 1353 953 1369 999 q 1307 867 1338 907 q 1237 796 1276 828 q 1158 740 1197 764 q 942 635 1056 672 q 707 592 829 597 q 593 592 650 588 q 482 607 536 596 q 453 590 469 610 q 422 542 438 569 q 395 488 407 515 q 378 450 383 461 q 356 392 367 426 q 340 319 346 357 q 333 242 333 281 q 343 169 333 203 q 374 110 353 135 q 433 76 396 86 q 542 81 489 63 q 642 137 594 100 q 728 219 689 174 q 796 303 767 264 q 864 397 832 349 q 926 494 896 444 q 952 517 938 517 q 989 517 967 518 l 1049 517 q 1090 518 1068 517 q 988 334 1038 428 q 888 147 939 240 q 782 -36 838 54 q 661 -208 726 -126 q 495 -355 588 -300 q 290 -442 403 -410 q 195 -459 250 -453 q 88 -458 140 -465 q -8 -424 35 -450 q -65 -344 -50 -397 q -69 -300 -72 -324 q -58 -255 -67 -276 q -32 -217 -49 -233 q 7 -192 -15 -200 q 51 -190 32 -183 q 83 -212 71 -197 q 101 -250 96 -228 q 100 -294 106 -272 q 91 -311 97 -304 q 78 -325 85 -318 q 67 -340 72 -332 q 61 -357 63 -347 q 73 -389 58 -376 q 106 -408 88 -401 q 204 -416 154 -428 q 299 -382 254 -404 q 394 -321 351 -357 q 474 -242 438 -285 q 541 -151 510 -199 q 601 -57 572 -104 q 662 47 632 -6 q 722 151 692 99 q 629 80 678 114 q 528 21 581 46 m 489 644 q 672 629 576 625 q 858 659 767 633 q 1030 733 949 685 q 1171 851 1111 782 q 1197 883 1183 865 q 1222 921 1211 901 q 1240 962 1233 940 q 1243 1004 1246 983 q 1203 1071 1238 1049 q 1129 1097 1169 1093 q 953 1072 1038 1108 q 794 982 868 1036 q 629 826 703 914 q 489 644 556 739 z "},"H":{"ha":1247,"x_min":-69,"x_max":1946,"o":"m 649 517 l 593 517 q 575 521 582 517 q 568 532 568 525 l 568 553 q 575 566 568 560 q 593 572 582 572 l 681 572 l 722 642 q 863 819 785 739 q 1029 971 940 899 q 826 1010 926 993 q 621 1019 725 1026 q 495 990 554 1015 q 392 922 436 964 q 319 822 347 879 q 286 697 290 764 q 294 631 282 656 q 339 582 306 606 q 398 560 367 561 q 457 575 429 558 q 500 606 481 586 q 536 646 519 625 q 550 657 543 653 q 564 647 557 661 q 562 626 569 636 q 547 610 554 617 q 485 538 519 571 q 407 490 451 506 q 334 472 369 476 q 261 485 299 467 q 183 585 199 511 q 200 722 172 658 q 268 844 228 786 q 368 957 310 907 q 490 1043 426 1007 q 740 1120 608 1110 q 1000 1086 871 1131 q 1051 1069 1025 1079 q 1103 1049 1078 1060 q 1121 1042 1115 1044 q 1138 1044 1126 1039 q 1207 1074 1175 1056 q 1278 1100 1239 1092 q 1324 1110 1294 1104 q 1380 1114 1353 1115 q 1425 1101 1407 1113 q 1440 1058 1443 1089 q 1410 1012 1435 1031 q 1354 981 1386 993 q 1289 964 1322 969 q 1232 957 1256 958 q 1201 957 1217 957 q 1168 960 1185 957 q 1137 959 1144 961 q 1114 942 1129 957 q 1029 835 1069 892 q 958 727 990 782 q 893 615 926 672 q 880 594 886 604 q 867 572 874 583 l 1136 572 q 1149 585 1143 575 q 1160 601 1156 594 q 1232 715 1194 660 q 1313 822 1269 769 q 1471 997 1388 918 q 1665 1128 1554 1075 q 1774 1172 1717 1154 q 1890 1176 1832 1190 q 1915 1166 1901 1172 q 1939 1149 1929 1160 q 1941 1125 1946 1138 q 1921 1110 1936 1113 q 1904 1114 1910 1106 q 1888 1128 1899 1122 q 1869 1135 1879 1135 q 1849 1136 1858 1136 q 1792 1130 1819 1138 q 1740 1108 1765 1122 q 1692 1076 1715 1093 q 1649 1042 1669 1058 q 1551 942 1594 997 q 1467 829 1507 886 q 1399 723 1431 776 q 1332 615 1367 669 q 1228 449 1279 532 q 1122 281 1176 365 l 968 25 q 952 3 957 6 q 926 0 947 0 l 793 0 q 928 225 861 113 q 1063 450 996 338 l 1103 515 l 833 515 q 827 506 831 513 q 822 496 824 499 q 790 443 808 471 q 708 312 750 376 q 614 188 667 247 q 451 59 543 110 q 260 -18 360 8 q 160 -35 215 -31 q 54 -29 104 -40 q -31 14 4 -18 q -68 107 -67 46 q -62 156 -69 132 q -41 197 -56 179 q -5 224 -26 215 q 44 229 17 233 q 86 192 81 222 q 89 131 92 161 q 85 111 88 118 q 71 97 82 104 q 51 78 57 86 q 50 51 46 71 q 69 22 54 32 q 103 10 85 13 q 142 8 122 7 q 178 13 163 10 q 240 34 211 18 q 294 67 268 50 q 361 116 331 89 q 419 176 392 143 q 538 339 486 253 q 644 510 590 425 l 649 517 m 1204 1019 q 1252 1009 1228 1013 q 1301 1010 1276 1006 q 1317 1015 1308 1011 q 1335 1024 1326 1018 q 1348 1037 1343 1029 q 1350 1054 1353 1044 q 1322 1069 1343 1071 q 1278 1058 1301 1067 q 1233 1036 1254 1049 q 1204 1019 1211 1024 z "},"I":{"ha":836,"x_min":-75,"x_max":1358,"o":"m 753 1000 q 676 945 714 975 q 606 880 639 915 q 549 804 574 844 q 510 718 524 764 q 498 676 501 699 q 498 633 494 654 q 513 592 501 611 q 546 561 524 574 q 580 551 561 554 q 615 553 599 549 q 653 574 636 558 q 689 596 669 590 q 703 595 700 599 q 705 585 707 592 q 699 570 703 578 q 690 557 694 563 q 659 531 676 542 q 622 510 642 519 q 554 488 590 494 q 481 489 518 482 q 408 520 436 496 q 365 578 379 544 q 351 651 350 611 q 365 731 351 690 q 462 889 396 821 q 606 1006 528 957 q 765 1087 681 1056 q 935 1138 849 1118 q 1124 1167 1026 1157 q 1314 1161 1222 1178 q 1328 1157 1319 1160 q 1344 1150 1338 1154 q 1355 1140 1351 1146 q 1353 1125 1358 1133 q 1329 1114 1346 1111 q 1301 1117 1313 1117 q 1238 1094 1267 1115 q 1185 1046 1210 1072 q 1097 906 1135 981 q 1021 757 1058 831 q 928 585 975 671 q 828 417 882 499 q 711 263 775 336 q 567 131 647 189 q 396 33 488 69 q 204 -10 304 -3 q 118 -7 168 -12 q 24 16 68 -1 q -47 66 -19 33 q -67 151 -75 99 q -33 219 -61 189 q 39 247 -6 250 q 74 236 57 247 q 99 208 90 225 q 108 172 108 192 q 96 136 108 153 q 74 117 88 125 q 60 89 61 108 q 68 68 60 76 q 86 54 76 60 q 137 33 110 40 q 190 26 164 26 q 281 42 238 26 q 365 84 325 58 q 439 143 404 110 q 503 211 474 176 q 616 374 565 288 q 718 544 667 460 q 826 726 774 636 q 940 900 878 815 q 1003 971 972 936 q 1069 1035 1035 1006 q 1127 1076 1097 1058 q 1186 1113 1157 1093 q 1201 1120 1197 1118 q 1193 1125 1204 1122 q 1090 1120 1151 1132 q 964 1088 1028 1108 q 843 1042 900 1067 q 753 1000 786 1018 z "},"J":{"ha":1086,"x_min":-71,"x_max":1667,"o":"m 935 954 q 781 821 851 896 q 672 650 710 746 q 658 601 664 628 q 651 549 651 575 q 660 499 651 524 q 689 458 668 475 q 762 438 721 432 q 831 468 803 444 q 842 480 836 472 q 856 494 849 488 q 872 502 864 500 q 886 500 879 504 q 894 490 893 496 q 891 476 894 483 q 883 463 888 469 q 874 454 878 457 q 792 391 840 417 q 696 360 744 365 q 610 372 649 356 q 544 418 571 388 q 503 490 517 449 q 496 575 490 531 q 524 676 503 628 q 576 769 546 725 q 644 850 607 813 q 722 919 682 888 q 901 1033 806 988 q 1098 1108 996 1079 q 1306 1151 1200 1138 q 1515 1165 1411 1164 q 1559 1167 1538 1167 q 1604 1165 1581 1168 q 1625 1160 1611 1165 q 1649 1148 1639 1156 q 1663 1131 1660 1140 q 1654 1113 1667 1122 q 1636 1109 1647 1108 q 1613 1113 1625 1110 q 1590 1118 1601 1115 q 1569 1121 1578 1121 q 1524 1108 1546 1118 q 1482 1082 1501 1097 q 1407 1006 1440 1049 q 1346 917 1374 964 q 1294 822 1318 871 q 1249 726 1271 774 q 1151 525 1200 626 q 1049 325 1103 424 q 934 132 994 226 q 801 -47 874 38 q 645 -206 729 -133 q 461 -326 561 -278 q 364 -369 415 -350 q 258 -397 313 -387 q 150 -404 204 -406 q 44 -383 96 -403 q -31 -333 1 -367 q -68 -251 -62 -300 q -68 -213 -71 -233 q -57 -175 -65 -193 q -35 -144 -49 -157 q -1 -126 -21 -131 q 39 -126 19 -121 q 73 -145 58 -132 q 95 -176 88 -158 q 100 -215 103 -194 q 83 -255 96 -236 q 72 -296 71 -274 q 98 -338 74 -324 q 144 -358 122 -353 q 242 -363 194 -374 q 332 -328 289 -353 q 414 -268 375 -303 q 485 -200 453 -233 q 630 -16 564 -112 q 754 183 696 81 q 882 403 818 293 q 1011 622 946 513 q 1132 819 1069 722 q 1281 994 1194 915 q 1365 1067 1321 1033 q 1461 1124 1410 1100 q 1184 1081 1314 1126 q 935 954 1054 1035 z "},"K":{"ha":1186,"x_min":-75,"x_max":1707,"o":"m 904 1024 q 792 1036 850 1032 q 678 1036 735 1040 q 568 1017 622 1032 q 468 974 514 1003 q 385 898 419 943 q 336 797 351 853 q 326 744 329 772 q 328 687 324 715 q 345 634 332 658 q 385 593 358 610 q 461 576 419 571 q 536 600 503 582 q 600 651 576 621 q 622 684 613 667 q 647 711 631 701 q 647 674 651 692 q 634 642 643 657 q 612 612 625 626 q 586 585 599 597 q 526 531 560 554 q 457 493 493 507 q 392 481 425 482 q 329 491 358 481 q 278 524 300 501 q 247 582 257 546 q 240 657 238 619 q 254 732 243 694 q 283 804 265 769 q 322 871 301 839 q 428 994 367 939 q 561 1089 490 1050 q 726 1142 642 1133 q 897 1128 810 1151 q 982 1103 938 1117 q 1079 1072 1026 1089 q 1130 1092 1111 1079 q 1175 1115 1149 1104 q 1215 1133 1190 1122 q 1267 1150 1240 1144 q 1317 1152 1293 1156 q 1353 1128 1340 1149 q 1360 1085 1368 1104 q 1334 1053 1353 1067 q 1292 1029 1315 1039 q 1251 1015 1268 1019 q 1163 1000 1206 1003 q 1134 999 1151 999 q 1106 997 1117 999 q 1076 981 1085 994 q 1056 950 1067 967 q 964 792 1003 874 q 881 628 925 711 q 803 485 843 557 q 717 344 763 413 q 617 213 671 275 q 496 101 563 151 q 358 22 433 54 q 204 -18 283 -10 q 131 -19 169 -22 q 55 -6 92 -17 q -12 27 18 6 q -60 83 -42 49 q -67 152 -75 115 q -32 213 -60 189 q 25 238 -8 238 q 81 211 58 239 q 96 178 93 196 q 96 144 99 160 q 87 116 93 128 q 72 103 81 104 q 59 88 63 99 q 58 66 56 78 q 67 43 60 54 q 86 26 74 32 q 156 13 119 11 q 226 24 192 14 q 293 53 261 35 q 350 93 325 72 q 439 194 401 138 q 508 308 476 250 q 592 458 551 382 q 676 607 633 533 q 767 751 719 681 q 871 886 814 822 q 932 951 900 921 q 996 1010 964 982 q 904 1024 951 1018 m 931 549 q 910 551 922 549 q 889 557 899 553 q 874 569 879 561 q 871 590 868 578 q 903 619 876 613 q 947 622 929 625 q 997 613 971 619 q 1049 621 1024 606 q 1088 660 1067 640 q 1129 700 1110 681 q 1297 892 1217 792 q 1467 1083 1376 993 q 1544 1144 1501 1117 q 1636 1169 1586 1171 q 1668 1165 1651 1169 q 1696 1146 1685 1160 q 1707 1108 1707 1131 q 1692 1072 1707 1086 q 1672 1062 1683 1064 q 1647 1061 1660 1060 q 1622 1064 1635 1063 q 1600 1065 1610 1065 q 1542 1047 1569 1063 q 1490 1015 1515 1032 q 1394 935 1438 979 q 1307 842 1350 890 q 1219 744 1263 793 q 1129 650 1175 696 q 1109 634 1122 644 q 1083 613 1096 624 q 1061 595 1071 603 q 1051 586 1051 588 q 1062 565 1054 575 q 1076 546 1069 556 q 1087 529 1083 539 q 1094 511 1090 519 q 1109 453 1108 483 q 1102 392 1110 422 q 1082 333 1094 361 q 1058 281 1069 304 q 1038 237 1051 265 q 1015 178 1024 208 q 1006 121 1006 147 q 1031 83 1007 94 q 1078 90 1053 78 q 1126 122 1103 103 q 1167 163 1149 142 q 1197 199 1186 185 q 1233 244 1215 222 q 1267 290 1251 265 q 1274 307 1269 296 q 1286 328 1279 318 q 1301 344 1293 338 q 1319 350 1310 351 q 1330 329 1336 349 q 1310 287 1324 310 q 1280 244 1296 264 q 1263 221 1264 225 q 1185 122 1225 169 q 1093 42 1146 74 q 1042 13 1069 25 q 985 -3 1014 0 q 928 0 956 -7 q 878 31 900 7 q 852 72 860 49 q 844 119 844 94 q 851 168 844 143 q 865 215 857 193 q 911 299 883 258 q 964 383 939 340 q 1004 470 989 425 q 1010 565 1019 515 q 931 549 967 553 m 1153 1050 q 1181 1047 1164 1047 q 1215 1049 1197 1047 q 1248 1055 1232 1050 q 1275 1068 1264 1060 q 1282 1092 1292 1082 q 1254 1106 1272 1103 q 1199 1090 1224 1107 q 1153 1050 1174 1072 z "},"L":{"ha":950,"x_min":-71,"x_max":1368,"o":"m 558 486 q 437 499 497 488 q 328 550 376 510 q 265 647 283 589 q 250 763 246 704 q 281 867 256 818 q 345 955 307 915 q 431 1025 383 994 q 528 1075 478 1056 q 619 1096 567 1090 q 725 1079 672 1101 q 735 1063 732 1072 q 738 1047 739 1054 q 730 1034 736 1039 q 711 1031 724 1029 q 687 1039 699 1031 q 663 1051 675 1047 q 631 1057 647 1057 q 600 1054 615 1057 q 502 1017 547 1047 q 424 941 457 986 q 375 842 392 896 q 363 739 358 789 q 394 642 367 686 q 465 571 421 599 q 506 549 483 557 q 553 539 529 540 q 597 554 582 539 q 625 593 611 569 q 763 820 688 713 q 938 1017 838 928 q 1033 1091 982 1057 q 1142 1147 1083 1125 q 1188 1160 1163 1154 q 1241 1167 1214 1167 q 1293 1163 1268 1168 q 1338 1140 1318 1157 q 1366 1080 1364 1115 q 1356 1007 1368 1044 q 1323 935 1343 969 q 1286 879 1303 901 q 1099 686 1208 774 q 865 550 990 599 q 806 531 838 539 q 753 501 775 524 q 690 417 717 465 q 638 319 664 369 q 579 224 611 269 q 500 149 547 179 q 563 125 532 136 q 625 103 593 114 q 691 79 658 90 q 760 63 724 68 q 811 61 785 60 q 857 79 838 63 q 872 96 864 85 q 893 104 881 107 q 904 94 904 101 q 899 79 904 86 q 875 44 890 58 q 840 19 860 29 q 798 3 819 10 q 758 -7 776 -3 q 693 -12 726 -14 q 626 -3 660 -10 q 558 15 592 4 q 496 35 525 25 q 449 56 472 42 q 400 72 425 71 q 372 65 385 72 q 346 51 360 58 q 282 29 317 38 q 222 13 253 21 q 158 2 190 6 q 94 0 126 -1 q 31 11 61 1 q -14 33 10 18 q -53 67 -37 47 q -69 109 -68 86 q -47 156 -71 132 q 51 209 -7 196 q 163 224 110 222 q 236 218 199 225 q 310 200 274 211 q 337 190 322 197 q 365 186 351 183 q 388 201 381 189 q 401 225 394 214 q 484 353 446 290 q 558 486 522 415 m 297 125 q 202 160 253 146 q 100 168 151 175 q 69 160 86 165 q 40 145 53 154 q 22 122 28 136 q 22 89 15 107 q 40 66 28 74 q 69 56 53 58 q 101 53 85 53 q 132 54 117 53 q 222 76 179 58 q 297 125 264 93 m 799 579 q 869 608 835 593 q 933 647 904 624 q 1001 699 969 671 q 1065 754 1033 726 q 1164 859 1118 803 q 1246 982 1210 915 q 1272 1032 1258 1003 q 1279 1089 1285 1061 q 1263 1114 1275 1106 q 1235 1123 1250 1122 q 1205 1119 1221 1124 q 1176 1110 1189 1115 q 1121 1072 1146 1094 q 1074 1020 1096 1049 q 1031 962 1051 992 q 993 906 1011 932 q 894 744 940 825 q 799 579 847 663 z "},"M":{"ha":1479,"x_min":-72,"x_max":1918,"o":"m 1451 910 q 1541 992 1493 953 q 1638 1065 1589 1031 q 1700 1103 1668 1085 q 1767 1135 1732 1121 q 1827 1158 1794 1146 q 1888 1167 1860 1169 q 1913 1151 1907 1164 q 1899 1132 1918 1139 q 1850 1113 1874 1119 q 1803 1089 1826 1106 q 1747 1040 1771 1068 q 1699 982 1722 1011 q 1648 922 1672 951 q 1600 861 1624 893 q 1487 688 1538 778 q 1390 503 1436 597 q 1335 395 1360 450 q 1293 281 1310 340 q 1283 236 1289 265 q 1277 180 1276 207 q 1289 135 1278 153 q 1332 126 1300 118 q 1376 147 1356 132 q 1416 182 1397 163 q 1451 223 1435 201 q 1482 261 1468 244 q 1517 314 1500 285 q 1556 364 1535 343 q 1583 371 1572 383 q 1583 342 1593 358 q 1561 302 1575 321 q 1532 267 1547 283 q 1442 159 1489 213 q 1344 58 1396 106 q 1301 27 1325 42 q 1251 5 1276 13 q 1199 0 1225 -3 q 1150 22 1172 3 q 1117 74 1125 43 q 1110 136 1108 104 q 1119 201 1111 168 q 1136 258 1128 233 q 1203 432 1163 347 q 1294 597 1244 517 q 1401 751 1344 676 q 1517 897 1457 826 l 1546 931 q 1275 635 1389 803 q 1175 485 1226 557 q 1072 338 1124 413 q 953 185 1014 258 q 811 54 892 113 q 779 30 796 43 q 746 10 763 17 q 720 15 726 1 q 725 40 714 28 q 747 64 736 53 q 767 90 757 75 q 804 161 789 124 q 832 235 819 199 q 885 414 863 324 q 933 593 907 504 q 973 713 950 654 q 1024 828 996 771 q 973 763 994 797 q 928 696 951 729 q 855 588 892 642 q 781 479 818 533 q 728 403 754 442 q 678 329 703 365 q 647 284 663 306 q 615 239 632 263 q 525 139 574 186 q 425 47 476 92 q 335 -12 386 15 q 230 -51 285 -39 q 121 -55 175 -62 q 22 -10 67 -47 q -44 77 -24 29 q -69 178 -65 125 q -60 286 -72 232 q -29 392 -49 340 q 26 503 -8 447 q 103 609 60 560 q 199 697 147 658 q 310 756 251 735 q 358 769 332 764 q 411 774 385 774 q 462 767 438 774 q 507 746 486 761 q 563 665 547 714 q 572 567 578 615 q 541 470 565 518 q 479 390 517 422 q 458 371 468 381 q 436 354 447 361 q 422 348 431 350 q 408 347 414 346 q 398 353 401 349 q 399 368 394 358 q 416 387 403 376 q 436 406 429 397 q 468 453 456 428 q 486 507 481 478 q 485 592 493 547 q 442 663 478 636 q 349 689 401 692 q 253 668 296 686 q 163 606 204 646 q 94 521 122 567 q 47 407 63 468 q 31 286 32 346 q 39 206 31 246 q 74 135 47 165 q 142 92 101 104 q 221 83 182 81 q 325 106 274 86 q 424 158 376 126 q 514 227 472 189 q 589 304 556 265 q 722 478 658 389 q 847 658 785 568 q 973 838 910 749 q 1107 1010 1036 926 q 1178 1082 1140 1050 q 1261 1140 1217 1114 q 1274 1144 1265 1142 q 1292 1147 1283 1147 q 1305 1143 1300 1147 q 1306 1128 1310 1139 q 1288 1110 1301 1118 q 1267 1094 1274 1101 q 1249 1077 1257 1086 q 1233 1057 1240 1068 q 1201 992 1214 1028 q 1175 926 1189 957 q 1163 888 1167 907 q 1154 849 1158 868 q 1135 767 1144 808 q 1115 686 1125 726 q 1073 537 1096 611 q 1025 390 1050 463 q 1010 348 1018 368 q 996 307 1003 328 q 1106 460 1053 382 q 1214 616 1160 539 q 1326 768 1268 693 q 1451 910 1385 843 z "},"N":{"ha":1144,"x_min":-71,"x_max":1724,"o":"m 1078 385 q 1206 633 1143 508 q 1343 878 1268 757 q 1414 990 1379 935 q 1489 1097 1449 1044 q 1528 1142 1503 1115 q 1583 1192 1553 1169 q 1643 1223 1613 1214 q 1701 1214 1674 1232 q 1722 1167 1724 1197 q 1707 1114 1721 1136 q 1690 1096 1699 1100 q 1673 1092 1682 1092 q 1653 1094 1664 1092 q 1629 1097 1643 1097 q 1572 1081 1599 1097 q 1524 1042 1546 1065 q 1483 994 1501 1019 q 1447 947 1464 968 q 1272 671 1347 817 q 1122 381 1197 525 q 1065 277 1094 328 q 1004 176 1036 226 q 979 130 993 153 q 950 86 965 107 q 934 63 946 79 q 910 33 922 47 q 887 16 897 19 q 875 31 876 13 q 886 60 874 42 q 901 92 899 79 q 919 156 913 124 q 926 221 925 188 q 929 312 931 267 q 924 403 928 357 q 918 494 921 449 q 917 586 915 540 q 932 753 919 674 q 968 917 944 833 q 888 772 931 842 q 806 628 846 701 q 731 491 767 560 q 656 356 696 422 q 558 217 614 290 q 434 85 503 144 q 285 -8 365 26 q 117 -31 206 -43 q 24 6 61 -24 q -34 79 -12 36 q -63 172 -56 122 q -68 271 -71 222 q -4 502 -62 397 q 149 688 54 607 q 239 749 186 718 q 346 791 292 779 q 448 786 400 803 q 525 707 496 769 q 541 601 547 658 q 511 500 535 544 q 501 486 510 497 q 481 460 493 475 q 456 431 469 446 q 429 408 442 417 q 407 398 417 399 q 394 411 397 397 q 400 424 394 415 q 414 440 406 432 q 430 456 422 449 q 440 468 438 464 q 456 504 451 488 q 461 540 461 521 q 449 635 467 588 q 385 707 431 683 q 289 720 336 731 q 200 681 242 710 q 125 610 158 651 q 72 529 92 568 q 38 438 51 489 q 22 337 24 388 q 33 238 19 286 q 83 156 47 190 q 165 110 121 118 q 256 111 210 101 q 344 144 301 121 q 422 196 388 168 q 533 301 483 243 q 624 424 582 360 q 703 554 665 488 q 781 686 742 621 q 903 885 840 786 q 1042 1075 967 983 q 1063 1098 1047 1081 q 1098 1132 1079 1115 q 1133 1158 1117 1149 q 1158 1156 1150 1167 q 1161 1140 1164 1147 q 1152 1127 1158 1133 q 1139 1116 1146 1121 q 1128 1107 1132 1111 q 1103 1073 1113 1092 q 1086 1031 1093 1054 q 1069 919 1071 978 q 1067 803 1067 860 q 1069 681 1067 742 q 1069 558 1072 621 q 1056 426 1068 492 q 1031 294 1043 361 q 1054 339 1042 317 q 1078 385 1067 361 z "},"O":{"ha":729,"x_min":-71,"x_max":963,"o":"m 467 489 q 388 521 422 489 q 339 593 354 553 q 328 694 321 640 q 353 794 335 747 q 407 893 374 847 q 478 981 440 939 q 557 1058 515 1022 q 647 1121 599 1093 q 749 1163 693 1147 q 857 1163 804 1178 q 926 1106 904 1147 q 954 1021 947 1065 q 957 912 963 967 q 937 803 951 857 q 901 697 922 749 q 857 597 881 644 q 770 432 817 511 q 663 279 724 353 q 592 196 629 236 q 512 120 554 156 q 422 56 469 85 q 322 10 375 28 q 213 -10 274 -6 q 101 1 153 -15 q 19 52 57 15 q -37 131 -18 89 q -65 228 -58 176 q -66 332 -71 279 q -45 435 -61 385 q -7 531 -29 486 q 119 736 47 638 q 283 914 192 835 q 355 975 319 946 q 431 1031 390 1004 q 450 1041 436 1033 q 479 1055 464 1049 q 507 1062 494 1061 q 522 1051 519 1063 q 516 1038 524 1044 q 503 1028 508 1031 q 469 1004 488 1015 q 436 982 451 993 q 356 904 392 946 q 288 818 319 863 q 220 722 251 772 q 165 618 189 672 q 128 529 146 576 q 101 433 111 482 q 89 335 90 385 q 101 239 88 286 q 156 158 118 189 q 242 115 194 126 q 342 110 290 103 q 433 143 393 118 q 574 268 500 185 q 710 453 647 351 q 817 665 774 556 q 865 869 861 774 q 863 945 867 907 q 845 1015 860 983 q 803 1068 831 1047 q 731 1090 775 1089 q 631 1067 678 1092 q 546 1002 583 1042 q 481 914 508 963 q 442 819 454 865 q 428 717 429 771 q 456 621 428 664 q 524 573 482 581 q 611 576 567 565 q 676 609 647 588 q 733 651 704 631 q 738 623 738 632 q 725 600 739 614 q 703 583 714 590 q 682 565 693 575 q 581 509 632 529 q 467 489 529 489 z "},"P":{"ha":1058,"x_min":-71,"x_max":1353,"o":"m 560 149 q 450 77 507 110 q 333 23 393 44 q 208 -7 272 1 q 79 -4 144 -15 q -16 31 25 3 q -67 117 -57 60 q -66 165 -71 139 q -48 211 -61 190 q -13 243 -35 232 q 36 247 8 254 q 67 228 53 243 q 87 193 81 213 q 90 155 93 174 q 72 124 88 136 q 51 89 50 107 q 64 56 51 71 q 97 33 76 42 q 136 24 117 24 q 249 44 197 22 q 350 103 301 67 q 472 230 419 160 q 567 376 524 300 q 651 531 611 451 q 737 684 692 610 q 838 826 782 758 q 967 947 893 894 q 1015 978 990 964 q 1065 1004 1040 993 q 1086 1012 1074 1007 q 1111 1020 1099 1017 q 1135 1023 1124 1024 q 1151 1013 1146 1022 q 1155 996 1157 1001 q 1147 988 1153 990 q 1132 984 1140 985 q 1117 982 1124 983 q 1059 953 1085 974 q 1013 903 1033 932 q 975 844 992 875 q 944 788 958 814 q 862 618 899 706 q 783 447 825 531 q 689 286 742 363 q 560 149 636 210 m 242 593 q 272 730 246 667 q 341 847 299 793 q 438 945 383 900 q 550 1028 492 990 q 674 1095 608 1065 q 808 1142 739 1125 q 947 1164 876 1160 q 1086 1156 1017 1168 q 1198 1119 1144 1144 q 1289 1050 1251 1094 q 1344 931 1335 997 q 1336 799 1353 864 q 1283 691 1319 738 q 1199 613 1247 644 q 1092 564 1150 581 q 974 549 1033 547 q 953 549 969 549 q 922 554 938 550 q 897 565 906 558 q 897 585 888 572 q 921 591 904 596 q 947 586 938 586 q 986 587 967 585 q 1024 596 1006 589 q 1115 656 1078 614 q 1176 746 1151 697 q 1214 866 1206 801 q 1199 989 1222 931 q 1128 1078 1175 1049 q 1019 1114 1081 1107 q 886 1114 953 1121 q 756 1085 819 1107 q 641 1026 693 1063 q 538 949 589 989 q 454 860 490 908 q 393 754 418 813 q 376 699 383 731 q 370 638 369 668 q 382 580 371 607 q 419 538 393 553 q 461 524 438 526 q 508 525 485 522 q 554 537 532 528 q 592 558 576 546 q 601 567 596 561 q 613 580 607 574 q 626 589 619 586 q 638 589 632 592 q 643 571 647 582 q 635 553 639 560 q 545 474 600 506 q 438 431 490 443 q 378 425 408 424 q 321 437 347 426 q 275 469 294 447 q 249 524 256 490 q 244 559 246 542 q 242 593 243 576 z "},"Q":{"ha":738,"x_min":-69,"x_max":1029,"o":"m 338 136 q 512 283 433 200 q 651 463 590 367 q 756 664 713 558 q 826 878 800 769 q 836 949 832 910 q 835 1025 840 989 q 813 1086 831 1061 q 757 1114 794 1111 q 602 1088 675 1117 q 466 1008 529 1060 q 349 888 403 957 q 253 742 296 818 q 176 586 210 665 q 121 436 143 507 q 108 372 113 408 q 111 303 104 336 q 138 247 118 271 q 197 221 158 224 q 231 224 214 219 q 263 238 247 229 q 294 256 279 246 q 324 275 310 265 q 344 292 332 281 q 370 315 357 304 q 394 336 383 326 q 411 347 406 346 q 416 333 425 349 q 390 296 407 317 q 353 257 372 275 q 331 235 335 239 q 194 160 268 181 q 46 176 121 139 q -3 218 14 193 q -29 274 -21 243 q -37 337 -37 304 q -33 403 -37 369 q 69 678 -4 542 q 249 924 143 815 q 488 1101 356 1033 q 768 1169 621 1168 q 822 1161 796 1169 q 871 1140 847 1153 q 922 1094 901 1122 q 954 1035 943 1067 q 969 967 965 1003 q 972 899 974 932 q 946 741 967 818 q 886 593 925 664 q 798 460 849 522 q 688 341 747 397 q 564 236 629 285 q 432 146 499 188 q 394 121 413 132 q 357 97 376 110 q 492 57 426 81 q 624 8 557 33 q 705 -18 664 -7 q 788 -40 746 -29 q 867 -49 824 -50 q 946 -32 910 -49 q 988 3 971 -17 q 994 11 989 6 q 1003 22 999 17 q 1014 28 1008 26 q 1024 24 1019 29 q 1022 1 1029 14 q 1004 -26 1015 -12 q 981 -50 993 -39 q 964 -67 969 -61 q 885 -122 928 -99 q 796 -149 843 -144 q 692 -145 740 -156 q 601 -115 644 -135 q 515 -70 557 -96 q 432 -21 474 -44 q 346 21 390 3 q 253 46 301 39 q 222 40 239 47 q 190 31 204 33 q 90 3 140 17 q -12 -4 40 -11 q -40 3 -28 -3 q -60 19 -53 10 q -69 40 -68 28 q -60 67 -69 53 q -14 99 -43 90 q 42 114 15 108 q 158 122 101 124 q 274 114 215 119 q 307 119 293 111 q 338 136 321 128 m 176 72 q 153 82 178 78 q 101 85 129 86 q 53 75 74 83 q 40 47 32 67 q 64 33 44 33 q 106 38 83 32 q 149 55 129 44 q 176 72 169 65 z "},"R":{"ha":1203,"x_min":-71,"x_max":1444,"o":"m 849 815 q 911 888 875 853 q 990 953 947 924 q 1079 1003 1033 982 q 1171 1033 1125 1025 q 1184 1036 1175 1035 q 1202 1038 1193 1038 q 1219 1035 1211 1038 q 1228 1026 1226 1033 q 1216 1008 1231 1014 q 1193 1000 1201 1003 q 1124 959 1154 985 q 1069 901 1094 933 q 1015 820 1040 863 q 967 738 990 778 q 910 640 938 689 q 854 542 882 592 q 745 354 803 444 q 608 185 688 264 q 442 58 531 107 q 244 -11 353 8 q 167 -22 208 -18 q 85 -21 125 -26 q 10 1 44 -15 q -47 51 -25 18 q -65 91 -60 69 q -69 133 -71 113 q -57 173 -67 154 q -29 204 -47 192 q 4 217 -14 214 q 39 217 22 221 q 69 200 56 213 q 86 167 82 188 q 85 129 89 147 q 67 99 81 111 q 54 65 51 79 q 74 36 57 51 q 115 15 92 21 q 164 10 139 10 q 213 18 189 11 q 257 33 236 25 q 354 97 310 58 q 437 181 399 135 q 508 278 475 228 q 571 378 542 329 q 706 597 638 488 q 849 815 774 707 m 1079 443 q 1058 342 1079 390 q 1015 246 1038 293 q 1000 213 1010 233 q 984 171 990 193 q 978 128 978 149 q 993 97 978 108 q 1015 88 1003 89 q 1040 91 1028 88 q 1065 101 1053 94 q 1086 111 1078 107 q 1138 147 1114 126 q 1183 194 1161 168 q 1232 262 1210 226 q 1282 328 1254 297 q 1295 342 1286 333 q 1313 347 1304 351 q 1319 336 1319 343 q 1314 322 1318 329 q 1304 307 1310 314 q 1297 297 1299 300 q 1240 221 1268 260 q 1181 146 1213 182 q 1115 78 1150 110 q 1036 25 1079 47 q 951 0 997 6 q 867 18 906 -6 q 826 75 833 39 q 824 146 818 111 q 852 237 831 194 q 899 319 874 279 q 949 406 922 363 q 983 501 976 450 q 983 535 986 518 q 961 560 981 553 q 929 562 947 564 q 904 572 911 560 q 903 590 897 585 q 922 598 910 596 q 948 601 935 600 q 967 601 961 601 q 1119 646 1046 607 q 1242 750 1193 685 q 1281 819 1264 781 q 1303 897 1297 857 q 1299 974 1308 936 q 1263 1044 1290 1013 q 1191 1100 1232 1082 q 1106 1124 1150 1118 q 1015 1125 1061 1129 q 925 1113 968 1121 q 753 1058 835 1097 q 601 960 671 1018 q 538 896 568 931 q 485 822 507 861 q 449 738 463 782 q 439 647 436 694 q 473 575 442 601 q 553 554 504 549 q 594 566 576 557 q 632 588 613 575 q 638 593 633 589 q 647 601 642 597 q 658 606 653 604 q 665 606 663 607 q 667 592 671 601 q 660 579 663 583 q 617 533 644 553 q 565 497 589 514 q 513 470 539 481 q 458 458 488 460 q 375 476 407 454 q 327 533 343 497 q 310 613 311 569 q 321 697 310 657 q 406 867 346 789 q 542 999 465 944 q 706 1091 615 1051 q 892 1151 796 1131 q 1086 1169 989 1171 q 1272 1135 1183 1167 q 1403 1031 1361 1103 q 1431 868 1444 960 q 1402 783 1424 822 q 1349 713 1381 744 q 1280 656 1318 681 q 1200 614 1242 632 q 1107 584 1156 594 q 1010 567 1058 574 q 1054 510 1036 539 q 1079 443 1072 481 z "},"S":{"ha":747,"x_min":-71,"x_max":981,"o":"m 617 793 q 672 653 644 726 q 711 507 699 581 q 716 360 724 433 q 668 218 708 286 q 608 138 644 172 q 528 76 571 104 q 433 27 485 49 q 326 -6 382 6 q 215 -17 271 -18 q 110 3 160 -15 q 31 46 68 18 q -31 113 -7 74 q -63 206 -56 156 q -68 304 -71 256 q -51 397 -67 351 q -9 485 -35 443 q 50 563 17 526 q 119 628 83 599 q 193 672 149 651 q 284 701 238 693 q 374 697 331 708 q 443 644 417 686 q 463 597 457 622 q 467 544 468 571 q 461 490 467 517 q 447 442 456 464 q 417 384 435 404 q 375 346 399 364 q 363 342 365 339 q 362 353 361 346 q 366 370 363 361 q 372 383 369 379 q 384 415 383 403 q 392 450 385 428 q 389 532 401 489 q 351 603 376 575 q 276 644 319 638 q 190 631 232 650 q 120 572 150 610 q 71 494 90 533 q 38 408 49 454 q 31 314 28 361 q 47 223 33 268 q 84 140 60 178 q 144 76 108 103 q 231 39 181 49 q 326 37 275 29 q 417 65 376 44 q 492 128 461 89 q 546 211 524 168 q 577 302 569 254 q 581 398 585 350 q 561 493 576 446 q 524 582 546 540 q 475 724 490 649 q 469 871 460 799 q 514 1007 478 943 q 619 1115 550 1071 q 700 1158 654 1142 q 792 1174 746 1174 q 880 1155 839 1174 q 949 1094 921 1136 q 978 1003 975 1054 q 964 903 981 951 q 913 816 947 854 q 832 764 879 778 q 799 758 808 757 q 790 765 790 760 q 796 778 790 771 q 808 789 801 785 q 840 824 826 803 q 864 864 853 846 q 887 956 886 904 q 869 1050 888 1007 q 813 1117 850 1093 q 721 1126 775 1140 q 647 1066 675 1104 q 607 982 619 1028 q 597 887 594 936 q 617 793 600 838 z "},"T":{"ha":888,"x_min":-71,"x_max":1525,"o":"m 807 411 q 736 305 774 356 q 654 210 699 254 q 583 138 618 174 q 503 78 547 101 q 389 29 450 47 q 268 -1 328 11 q 157 -12 215 -12 q 47 3 99 -12 q -36 54 -1 18 q -68 143 -71 90 q -58 192 -67 168 q -28 231 -49 215 q 25 242 -4 246 q 72 217 54 238 q 89 181 85 201 q 86 143 93 161 q 74 124 82 131 q 60 113 67 118 q 53 101 54 108 q 60 76 51 93 q 93 40 72 51 q 138 24 114 28 q 188 22 163 19 q 238 31 214 25 q 338 71 293 43 q 421 136 383 99 q 490 218 458 174 q 551 308 522 263 q 594 378 572 344 q 635 449 615 413 q 665 508 650 479 q 696 565 681 538 q 759 667 725 618 q 828 764 793 715 q 908 859 865 817 q 1006 938 951 901 q 1067 975 1035 958 q 1136 1003 1100 992 q 1147 1004 1140 1003 q 1160 1005 1154 1006 q 1169 1000 1165 1004 q 1169 986 1172 996 q 1157 976 1167 979 q 1142 969 1147 974 q 1121 957 1131 963 q 1101 942 1111 951 q 1026 847 1056 900 q 968 739 996 793 q 890 574 926 657 q 807 411 854 490 m 343 408 q 294 408 319 408 q 244 419 268 408 q 200 452 219 431 q 169 497 181 474 q 143 610 142 549 q 161 725 144 671 q 215 838 179 785 q 296 937 250 892 q 394 1019 342 982 q 500 1086 446 1057 q 616 1135 556 1115 q 739 1164 676 1156 q 880 1172 810 1175 q 1022 1160 950 1169 q 1118 1144 1071 1154 q 1213 1124 1165 1133 q 1307 1108 1260 1115 q 1404 1103 1354 1101 q 1452 1108 1431 1104 q 1496 1128 1474 1113 q 1514 1134 1507 1135 q 1523 1128 1521 1133 q 1522 1114 1525 1122 q 1510 1099 1518 1106 q 1403 1042 1465 1063 q 1283 1017 1340 1021 q 1147 1026 1217 1011 q 1011 1054 1078 1042 q 928 1072 969 1063 q 844 1089 886 1082 q 758 1099 801 1096 q 674 1097 715 1101 q 549 1064 608 1089 q 441 999 490 1039 q 354 908 392 960 q 294 794 317 856 q 277 729 285 765 q 269 657 269 693 q 279 587 269 621 q 313 528 289 553 q 365 496 335 506 q 427 486 394 486 q 492 495 460 486 q 549 518 524 504 q 563 528 553 519 q 583 545 572 538 q 604 556 594 553 q 617 550 614 558 q 612 535 619 544 q 594 518 604 526 q 572 502 583 510 q 557 492 561 494 q 457 432 508 456 q 343 408 406 408 z "},"U":{"ha":1000,"x_min":-75,"x_max":1290,"o":"m 1288 1082 q 1285 1065 1290 1078 q 1272 1038 1279 1053 q 1256 1011 1264 1024 q 1246 994 1247 999 q 1230 966 1239 979 q 1211 939 1221 953 q 1169 872 1190 906 q 1128 806 1147 839 q 993 576 1058 690 q 869 340 928 463 q 844 288 856 314 q 821 236 832 263 q 808 204 817 224 q 792 164 799 185 q 787 124 786 143 q 801 93 788 104 q 835 85 817 81 q 871 101 853 89 q 905 126 889 113 q 931 149 921 140 q 977 197 956 172 q 1021 249 999 222 l 1075 315 q 1085 328 1081 322 q 1101 325 1090 335 q 1106 309 1111 317 q 1096 294 1101 301 q 1045 229 1069 263 q 993 165 1021 196 q 958 126 975 146 q 921 88 940 107 q 882 49 904 69 q 835 13 860 29 q 782 -12 810 -3 q 728 -18 754 -22 q 656 26 675 -10 q 637 107 636 61 q 652 201 638 153 q 683 281 667 249 q 609 201 644 242 q 536 121 574 161 q 487 75 515 100 q 425 29 458 50 q 356 -5 392 8 q 288 -17 321 -18 q 228 2 256 -17 q 183 65 201 21 q 175 178 163 121 q 208 288 188 235 q 248 373 225 332 q 296 454 271 414 q 353 548 325 501 q 411 640 381 594 q 477 744 443 693 q 543 849 511 796 q 592 935 568 889 q 618 1031 615 982 q 610 1079 619 1060 q 583 1110 600 1099 q 542 1125 565 1121 q 493 1125 518 1129 q 390 1089 439 1117 q 301 1026 342 1061 q 197 928 246 982 q 114 811 149 874 q 61 695 86 758 q 36 572 36 632 q 65 480 38 514 q 154 451 93 446 q 218 478 193 456 q 271 528 243 501 q 290 533 286 544 q 288 506 294 521 q 265 475 278 489 q 239 447 251 461 q 169 385 206 414 q 82 350 132 356 q -3 370 32 343 q -54 446 -39 397 q -67 574 -75 508 q -33 703 -58 640 q 32 824 -7 767 q 111 926 71 881 q 209 1021 154 975 q 326 1101 264 1067 q 456 1154 389 1135 q 590 1169 524 1174 q 690 1132 649 1165 q 742 1040 731 1099 q 732 922 753 978 q 689 811 711 867 q 597 632 653 717 q 488 461 540 547 q 454 410 471 435 q 421 357 438 385 q 372 269 397 315 q 333 174 346 222 q 329 138 331 158 q 338 104 328 117 q 374 85 350 88 q 417 86 399 82 q 470 113 444 94 q 519 153 496 131 q 562 201 542 176 q 600 246 582 225 q 762 477 692 356 q 904 722 832 599 q 971 838 936 781 q 1039 954 1006 896 q 1059 990 1050 974 q 1079 1024 1068 1007 q 1107 1072 1090 1047 q 1118 1088 1115 1085 q 1135 1092 1121 1090 q 1172 1095 1151 1093 q 1213 1097 1193 1097 q 1253 1094 1233 1097 q 1288 1082 1272 1092 z "},"V":{"ha":858,"x_min":-72,"x_max":1124,"o":"m 76 360 q -18 387 14 356 q -61 465 -50 418 q -67 567 -72 513 q -49 663 -61 621 q 81 892 -8 789 q 276 1065 169 996 q 390 1130 331 1101 q 515 1165 449 1158 q 622 1160 569 1172 q 701 1093 674 1147 q 725 980 729 1035 q 700 869 721 925 q 652 762 678 813 q 597 660 626 711 q 526 539 561 599 q 457 417 492 479 q 417 345 438 381 q 378 274 397 310 q 358 228 369 256 q 342 171 347 200 q 344 117 338 142 q 378 79 350 92 q 422 74 399 69 q 467 89 444 78 q 509 115 489 100 q 546 142 529 131 q 638 217 596 178 q 715 307 679 257 q 863 540 796 418 q 971 796 931 663 q 985 842 976 815 q 997 895 993 868 q 1001 949 1001 922 q 990 994 1000 975 q 981 1006 986 1003 q 970 1013 975 1010 q 960 1021 965 1017 q 954 1035 956 1025 q 952 1090 949 1063 q 978 1140 956 1117 q 1015 1165 994 1158 q 1056 1168 1036 1172 q 1090 1149 1075 1164 q 1113 1107 1106 1133 q 1114 1002 1124 1058 q 1090 900 1104 946 q 985 652 1050 771 q 844 422 921 533 q 764 310 807 367 q 673 202 721 254 q 571 105 625 150 q 457 28 517 60 q 365 -7 414 4 q 268 -1 315 -18 q 206 52 224 14 q 186 135 189 90 q 197 230 185 183 q 228 320 208 276 q 274 406 249 364 q 322 489 299 449 q 435 677 381 583 q 539 871 489 771 q 576 943 558 906 q 599 1021 593 981 q 592 1073 601 1051 q 563 1106 582 1094 q 519 1120 544 1118 q 468 1114 494 1122 q 376 1073 419 1100 q 294 1013 332 1046 q 199 921 244 969 q 121 815 154 872 q 72 713 92 767 q 44 604 51 660 q 43 565 43 586 q 48 524 43 543 q 64 489 53 504 q 97 468 75 474 q 138 467 118 463 q 176 479 157 471 q 224 506 206 492 q 261 544 243 521 q 283 557 269 554 q 294 542 296 560 q 284 515 294 531 q 268 489 274 500 q 231 445 253 465 q 185 408 208 425 q 134 377 163 393 q 76 360 106 361 z "},"W":{"ha":1071,"x_min":-74,"x_max":1418,"o":"m 496 333 q 622 470 563 397 q 735 619 681 543 q 840 774 789 696 q 942 931 890 853 q 958 955 950 943 q 974 978 965 967 q 989 1003 981 989 q 1006 1030 997 1017 q 1026 1054 1015 1043 q 1050 1071 1038 1065 q 1067 1072 1057 1074 q 1075 1058 1076 1071 q 1071 1051 1075 1056 q 1065 1044 1067 1047 q 1043 1008 1053 1026 q 1025 968 1033 989 q 985 817 994 894 q 964 663 975 740 q 954 600 958 631 q 943 539 950 569 q 903 397 931 467 q 847 260 875 328 q 985 424 914 343 q 1119 593 1056 506 q 1189 703 1157 646 q 1244 821 1221 761 q 1265 875 1256 849 q 1281 929 1274 901 q 1289 969 1286 949 q 1272 1004 1292 990 q 1242 1027 1253 1017 q 1228 1061 1231 1038 q 1235 1113 1225 1086 q 1267 1150 1244 1139 q 1315 1166 1290 1164 q 1360 1158 1339 1168 q 1395 1129 1381 1149 q 1414 1083 1410 1110 q 1415 1017 1418 1051 q 1401 950 1411 983 q 1378 886 1392 917 q 1347 829 1364 856 q 1292 735 1319 782 q 1232 644 1264 689 q 1102 480 1172 557 q 965 322 1032 403 q 844 188 907 254 q 739 43 782 122 q 727 22 736 38 q 708 -8 718 6 q 690 -25 699 -22 q 678 -7 681 -28 q 678 29 675 11 q 686 65 681 47 q 699 100 692 82 q 710 135 706 118 q 727 202 718 168 q 743 269 736 236 q 751 322 749 296 q 757 375 754 347 q 784 529 767 454 q 822 682 801 604 q 722 540 774 610 q 613 403 669 469 q 500 283 558 340 q 383 169 442 225 q 294 88 340 129 q 222 -7 249 46 q 215 -19 219 -11 q 206 -32 211 -26 q 196 -38 201 -37 q 185 -29 190 -39 q 185 5 178 -17 q 196 38 192 26 q 228 127 210 83 q 265 215 246 171 q 320 324 292 271 q 378 432 349 376 q 449 575 415 503 q 510 724 482 647 q 541 818 529 771 q 567 913 553 865 q 565 1053 588 985 q 519 1103 550 1092 q 451 1108 488 1114 q 379 1086 415 1103 q 319 1053 343 1069 q 170 905 236 994 q 71 719 104 815 q 50 628 56 675 q 51 535 44 582 q 67 483 56 507 q 107 447 79 458 q 181 439 142 432 q 253 464 221 446 q 288 491 272 475 q 318 524 304 507 q 336 546 325 531 q 358 561 347 561 q 370 547 374 561 q 356 516 367 533 q 331 483 344 499 q 314 463 318 467 q 263 410 290 435 q 203 369 235 386 q 122 340 167 350 q 38 346 78 331 q -35 401 -10 363 q -67 488 -60 439 q -67 590 -74 538 q -44 691 -60 642 q -3 787 -28 740 q 50 874 21 833 q 112 949 78 911 q 184 1019 146 986 q 264 1078 222 1051 q 350 1124 306 1106 q 432 1147 388 1138 q 522 1156 476 1157 q 607 1140 567 1156 q 675 1090 647 1125 q 718 1010 706 1053 q 731 923 731 968 q 722 833 732 878 q 699 744 713 788 q 646 624 678 682 q 577 508 614 565 q 501 397 540 451 q 425 288 463 342 q 407 262 415 275 q 390 238 399 249 q 444 285 418 261 q 496 333 469 310 z "},"X":{"ha":1142,"x_min":-74,"x_max":1582,"o":"m 1171 994 q 1272 1058 1219 1029 q 1378 1110 1325 1086 q 1458 1140 1414 1126 q 1543 1142 1503 1153 q 1574 1122 1565 1136 q 1581 1091 1582 1108 q 1572 1055 1579 1074 q 1558 1021 1565 1036 q 1544 993 1553 1008 q 1524 969 1535 978 q 1503 963 1514 960 q 1485 989 1493 965 q 1478 1012 1481 1000 q 1467 1032 1475 1024 q 1431 1050 1453 1047 q 1390 1050 1410 1053 q 1306 1022 1346 1042 q 1232 974 1267 1001 q 1092 823 1150 910 q 982 647 1033 736 q 849 329 892 494 q 834 276 842 306 q 823 216 826 246 q 824 158 819 186 q 844 108 828 129 q 908 81 871 75 q 981 110 944 86 q 1051 165 1018 133 q 1101 214 1083 196 q 1163 289 1138 251 q 1183 318 1171 300 q 1211 335 1194 336 q 1229 324 1229 335 q 1222 299 1229 313 q 1203 272 1214 285 q 1189 253 1193 258 q 1106 159 1149 204 q 1015 74 1064 114 q 968 38 993 56 q 916 6 943 19 q 860 -16 889 -8 q 801 -21 831 -24 q 723 13 750 -17 q 685 85 696 43 q 674 173 674 126 q 682 258 675 219 q 552 151 619 204 q 410 60 485 99 q 256 2 336 21 q 88 -1 175 -17 q 28 19 58 4 q -26 56 -3 33 q -62 109 -50 79 q -67 174 -74 139 q -37 231 -60 206 q 17 267 -15 256 q 74 263 49 278 q 108 217 100 249 q 112 189 111 204 q 106 163 113 174 q 85 141 99 147 q 65 119 72 135 q 65 86 58 101 q 87 60 72 71 q 119 42 101 49 q 150 33 136 35 q 224 38 188 29 q 296 63 261 46 q 362 104 331 81 q 419 151 393 128 q 644 414 547 269 q 815 715 740 558 q 851 792 833 753 q 880 874 868 832 q 897 958 892 915 q 896 1043 901 1001 q 871 1103 890 1079 q 814 1128 851 1128 q 743 1118 778 1128 q 676 1090 708 1108 q 558 993 613 1053 q 468 871 504 933 q 431 796 446 835 q 408 717 415 757 q 406 638 403 681 q 433 568 410 596 q 487 536 453 543 q 550 536 521 529 q 615 569 590 544 q 669 617 639 593 q 689 626 678 625 q 697 608 700 628 q 677 577 694 592 q 649 551 660 563 q 594 499 621 524 q 529 457 567 474 q 463 442 497 444 q 397 448 429 439 q 340 478 365 457 q 303 533 315 499 q 292 664 281 594 q 329 790 304 733 q 474 1000 378 908 q 688 1140 569 1092 q 782 1167 732 1157 q 881 1167 832 1178 q 965 1117 932 1156 q 1010 1029 997 1078 q 1021 942 1022 986 q 1019 853 1019 897 q 1092 928 1054 893 q 1171 994 1131 963 z "},"Y":{"ha":1075,"x_min":-72,"x_max":1483,"o":"m 679 125 q 628 81 654 103 q 573 40 601 58 q 513 8 544 21 q 447 -7 482 -4 q 361 7 399 -14 q 313 79 324 28 q 313 192 300 136 q 350 300 325 247 q 407 401 375 353 q 468 494 439 450 q 558 625 513 561 q 647 753 604 689 q 689 816 668 783 q 728 883 710 849 q 761 952 747 917 q 781 1024 775 988 q 778 1082 786 1053 q 739 1122 771 1111 q 682 1131 713 1133 q 621 1121 651 1128 q 490 1060 549 1100 q 378 961 431 1019 q 277 838 324 900 q 197 697 231 776 q 174 638 186 674 q 158 565 161 601 q 167 499 156 529 q 217 457 179 468 q 275 452 244 450 q 329 465 306 454 q 369 492 353 476 q 404 521 385 507 q 431 524 426 535 q 425 494 436 514 q 386 451 408 472 q 343 413 364 429 q 247 354 301 372 q 133 357 192 336 q 82 390 103 368 q 49 440 61 413 q 34 499 38 468 q 35 560 31 531 q 71 688 42 626 q 138 807 100 750 q 224 917 176 865 q 329 1014 271 969 q 449 1092 386 1054 q 578 1150 511 1129 q 640 1165 606 1158 q 711 1172 675 1171 q 781 1167 747 1174 q 839 1143 814 1161 q 884 1090 869 1121 q 902 1024 899 1058 q 900 953 906 989 q 885 883 894 917 q 820 746 860 811 q 739 618 781 681 q 647 483 694 549 q 558 347 599 417 q 523 284 540 317 q 490 219 506 251 q 478 190 483 206 q 472 158 474 174 q 475 127 471 142 q 492 100 479 113 q 546 87 515 79 q 607 115 576 94 q 663 160 638 135 q 704 201 689 185 q 807 316 757 257 q 904 438 857 375 q 1090 715 1004 574 q 1260 1003 1176 856 q 1295 1063 1283 1044 q 1321 1087 1307 1081 q 1356 1092 1335 1093 q 1418 1094 1376 1092 q 1474 1085 1465 1099 q 1472 1047 1483 1071 q 1439 995 1461 1024 q 1404 942 1417 967 q 1233 652 1324 793 q 1053 367 1142 511 q 971 226 1011 297 q 889 86 931 156 q 801 -51 847 17 q 704 -179 756 -118 q 602 -285 658 -236 q 483 -370 546 -333 q 352 -430 421 -407 q 211 -457 283 -453 q 144 -459 179 -460 q 75 -451 110 -458 q 10 -429 40 -444 q -40 -387 -19 -414 q -66 -332 -60 -362 q -66 -272 -72 -301 q -42 -217 -60 -242 q 4 -178 -25 -192 q 60 -172 33 -164 q 102 -201 86 -181 q 119 -250 118 -222 q 100 -303 121 -278 q 82 -324 92 -314 q 72 -350 72 -335 q 84 -380 72 -367 q 111 -401 96 -393 q 174 -415 140 -417 q 239 -407 207 -414 q 370 -347 311 -389 q 478 -251 429 -306 q 568 -134 528 -196 q 646 -12 608 -72 q 735 128 690 58 q 822 269 779 199 q 753 196 789 231 q 679 125 718 161 z "},"Z":{"ha":1131,"x_min":-71,"x_max":1542,"o":"m 811 707 q 917 838 864 774 q 1028 963 969 903 q 922 982 975 972 q 817 998 869 992 q 710 1004 764 1004 q 604 993 657 1004 q 528 971 565 986 q 459 932 490 956 q 406 876 428 908 q 378 801 385 843 q 375 760 375 783 q 381 715 375 736 q 401 680 388 694 q 440 665 415 665 q 458 667 449 665 q 477 669 468 669 q 494 666 486 669 q 507 651 501 663 q 508 617 514 635 q 492 586 503 599 q 430 548 469 558 q 360 557 390 538 q 327 590 339 569 q 310 633 315 610 q 306 680 306 656 q 308 725 306 704 q 338 825 317 776 q 390 917 360 874 q 458 999 421 961 q 538 1065 496 1036 q 649 1124 592 1104 q 765 1147 706 1143 q 885 1142 824 1151 q 1007 1117 946 1133 q 1067 1099 1038 1108 q 1126 1079 1096 1089 q 1155 1076 1140 1074 q 1183 1083 1169 1078 q 1210 1097 1196 1089 q 1238 1111 1224 1104 q 1342 1153 1288 1136 q 1453 1164 1396 1171 q 1500 1150 1476 1161 q 1532 1114 1524 1139 q 1526 1067 1542 1088 q 1493 1032 1511 1047 q 1382 980 1444 996 q 1261 957 1319 964 q 1197 951 1221 953 q 1157 941 1174 949 q 1125 916 1140 933 q 1085 864 1110 899 q 958 681 1019 775 q 833 497 897 588 q 697 322 768 407 q 540 165 625 238 q 642 119 592 143 q 746 79 693 94 q 853 67 807 63 q 938 94 900 72 q 1006 154 975 117 q 1065 239 1036 192 q 1106 349 1096 290 q 1115 467 1115 408 q 1136 465 1128 465 q 1153 453 1144 464 q 1161 433 1160 444 q 1165 410 1163 421 q 1172 336 1172 374 q 1161 263 1172 299 q 1106 158 1144 204 q 1018 76 1067 111 q 904 10 965 36 q 775 -21 843 -15 q 642 -13 708 -25 q 513 19 576 -1 q 450 43 479 31 q 426 56 438 49 q 401 67 414 64 q 374 67 389 71 q 343 58 358 64 q 313 44 328 51 q 286 32 299 36 q 153 0 221 10 q 18 8 85 -10 q -29 29 -8 14 q -60 66 -50 44 q -68 113 -71 88 q -46 165 -65 139 q 44 222 -8 214 q 158 222 97 231 q 281 199 218 213 q 404 189 344 185 q 435 204 418 190 q 468 237 451 218 q 499 274 485 256 q 521 303 513 293 l 811 707 m 281 118 q 242 135 267 125 q 188 153 218 144 q 128 165 158 161 q 72 166 97 169 q 29 150 46 163 q 11 113 13 138 q 19 80 11 93 q 40 58 26 67 q 69 47 53 50 q 101 44 85 44 q 196 69 151 47 q 281 118 240 92 m 1251 1040 q 1328 1024 1286 1025 q 1406 1035 1369 1022 q 1426 1047 1415 1039 q 1443 1067 1438 1056 q 1447 1089 1449 1078 q 1428 1108 1444 1100 q 1381 1110 1408 1119 q 1335 1092 1353 1100 q 1291 1068 1313 1081 q 1251 1040 1269 1056 z "},"a":{"ha":606,"x_min":-42,"x_max":697,"o":"m 538 604 l 676 604 q 563 399 618 501 q 444 199 507 296 q 427 165 439 190 q 409 115 415 140 q 408 74 403 90 q 440 65 413 57 q 509 119 479 88 q 565 188 539 151 q 615 262 590 225 q 669 331 640 299 q 688 339 681 342 q 697 333 694 336 q 690 321 697 332 q 619 225 653 276 q 548 126 586 174 q 464 43 510 79 q 357 -7 418 7 q 310 7 325 -8 q 289 46 294 22 q 284 96 283 69 q 288 144 285 122 q 248 103 272 128 q 194 54 224 79 q 134 9 165 29 q 73 -17 103 -11 q 17 -12 43 -24 q -25 39 -8 0 q -40 117 -42 78 q -26 196 -39 157 q 6 271 -14 235 q 47 339 26 307 q 153 465 93 408 q 286 563 214 522 q 344 590 311 576 q 408 606 376 603 q 465 596 439 608 q 506 546 492 583 q 522 575 514 561 q 538 604 531 589 m 354 288 q 374 319 358 296 q 408 374 390 343 q 442 439 426 404 q 465 503 458 474 q 464 551 471 532 q 426 574 457 571 q 383 556 404 569 q 340 524 361 543 q 301 485 319 506 q 267 447 283 465 q 201 356 233 403 q 142 260 169 308 q 121 222 133 244 q 99 174 108 199 q 85 124 89 149 q 93 82 82 100 q 119 61 103 64 q 151 64 135 58 q 184 80 168 69 q 210 100 200 90 q 289 188 253 140 q 354 288 325 235 z "},"b":{"ha":528,"x_min":-1,"x_max":599,"o":"m 415 593 q 472 610 444 610 q 524 598 500 611 q 564 560 547 585 q 586 504 581 536 q 572 363 597 432 q 503 236 546 293 q 402 124 461 175 q 278 38 343 74 q 221 10 253 22 q 157 -7 189 -3 q 94 -4 125 -11 q 38 28 63 3 q 6 86 13 53 q 3 155 -1 119 q 19 225 7 190 q 43 288 31 260 q 119 440 75 367 q 208 586 164 513 q 300 739 254 664 q 390 892 346 814 q 409 924 401 907 q 426 960 417 940 q 440 994 435 972 q 436 1019 440 1003 q 440 1039 432 1036 q 496 1047 463 1043 q 547 1051 529 1051 q 572 1054 556 1051 q 592 1054 589 1057 q 596 1031 599 1046 q 592 1008 593 1017 q 563 935 582 969 q 524 869 544 901 q 424 697 475 782 q 322 524 374 611 q 367 560 343 542 q 415 593 392 579 m 100 79 q 120 35 96 43 q 175 38 144 26 q 240 78 213 49 q 290 139 267 108 q 372 260 335 197 q 436 392 408 324 q 451 426 442 403 q 467 476 461 450 q 472 524 474 501 q 453 554 469 546 q 426 558 440 560 q 398 551 411 557 q 372 536 385 544 q 351 521 360 528 q 269 432 311 485 q 192 319 228 379 q 132 197 157 258 q 100 79 107 135 z "},"c":{"ha":406,"x_min":-54,"x_max":538,"o":"m 511 343 q 427 234 471 289 q 333 131 383 179 q 224 44 282 82 q 97 -10 165 7 q 63 -8 81 -11 q 31 1 46 -6 q -27 46 -8 18 q -50 107 -46 74 q -47 176 -54 140 q -28 243 -40 211 q 51 387 3 318 q 161 508 99 456 q 230 560 193 536 q 308 600 267 585 q 350 612 326 606 q 399 620 374 618 q 447 619 424 622 q 488 607 469 617 q 512 577 508 594 q 509 542 515 560 q 490 506 503 524 q 468 475 478 488 q 461 465 465 471 q 451 453 457 458 q 439 444 446 447 q 426 444 432 442 q 418 467 417 451 q 419 489 419 482 q 418 515 419 500 q 413 542 417 529 q 400 564 408 554 q 376 574 392 574 q 340 563 357 574 q 306 535 322 551 q 276 501 290 519 q 253 471 263 483 q 194 391 221 432 q 144 307 168 350 q 104 231 125 271 q 79 149 83 190 q 98 86 76 113 q 157 65 119 60 q 254 113 208 83 q 340 181 300 143 q 416 261 381 218 q 482 349 451 304 q 488 362 483 353 q 499 380 493 371 q 513 396 506 389 q 526 401 519 403 q 538 393 538 401 q 532 375 538 385 q 519 356 526 365 q 511 343 513 346 z "},"d":{"ha":588,"x_min":-42,"x_max":889,"o":"m 708 933 q 723 961 715 947 q 732 990 731 975 q 731 1007 732 1000 q 736 1021 729 1014 q 762 1033 744 1028 q 798 1040 779 1038 q 835 1042 817 1042 q 864 1042 853 1043 q 887 1024 885 1039 q 883 990 889 1008 q 867 953 878 971 q 853 926 857 935 q 695 653 775 788 q 540 378 615 519 q 507 315 522 346 q 475 251 492 283 q 437 190 456 221 q 408 128 418 160 q 406 104 406 117 q 410 83 406 92 q 422 72 414 75 q 446 74 431 68 q 515 133 481 99 q 578 204 549 167 q 635 280 608 242 q 685 353 663 318 q 697 366 689 358 q 714 364 706 374 q 713 346 718 360 q 582 160 656 250 q 411 10 508 69 q 349 -1 382 -4 q 297 31 317 1 q 281 88 282 57 q 288 147 281 119 q 240 94 267 119 q 189 46 214 69 q 135 3 165 24 q 69 -21 104 -18 q 17 -13 39 -25 q -17 19 -4 -1 q -36 67 -31 40 q -39 118 -42 93 q -11 238 -35 179 q 49 348 13 296 q 131 445 86 400 q 225 525 176 490 q 367 596 290 575 q 405 602 385 599 q 443 599 425 606 q 469 577 460 592 q 488 546 478 563 q 708 933 601 738 m 200 96 q 357 294 289 185 q 454 526 425 404 q 427 568 451 563 q 376 556 403 574 q 326 512 349 536 q 282 461 303 488 q 247 419 269 447 q 197 354 224 390 q 144 278 171 318 q 100 199 118 238 q 76 128 82 161 q 83 75 69 96 q 110 58 93 60 q 143 62 126 57 q 176 77 160 67 q 200 96 192 88 z "},"e":{"ha":425,"x_min":-40,"x_max":528,"o":"m 96 111 q 118 69 100 79 q 160 61 136 58 q 210 75 185 64 q 251 97 235 86 q 330 159 290 121 q 404 237 369 197 q 467 311 439 276 q 511 364 494 346 q 524 369 521 375 q 525 351 528 363 q 497 301 518 331 q 447 238 476 271 q 384 169 418 204 q 317 106 350 135 q 255 54 283 76 q 208 22 226 32 q 148 -2 182 7 q 81 -10 114 -11 q 20 7 49 -8 q -25 56 -8 22 q -40 118 -39 85 q -33 185 -40 151 q -12 249 -25 218 q 17 308 1 281 q 115 447 57 386 q 249 553 174 508 q 324 592 285 576 q 406 614 364 607 q 463 617 432 619 q 508 588 493 614 q 519 547 521 568 q 510 504 518 525 q 488 465 501 483 q 461 433 475 447 q 385 371 428 397 q 300 325 343 344 q 253 308 276 315 q 206 293 231 300 q 172 289 192 290 q 143 276 153 288 q 126 243 132 265 q 113 206 119 221 q 98 159 103 183 q 96 111 93 135 m 164 319 q 252 350 213 322 q 328 410 292 378 q 362 442 346 425 q 390 479 378 460 q 410 517 399 494 q 419 558 421 540 q 410 576 418 574 q 389 574 401 579 q 362 559 376 569 q 335 538 347 549 q 313 516 322 526 q 300 503 303 506 q 227 415 260 461 q 164 319 194 368 z "},"f":{"ha":414,"x_min":-583,"x_max":882,"o":"m 190 621 l 319 621 l 338 653 q 434 789 382 724 q 551 907 486 854 q 617 953 583 932 q 683 994 650 975 q 755 1027 717 1013 q 832 1038 793 1042 q 871 1015 860 1032 q 875 972 882 997 q 841 908 868 936 q 778 875 814 879 q 781 897 779 885 q 781 922 782 910 q 777 947 781 935 q 765 967 774 958 q 735 975 751 978 q 701 962 718 972 q 671 938 685 951 q 649 914 657 924 q 544 773 590 849 q 456 621 499 697 l 544 621 l 544 575 l 432 575 q 390 495 417 543 q 331 391 364 447 q 260 273 297 335 q 185 150 224 211 q 111 32 147 89 q 44 -69 75 -25 q -60 -201 -7 -139 q -185 -310 -114 -264 q -253 -350 -217 -331 q -330 -383 -290 -369 q -410 -400 -369 -396 q -489 -394 -450 -404 q -541 -371 -518 -387 q -574 -324 -564 -354 q -576 -274 -583 -300 q -546 -235 -569 -249 q -512 -224 -529 -225 q -484 -231 -496 -224 q -467 -253 -472 -237 q -469 -289 -462 -268 q -481 -317 -476 -304 q -476 -346 -486 -331 q -452 -365 -468 -361 q -421 -368 -436 -369 q -347 -352 -382 -368 q -282 -310 -312 -336 q -225 -254 -251 -285 q -178 -194 -199 -224 q -65 -19 -115 -110 q 43 160 -14 71 l 292 575 l 190 575 l 190 621 z "},"g":{"ha":583,"x_min":-328,"x_max":739,"o":"m 57 6 q 21 44 33 21 q 4 92 8 67 q 2 145 0 118 q 10 197 4 172 q 63 313 28 260 q 142 414 99 367 q 240 510 188 465 q 356 582 292 554 q 410 601 381 593 q 468 609 440 610 q 520 596 496 608 q 558 553 544 583 q 572 572 567 563 q 585 587 578 581 q 600 597 592 593 q 622 603 608 601 q 682 605 653 606 q 739 604 711 604 q 578 329 660 464 q 410 58 496 194 q 340 -54 375 3 q 264 -165 304 -111 q 175 -263 224 -218 q 67 -339 126 -308 q -51 -381 13 -367 q -176 -392 -114 -394 q -218 -387 -196 -390 q -260 -375 -240 -383 q -297 -352 -281 -367 q -319 -317 -312 -337 q -320 -264 -328 -290 q -289 -224 -312 -237 q -239 -211 -268 -208 q -199 -242 -210 -214 q -197 -264 -194 -254 q -204 -282 -199 -274 q -214 -299 -210 -290 q -218 -319 -218 -308 q -206 -344 -217 -335 q -182 -357 -196 -353 q -153 -361 -168 -361 q -128 -360 -139 -361 q -60 -341 -92 -356 q 1 -304 -28 -326 q 53 -254 29 -282 q 99 -199 78 -226 q 193 -58 150 -131 q 276 90 236 15 q 229 50 256 71 q 175 15 203 29 q 117 -4 147 0 q 57 6 86 -8 m 156 76 q 217 88 189 75 q 268 124 244 101 q 313 172 292 146 q 350 222 333 199 q 396 285 372 254 q 442 349 419 317 q 481 417 464 382 q 510 489 499 451 q 515 513 513 499 q 515 541 517 528 q 507 563 514 554 q 485 572 500 572 q 451 566 468 574 q 417 547 433 558 q 387 523 401 536 q 361 499 372 510 q 255 374 303 440 q 167 235 207 307 q 149 198 161 224 q 128 146 136 172 q 124 99 121 119 q 156 76 128 78 z "},"h":{"ha":621,"x_min":-119,"x_max":718,"o":"m 439 996 q 446 1018 442 1011 q 465 1028 450 1025 q 517 1037 489 1031 q 568 1040 544 1043 q 592 1021 590 1038 q 588 983 594 1004 q 569 941 581 961 q 551 911 557 921 q 435 714 493 811 q 315 518 376 617 q 365 556 339 536 q 417 592 390 576 q 474 614 444 607 q 536 615 504 621 q 576 599 561 611 q 597 569 590 586 q 602 531 603 551 q 596 490 601 511 q 551 392 582 438 q 492 301 521 346 q 464 260 479 281 q 434 217 449 239 q 407 172 419 194 q 388 128 394 150 q 395 90 378 97 q 436 94 413 82 q 572 215 511 146 q 683 360 632 285 q 706 372 694 374 q 711 350 718 371 q 635 246 674 299 q 555 146 597 193 q 462 60 513 99 q 347 0 411 22 q 315 -2 331 -3 q 283 6 299 -1 q 251 40 258 18 q 247 88 243 63 q 260 138 250 113 q 279 182 269 164 q 336 283 306 235 q 399 381 367 332 q 421 415 406 392 q 449 463 436 438 q 467 513 463 489 q 457 549 471 536 q 424 548 446 557 q 379 524 403 539 q 335 491 356 508 q 307 464 315 474 q 228 361 264 415 q 158 251 192 307 q 92 138 125 194 q 24 26 60 81 q -15 0 6 0 q -65 0 -35 0 q -87 0 -74 1 q -108 3 -100 -1 q -115 23 -119 8 q -102 55 -111 38 q -82 88 -93 72 q -67 110 -71 103 q 156 486 44 297 q 371 865 267 675 q 411 928 390 897 q 439 996 432 960 z "},"i":{"ha":267,"x_min":-67,"x_max":446,"o":"m 324 572 q 277 472 303 517 q 224 383 251 426 q 201 347 213 365 q 178 310 189 329 q 136 240 158 275 q 94 172 114 206 q 80 149 88 163 q 67 119 72 135 q 60 89 61 104 q 68 60 60 74 q 85 47 76 49 q 126 54 101 42 q 176 90 150 67 q 230 144 203 114 q 281 206 257 175 q 322 264 304 236 q 347 310 339 292 l 346 310 l 351 319 q 365 339 358 329 q 375 336 372 349 q 376 326 376 333 q 371 311 375 319 l 371 313 q 350 278 360 297 q 331 243 340 260 q 271 146 303 193 q 200 63 239 99 q 115 4 161 26 q 14 -18 69 -18 q -24 -10 -6 -18 q -53 19 -42 -3 q -67 72 -67 42 q -55 137 -67 104 q -32 194 -43 169 q 17 286 -8 243 q 71 369 43 329 q 110 435 90 401 q 149 501 129 468 q 162 531 158 518 q 169 558 165 544 q 170 564 169 561 q 171 569 171 567 q 176 585 174 576 q 182 597 178 593 q 222 606 197 604 q 264 607 247 607 q 292 606 276 607 q 322 608 308 606 q 322 606 322 606 q 324 603 322 606 q 326 588 325 596 q 324 572 326 581 m 304 797 q 312 832 304 814 q 332 865 319 850 q 360 888 344 879 q 393 899 376 897 q 423 894 411 900 q 440 876 435 888 q 446 849 446 864 q 440 821 446 835 q 401 773 429 794 q 347 751 374 751 q 320 763 332 751 q 304 797 308 774 z "},"j":{"ha":253,"x_min":-699,"x_max":444,"o":"m 171 485 q 188 527 181 503 q 199 572 194 551 q 206 588 201 583 q 222 599 211 592 q 251 604 229 603 q 299 606 274 606 q 348 605 325 606 q 379 604 371 604 q 281 428 331 526 q 176 225 231 329 q 58 18 121 121 q -77 -169 -4 -85 q -237 -313 -150 -254 q -428 -389 -324 -372 q -496 -395 -457 -393 q -572 -391 -535 -397 q -641 -368 -610 -385 q -685 -318 -672 -351 q -692 -256 -699 -287 q -656 -207 -685 -225 q -627 -199 -643 -200 q -597 -201 -611 -197 q -573 -216 -583 -206 q -560 -243 -562 -226 q -572 -290 -556 -268 q -586 -310 -581 -301 q -583 -332 -592 -318 q -536 -360 -568 -357 q -481 -360 -504 -364 q -347 -303 -406 -349 q -246 -199 -289 -257 q -133 -36 -186 -121 q -29 136 -79 49 q 69 312 21 224 q 171 485 118 400 m 294 788 q 302 824 294 806 q 323 857 310 842 q 353 882 336 872 q 388 893 369 892 q 419 888 406 894 q 438 868 432 881 q 444 840 444 856 q 439 808 444 824 q 409 768 431 788 q 364 742 388 749 q 320 743 340 735 q 294 788 300 751 z "},"k":{"ha":524,"x_min":-139,"x_max":676,"o":"m 407 961 q 421 989 414 976 q 431 1017 428 1001 q 433 1028 433 1026 q 433 1040 433 1029 q 468 1045 449 1043 q 503 1049 488 1047 q 519 1051 508 1049 q 540 1054 529 1053 q 561 1057 551 1056 q 578 1058 571 1058 q 576 995 589 1028 q 551 940 563 963 q 399 677 475 808 q 247 414 322 546 q 313 463 282 436 q 374 516 343 489 q 435 569 404 543 q 503 614 467 594 q 549 636 524 625 q 597 640 574 647 q 616 630 610 638 q 624 612 622 622 q 624 589 626 601 q 619 567 622 576 q 598 524 614 547 q 565 489 582 500 q 542 488 550 483 q 527 501 533 493 q 515 518 521 510 q 499 529 508 526 q 459 521 483 532 q 408 493 435 510 q 357 457 382 476 q 317 424 332 438 q 387 420 351 425 q 444 385 422 415 q 463 319 467 356 q 444 251 460 282 q 431 223 438 235 q 417 198 425 211 q 399 167 410 185 q 371 122 388 150 q 365 92 360 101 q 381 81 369 82 q 409 85 393 79 q 438 99 425 90 q 499 165 471 129 q 554 238 528 200 q 605 314 581 275 q 654 390 629 353 q 671 388 665 390 q 676 368 676 386 q 670 357 674 363 q 664 346 667 351 q 596 235 631 296 q 519 124 561 175 q 425 38 476 72 q 308 3 374 3 q 285 7 297 3 q 238 35 257 14 q 219 86 218 56 q 232 139 221 114 q 258 188 243 164 q 288 234 272 211 q 317 281 304 257 q 337 320 326 296 q 342 364 347 344 q 328 381 338 376 q 306 385 318 386 q 280 381 293 385 q 257 375 267 378 q 178 294 211 340 q 119 197 146 247 q 65 94 92 146 q 4 0 39 43 l -139 0 q 135 481 0 243 q 407 961 271 719 z "},"l":{"ha":256,"x_min":-29,"x_max":603,"o":"m 600 996 q 485 792 544 893 q 365 588 425 690 q 244 381 304 485 q 131 171 185 278 q 114 139 124 160 q 107 100 104 118 q 119 81 107 88 q 154 85 132 75 q 223 138 192 107 q 281 202 254 168 q 332 274 308 236 q 378 347 356 311 q 391 369 381 354 q 411 385 401 385 q 419 378 418 385 q 419 365 421 372 q 415 350 418 357 q 410 340 411 343 q 338 238 374 293 q 261 133 303 183 q 169 46 219 83 q 57 -4 119 8 q -11 20 7 -7 q -29 86 -29 47 q -17 166 -29 125 q 8 232 -4 207 q 101 399 50 318 q 200 563 151 479 q 315 756 258 660 q 429 951 372 853 q 438 970 435 961 q 443 989 442 979 q 443 1007 443 996 q 444 1025 443 1018 q 470 1029 450 1026 q 515 1035 490 1032 q 560 1040 539 1038 q 592 1043 582 1043 q 602 1021 603 1039 q 600 996 601 1003 z "},"m":{"ha":878,"x_min":-128,"x_max":993,"o":"m 161 510 q 170 535 167 519 q 178 565 174 550 q 189 590 182 579 q 208 604 196 601 l 331 604 q 333 554 339 578 q 317 510 328 531 q 394 573 356 540 q 482 617 432 606 q 519 619 500 621 q 553 608 538 617 q 578 585 568 600 q 590 550 589 571 q 588 526 590 542 q 593 504 586 510 q 608 510 597 501 q 629 531 618 519 q 650 553 640 542 q 663 567 660 564 q 703 594 681 581 q 749 615 725 607 q 799 625 774 624 q 847 617 824 626 q 878 594 867 608 q 894 562 889 579 q 897 525 899 544 q 892 488 896 506 q 789 299 847 388 q 682 114 731 210 q 681 82 676 94 q 708 72 685 69 q 754 94 732 75 q 793 128 776 113 q 866 206 832 164 q 931 294 900 249 q 949 322 938 307 q 975 349 960 338 q 989 346 985 350 q 992 334 993 342 q 988 319 992 326 q 982 306 985 311 q 922 224 954 263 q 857 147 889 185 q 786 70 824 107 q 700 11 749 33 q 659 -3 681 3 q 617 -8 638 -8 q 578 3 596 -7 q 549 33 560 13 q 538 75 538 53 q 545 120 539 97 q 562 165 551 143 q 581 204 572 186 q 642 308 610 257 q 704 413 674 360 q 722 442 708 421 q 744 486 735 463 q 753 528 753 510 q 735 551 754 547 q 708 547 722 553 q 681 532 694 542 q 655 511 667 522 q 635 492 643 500 q 559 399 593 450 q 494 296 525 347 l 310 0 l 179 0 q 264 150 222 75 q 349 301 306 225 q 389 374 368 338 q 431 447 410 411 q 442 466 435 456 q 454 488 449 476 q 463 510 460 499 q 461 531 465 521 q 440 547 454 546 q 409 538 426 547 q 373 514 392 529 q 338 483 354 499 q 310 455 321 468 q 294 438 299 442 q 198 304 242 374 q 113 163 154 235 q 64 81 88 122 q 17 0 40 40 l -128 0 q 19 253 -50 126 q 161 510 89 379 z "},"n":{"ha":586,"x_min":-118,"x_max":715,"o":"m 190 524 q 201 554 201 539 q 203 588 201 569 q 203 605 204 603 q 214 607 203 607 q 246 608 224 607 q 291 610 268 610 q 331 612 314 611 q 347 613 349 613 q 353 600 350 608 q 357 583 357 592 q 344 543 354 564 q 325 503 333 522 q 381 549 353 526 q 440 588 408 571 q 472 603 454 596 q 510 613 490 610 q 549 615 529 615 q 585 607 568 614 q 626 553 622 589 q 621 482 629 517 q 572 388 606 433 q 511 301 539 343 q 463 226 486 264 q 417 149 439 189 q 404 126 413 140 q 392 97 396 111 q 392 72 388 82 q 417 64 396 61 q 495 101 461 75 q 557 160 529 126 q 609 231 585 193 q 658 301 633 268 q 667 317 661 306 q 680 336 672 328 q 695 347 688 344 q 711 339 703 350 q 713 324 715 332 q 706 306 711 315 q 694 290 700 297 q 685 278 689 282 q 615 184 651 232 q 536 95 578 136 q 444 24 494 54 q 335 -15 394 -6 q 290 -6 310 -17 q 258 31 269 4 q 251 92 246 60 q 270 155 256 124 q 303 215 285 186 q 338 268 322 244 q 390 349 363 308 q 440 429 417 389 q 462 460 451 444 q 481 493 472 476 q 491 521 488 504 q 482 546 494 538 q 458 547 471 553 q 433 538 444 542 q 349 477 386 517 q 281 400 313 438 q 256 369 267 385 q 233 336 244 353 q 135 187 185 261 q 38 38 86 113 q 28 19 35 31 q 17 3 22 8 q -6 -1 10 -3 q -28 0 -21 1 q -88 0 -68 0 q -113 6 -108 0 q -110 29 -118 13 q -82 79 -101 46 q 41 275 -19 178 q 161 472 101 372 q 176 497 168 485 q 190 524 183 510 z "},"o":{"ha":490,"x_min":-57,"x_max":568,"o":"m 208 543 q 302 592 253 571 q 406 617 351 614 q 497 600 454 619 q 558 539 539 581 q 568 478 568 513 q 560 413 568 443 q 544 357 553 383 q 502 273 528 317 q 446 189 476 229 q 385 124 418 156 q 313 65 351 92 q 232 19 275 38 q 142 -6 189 0 q 49 4 96 -11 q -25 53 3 19 q -57 150 -57 100 q -53 190 -57 168 q -44 231 -50 211 q 53 403 -14 322 q 207 543 121 485 l 208 543 m 79 143 q 74 119 76 131 q 72 106 72 108 q 80 74 72 88 q 111 50 88 61 q 161 56 135 43 q 208 81 188 68 q 211 83 207 81 q 218 86 215 86 q 303 174 264 125 q 373 276 342 224 q 426 380 404 328 q 461 478 449 432 q 465 494 464 485 q 467 515 467 504 q 460 551 467 535 q 436 572 454 568 q 390 563 414 575 q 349 538 365 550 q 255 453 300 501 q 174 351 210 404 q 113 246 138 299 q 79 149 88 193 l 79 143 z "},"p":{"ha":560,"x_min":-696,"x_max":622,"o":"m 614 532 q 614 436 622 485 q 583 340 606 388 q 522 230 560 282 q 446 138 485 178 q 374 76 414 103 q 288 31 333 49 q 192 3 243 11 q 97 19 142 -4 q 64 40 74 35 q 38 24 54 46 q -43 -85 3 -26 q -143 -199 -89 -143 q -259 -303 -197 -256 q -387 -378 -321 -350 q -521 -408 -453 -406 q -657 -374 -589 -410 q -681 -348 -672 -365 q -693 -309 -690 -331 q -692 -266 -696 -287 q -678 -229 -689 -244 q -647 -207 -665 -212 q -610 -206 -628 -201 q -578 -224 -592 -210 q -567 -261 -565 -237 q -572 -278 -567 -271 q -583 -294 -578 -286 q -590 -312 -587 -303 q -589 -331 -593 -321 q -565 -351 -582 -346 q -532 -358 -547 -357 q -443 -344 -485 -362 q -365 -297 -401 -326 q -297 -231 -328 -267 q -239 -161 -265 -194 q -176 -77 -207 -121 q -115 8 -146 -33 q -60 92 -87 51 q -8 179 -33 133 q 44 270 17 224 q 100 363 72 317 q 153 451 124 406 q 201 543 182 497 q 210 570 208 557 q 214 603 211 583 q 232 603 217 603 q 267 606 247 604 q 307 608 286 607 q 343 608 328 608 q 348 597 347 601 q 349 589 349 593 q 346 551 351 571 q 333 514 340 531 q 406 574 368 543 q 492 615 444 604 q 569 599 536 622 q 614 532 603 576 m 288 117 q 322 162 294 125 q 382 249 349 199 q 447 355 415 299 q 494 457 478 411 q 505 532 511 503 q 456 557 499 561 q 416 543 435 554 q 380 517 397 532 q 347 484 363 501 q 319 453 332 467 q 211 301 258 381 q 162 223 188 263 q 117 142 136 183 q 107 84 104 114 q 146 44 110 54 q 186 44 167 39 q 224 60 206 49 q 258 88 242 72 q 288 117 275 103 z "},"q":{"ha":575,"x_min":-40,"x_max":690,"o":"m 603 607 q 624 608 611 607 q 651 609 638 608 q 676 610 665 610 q 690 610 688 611 q 688 599 689 604 q 683 589 686 593 q 392 101 536 344 q 93 -381 249 -142 q 83 -392 88 -386 q 71 -397 78 -397 q 17 -398 44 -399 q -40 -397 -11 -397 q -39 -383 -39 -390 q -36 -372 -39 -376 q 16 -281 -10 -326 q 68 -192 42 -236 q 130 -94 99 -143 q 192 4 161 -44 q 214 42 203 24 q 239 85 225 61 q 194 51 215 68 q 150 19 172 33 q 103 -3 128 6 q 50 -8 79 -11 q -1 24 19 -6 q -25 90 -21 54 q 31 303 -33 207 q 107 405 67 356 q 195 494 147 454 q 299 565 243 535 q 422 608 356 594 q 517 550 478 614 q 603 607 538 607 m 454 449 q 463 472 458 458 q 470 496 467 485 q 475 515 474 507 q 475 524 476 524 q 463 565 475 556 q 419 564 450 574 q 351 523 388 551 q 279 457 315 494 q 210 376 243 419 q 151 287 176 332 q 109 199 125 242 q 93 121 93 156 q 116 72 93 86 q 169 76 139 57 q 189 90 182 85 q 206 101 196 94 q 239 132 224 117 q 265 164 254 147 q 368 301 318 232 q 454 449 418 369 z "},"r":{"ha":386,"x_min":-222,"x_max":504,"o":"m 500 356 q 490 324 504 346 q 440 255 463 285 q 397 199 418 225 q 355 146 376 172 q 304 86 333 119 q 265 50 288 69 q 216 16 242 31 q 163 -3 190 1 q 111 3 136 -8 q 68 48 78 19 q 63 110 58 76 q 81 176 67 143 q 107 232 94 208 q 150 297 125 267 q 202 355 175 326 q 256 412 229 383 q 306 472 282 440 q 269 472 288 475 q 235 475 251 468 q 210 483 219 479 q 186 476 200 488 q 106 346 146 414 q 22 213 67 278 q -76 92 -24 149 q -196 -3 -129 36 q -218 6 -214 -6 q -214 31 -222 18 q -74 148 -136 81 q 39 292 -12 215 q 134 452 90 369 q 221 614 178 535 q 235 615 228 617 q 251 608 243 613 q 265 597 258 603 q 278 589 272 592 q 314 578 296 581 q 350 579 332 576 q 397 592 374 583 q 442 604 419 601 q 463 599 458 606 q 466 584 468 593 q 458 565 464 575 q 446 546 451 554 q 355 421 397 485 q 274 289 313 357 q 251 254 263 272 q 231 217 240 236 q 215 179 221 199 q 211 139 210 160 q 217 107 211 125 q 239 92 222 89 q 291 122 263 96 q 350 183 319 147 q 409 261 381 219 q 461 336 438 303 q 477 358 468 347 q 500 356 486 368 z "},"s":{"ha":358,"x_min":-236,"x_max":431,"o":"m 431 607 q 424 585 429 596 q 411 564 418 575 l 397 543 q 378 473 386 511 q 364 400 371 435 l 364 401 q 338 286 351 343 q 300 178 324 229 q 240 84 276 126 q 144 15 203 42 q 94 -2 121 4 q 40 -8 68 -8 q -26 4 4 -8 q -60 32 -47 14 q -74 69 -74 50 q -68 94 -74 82 q -50 118 -62 107 q -24 132 -42 125 q 6 132 -7 139 q 14 116 14 126 q 11 94 14 106 q 10 82 10 90 q 19 50 10 67 q 43 36 28 33 q 67 44 54 36 q 91 64 79 53 q 113 86 103 75 q 128 104 122 97 q 205 290 176 192 q 253 485 233 389 q 208 433 229 458 q 165 379 188 407 q 13 195 90 286 q -157 26 -65 104 q -180 10 -168 18 q -206 0 -192 3 q -228 5 -221 -4 q -232 32 -236 14 q -217 53 -228 46 q -193 67 -206 61 l -178 76 q -76 154 -125 110 q 18 249 -26 199 q 104 351 63 299 q 183 453 146 403 q 230 515 207 485 q 276 572 253 544 q 301 596 288 588 q 331 608 315 604 q 363 611 346 611 q 399 610 381 611 l 399 611 q 413 610 406 611 q 428 610 421 610 l 431 607 z "},"t":{"ha":319,"x_min":-56,"x_max":614,"o":"m 176 751 l 294 751 l 354 838 l 369 865 l 369 864 q 407 934 388 897 q 435 1003 426 971 q 436 1008 435 1006 q 438 1013 438 1010 q 444 1031 440 1021 q 454 1046 449 1040 q 488 1054 464 1051 q 538 1057 511 1057 q 590 1054 567 1057 q 611 1046 614 1051 q 597 1004 607 1029 q 569 944 588 979 q 520 862 550 910 q 447 751 490 814 l 539 751 l 539 703 l 421 703 q 327 559 376 636 q 233 403 278 482 q 151 251 188 325 q 96 117 114 178 q 109 67 86 81 q 164 65 132 54 q 210 96 183 72 q 267 153 236 119 q 328 224 297 186 q 388 299 360 263 q 438 365 417 335 q 471 410 460 394 q 475 415 474 413 q 478 419 476 418 q 486 413 483 419 q 460 360 481 394 q 410 285 440 326 q 340 197 379 243 q 257 111 301 151 q 165 39 213 71 q 71 -8 118 7 q -12 6 25 -15 q -54 75 -49 26 q -45 148 -56 110 q -6 242 -35 186 q 73 381 24 299 q 197 586 122 464 l 269 703 l 176 703 l 176 751 z "},"u":{"ha":519,"x_min":-57,"x_max":665,"o":"m 265 176 q 188 90 228 135 q 100 18 149 46 q 60 1 81 7 q 19 -4 39 -6 q -19 8 -1 -3 q -47 42 -36 18 q -56 89 -57 64 q -49 139 -56 114 q -32 188 -43 164 q -10 232 -21 211 q 55 340 22 285 q 119 449 88 394 q 142 491 132 469 q 163 538 153 513 q 165 552 164 543 q 168 570 167 561 q 172 588 169 579 q 181 600 175 596 q 200 601 185 600 q 235 602 215 601 q 276 603 256 603 q 308 603 296 603 q 314 593 314 600 q 314 582 314 586 q 305 530 315 557 q 282 482 294 503 q 219 369 253 424 q 156 261 189 314 q 90 154 122 208 q 73 115 82 139 q 79 75 64 90 q 102 67 89 65 q 128 76 115 69 q 152 93 142 83 q 169 110 163 103 q 250 201 214 150 q 319 301 286 253 q 387 410 356 354 q 442 524 418 465 q 459 565 449 543 q 476 599 469 588 q 533 603 499 600 q 590 606 567 606 l 618 606 q 614 586 617 596 q 609 567 611 578 q 603 550 607 557 q 544 442 578 494 q 479 338 511 390 q 419 232 447 286 q 376 118 392 178 q 390 78 372 83 q 431 93 407 74 q 543 213 493 146 q 638 349 593 279 q 656 353 646 356 q 663 336 665 351 q 560 188 615 260 q 439 53 506 117 q 374 12 408 28 q 304 4 340 -4 q 263 31 275 11 q 251 77 251 51 q 256 130 250 103 q 265 176 261 157 z "},"v":{"ha":447,"x_min":-31,"x_max":563,"o":"m 192 600 q 234 604 213 603 q 275 607 256 606 q 308 610 288 608 q 336 600 329 613 q 336 586 339 594 q 329 569 333 578 q 320 553 325 561 q 314 539 315 544 q 265 444 292 490 q 212 353 239 399 q 159 260 185 307 q 114 165 133 214 q 106 133 108 151 q 107 97 104 114 q 121 70 110 81 q 154 64 132 60 q 215 93 186 71 q 267 140 244 115 q 360 274 319 203 q 428 422 400 346 q 453 502 443 461 q 457 585 464 543 q 456 613 454 600 q 468 639 457 626 q 497 656 479 650 q 531 656 515 663 q 556 634 549 649 q 563 601 563 619 q 559 565 563 583 q 551 533 556 547 q 526 458 540 494 q 492 385 511 421 q 404 247 456 313 q 300 121 353 181 q 248 72 278 97 q 184 25 218 46 q 114 -6 150 4 q 43 -8 78 -17 q -16 33 -1 1 q -27 105 -31 65 q -9 185 -24 144 q 21 251 6 225 q 113 422 65 338 q 192 600 160 507 z "},"w":{"ha":710,"x_min":-60,"x_max":825,"o":"m 250 153 l 158 53 q 115 13 138 31 q 64 -11 93 -6 q 3 -12 28 -19 q -37 15 -22 -4 q -56 63 -51 35 q -53 124 -60 92 q -9 229 -37 179 q 51 328 19 279 q 113 426 82 376 q 164 529 143 475 q 172 560 168 542 q 188 588 176 578 q 215 597 199 596 q 243 600 232 597 q 273 606 257 603 q 303 607 289 608 q 326 597 321 607 q 328 574 331 588 q 321 547 326 561 q 311 521 315 532 q 258 415 289 465 q 195 315 228 365 q 133 214 163 265 q 83 107 103 163 q 88 69 72 82 q 128 72 103 57 q 233 183 185 124 q 324 308 282 243 q 402 441 365 372 q 472 578 439 510 q 490 599 479 596 q 521 606 501 603 q 558 612 538 608 q 593 614 578 615 q 615 598 611 611 q 613 565 618 585 q 595 524 607 546 q 571 480 583 501 q 547 441 558 458 q 532 417 536 424 q 467 307 500 363 q 406 196 433 251 q 386 143 394 171 q 378 90 378 115 q 404 58 381 61 q 451 65 428 54 q 499 98 476 78 q 540 142 521 118 q 576 192 560 167 q 607 239 593 217 q 668 351 640 292 q 711 468 696 410 q 718 525 719 499 q 713 551 717 540 q 711 575 710 563 q 721 602 713 589 q 741 624 729 615 q 767 636 753 633 q 794 633 781 639 q 816 614 810 626 q 824 586 822 601 q 822 555 825 571 q 817 525 819 539 q 797 458 810 489 q 767 396 785 428 q 688 263 731 325 q 593 142 646 200 q 498 47 550 90 q 378 -11 446 4 q 316 -12 346 -18 q 267 22 286 -6 q 249 85 247 50 q 250 153 250 121 z "},"x":{"ha":603,"x_min":-58,"x_max":697,"o":"m 213 142 q 192 119 201 131 q 172 97 182 107 q 131 48 150 74 q 85 7 111 22 q 36 -13 60 -10 q -15 -12 13 -17 q -47 10 -35 -8 q -58 47 -58 28 q -38 102 -58 75 q 10 136 -18 129 q 47 130 32 143 q 60 93 63 117 q 61 81 60 88 q 65 71 63 74 q 76 69 69 68 q 88 72 82 69 q 155 122 125 93 q 208 186 185 150 q 215 208 215 194 q 215 235 215 222 q 222 349 217 293 q 239 464 228 406 l 239 482 q 220 453 228 467 q 204 426 213 440 q 168 372 186 399 q 131 317 150 344 q 120 308 128 313 q 107 307 113 303 q 103 319 101 311 q 108 333 106 328 q 188 460 146 397 q 260 588 231 524 q 288 603 271 600 q 308 605 299 606 q 328 606 317 604 q 351 608 339 607 q 375 613 363 610 q 396 610 393 614 q 394 588 399 606 q 361 476 379 535 q 347 368 343 418 q 413 447 385 406 q 474 524 440 488 q 533 588 501 557 q 607 632 564 618 q 640 635 622 636 q 672 631 657 633 q 692 607 686 628 q 689 567 697 586 q 668 528 679 547 q 646 490 657 510 q 627 478 636 476 q 611 492 618 481 q 572 510 597 507 q 531 503 546 514 q 474 462 501 483 q 425 413 447 440 q 384 361 404 386 q 343 308 364 336 q 336 285 333 299 q 336 233 338 264 q 338 173 335 203 q 351 118 340 143 q 385 82 361 93 q 428 81 408 71 q 461 103 447 90 q 559 211 514 154 q 639 333 604 268 q 651 348 643 344 q 663 349 658 351 q 669 340 668 347 q 663 322 671 332 q 552 156 614 235 q 411 15 490 78 q 374 -1 396 3 q 328 0 351 -4 q 285 16 306 4 q 254 44 265 28 q 233 90 242 65 q 213 142 224 115 z "},"y":{"ha":507,"x_min":-397,"x_max":635,"o":"m 211 88 q 166 48 190 68 q 115 13 142 28 q 60 -11 89 -3 q 0 -12 31 -19 q -43 13 -29 -6 q -61 56 -57 32 q -61 107 -65 81 q -49 156 -57 133 q -1 251 -28 206 q 55 342 26 297 q 112 433 83 388 q 164 525 140 478 q 172 544 168 533 q 178 565 175 554 q 188 586 182 576 q 203 600 193 596 q 258 604 229 600 q 313 606 286 608 q 328 592 326 603 q 326 569 331 582 q 315 544 322 557 q 304 524 308 532 q 233 392 272 456 q 156 267 194 329 q 140 240 151 260 q 117 194 129 219 q 94 143 106 169 q 78 96 83 117 q 78 65 74 75 q 100 61 82 54 q 223 142 171 88 q 318 263 275 196 q 397 402 361 329 q 472 538 433 475 q 480 565 478 549 q 482 593 482 582 q 499 604 489 603 q 564 610 531 607 q 632 608 597 613 q 633 577 635 596 q 624 543 631 558 q 585 474 608 507 q 544 408 563 440 q 472 278 508 342 q 394 153 435 215 q 326 36 358 97 q 258 -84 293 -25 q 179 -197 222 -143 q 79 -290 136 -250 q -33 -357 26 -329 q -157 -393 -93 -385 q -219 -400 -183 -397 q -288 -397 -254 -403 q -350 -374 -322 -390 q -390 -324 -378 -357 q -388 -268 -397 -296 q -354 -225 -379 -240 q -302 -220 -331 -211 q -267 -260 -274 -229 q -270 -287 -264 -274 q -282 -312 -276 -300 q -287 -337 -287 -325 q -269 -360 -286 -349 q -240 -372 -257 -369 q -206 -374 -224 -375 q -172 -367 -189 -372 q -143 -357 -156 -362 q -26 -272 -78 -322 q 69 -162 26 -222 q 146 -39 111 -103 q 211 88 181 25 z "},"z":{"ha":510,"x_min":-97,"x_max":658,"o":"m 496 503 q 399 484 449 483 q 301 483 349 485 q 251 482 275 483 q 206 472 228 481 q 192 464 201 471 q 171 450 182 457 q 151 438 160 443 q 140 436 142 433 q 144 463 133 444 q 170 503 154 482 q 202 542 186 524 q 224 565 218 560 q 296 607 256 597 q 381 615 336 617 q 426 611 403 615 q 474 604 450 607 q 522 601 499 601 q 568 604 544 600 q 594 610 575 606 q 629 617 613 615 q 652 612 646 618 q 640 586 658 606 q 608 558 625 571 q 576 531 592 546 q 514 454 540 494 q 457 378 485 415 q 394 308 429 342 q 311 241 356 271 q 218 189 267 211 q 172 167 196 176 q 124 147 147 157 q 78 124 100 136 q 39 93 57 111 q 157 114 94 114 q 218 107 189 114 q 278 93 247 100 q 317 89 297 90 q 356 93 338 88 q 408 119 385 100 q 454 164 432 139 q 475 191 465 179 q 496 218 485 203 q 513 242 501 225 q 536 274 525 260 q 552 268 550 275 q 550 252 554 261 q 540 234 546 243 q 531 221 533 225 q 515 202 522 213 q 500 181 508 192 q 491 169 496 175 q 481 156 486 163 q 463 139 472 146 q 447 121 454 132 q 372 46 414 79 q 276 -3 331 13 q 215 -10 244 -11 q 156 -4 185 -10 q 97 7 126 1 q 36 15 67 13 q -12 10 7 17 q -56 -8 -32 4 q -87 -11 -76 -19 q -86 21 -97 -3 q -53 67 -72 44 q -17 113 -33 89 q 20 160 1 136 q 58 206 39 183 q 153 296 103 257 q 265 368 204 335 q 325 402 296 386 q 386 436 354 418 q 417 455 401 446 q 449 472 432 464 q 474 485 460 479 q 496 503 489 492 z "},"&":{"ha":875,"x_min":-74,"x_max":950,"o":"m 935 681 q 939 587 950 636 q 892 504 928 538 q 844 475 871 483 q 788 464 818 467 q 773 464 782 464 q 754 464 764 464 q 736 463 744 464 q 724 457 728 461 q 719 432 715 449 q 725 404 724 415 q 699 285 728 342 q 629 182 669 228 q 604 138 606 157 q 614 88 603 118 q 623 56 619 69 q 624 33 626 43 q 612 17 622 24 q 581 8 601 11 q 545 5 568 7 q 508 6 522 3 q 494 15 497 8 q 488 32 492 22 q 477 45 481 43 q 458 42 474 47 q 434 30 446 38 q 410 17 422 22 q 293 -24 351 -11 q 171 -35 235 -37 q 67 -10 114 -32 q -12 49 19 13 q -59 135 -44 86 q -67 243 -74 185 q -33 356 -60 301 q 35 454 -6 410 q 116 532 72 499 q 208 599 160 565 q 263 635 236 617 q 319 669 290 653 q 339 683 335 678 q 343 704 343 689 q 340 735 342 719 q 336 767 338 751 q 340 885 331 825 q 376 997 349 944 q 437 1078 400 1042 q 518 1136 474 1114 q 570 1152 542 1146 q 627 1157 599 1158 q 682 1146 656 1156 q 728 1115 708 1136 q 751 1073 746 1096 q 753 1026 756 1050 q 740 978 750 1001 q 718 933 731 954 q 648 853 689 889 q 564 789 607 818 q 541 776 554 783 q 515 761 528 769 q 493 743 503 753 q 479 721 483 733 q 481 664 472 697 q 496 607 490 631 q 500 572 499 590 q 508 539 501 554 q 511 527 511 532 q 512 522 511 522 q 517 525 513 521 q 535 538 522 529 q 580 565 558 553 q 629 585 601 578 q 685 592 657 592 q 740 592 713 593 q 796 591 768 590 q 850 599 824 592 q 892 621 882 606 q 899 668 903 636 q 897 685 899 676 q 901 699 894 693 q 924 700 915 710 q 935 681 932 690 m 447 88 q 463 122 468 101 q 453 161 457 142 q 441 210 446 185 q 431 261 436 236 q 408 355 419 308 q 385 449 397 401 q 376 492 381 471 q 368 538 372 514 q 364 578 365 553 q 354 615 363 603 q 334 621 347 625 q 307 607 321 617 q 280 585 293 597 q 261 569 267 574 q 168 458 208 514 q 107 332 128 403 q 91 262 96 300 q 90 188 86 224 q 110 119 94 151 q 158 67 126 88 q 229 40 192 46 q 305 38 267 33 q 380 55 343 42 q 447 88 417 68 m 467 806 q 476 792 468 790 q 496 801 485 793 q 517 821 507 810 q 532 836 528 832 q 570 878 553 856 q 600 925 588 900 q 620 965 610 942 q 635 1013 631 989 q 638 1060 640 1038 q 621 1100 636 1083 q 581 1119 601 1121 q 540 1104 560 1118 q 506 1069 521 1090 q 483 1031 490 1049 q 466 979 471 1007 q 460 922 461 951 q 461 862 458 892 q 467 806 464 832 m 590 260 q 614 328 610 290 q 614 400 618 367 q 606 423 613 410 q 590 447 600 436 q 569 465 581 458 q 543 468 557 471 q 529 449 531 464 q 532 415 528 433 q 542 378 536 396 q 550 351 547 360 q 567 276 560 315 q 574 255 569 265 q 590 260 579 244 z "},"$":{"ha":542,"x_min":-72,"x_max":613,"o":"m 496 669 q 473 690 468 676 q 489 722 478 704 q 507 774 504 749 q 489 822 510 800 q 447 845 471 842 q 401 841 424 849 q 358 817 378 833 q 326 783 339 801 q 307 730 310 757 q 310 675 304 703 q 328 619 317 647 q 353 567 340 592 q 377 517 365 542 q 396 465 389 492 q 403 412 403 439 q 393 357 403 385 q 337 267 376 306 q 250 206 297 229 q 203 188 226 194 q 156 175 179 181 q 130 171 140 172 q 112 165 119 169 q 98 154 104 161 q 86 135 92 147 q 67 97 82 126 q 35 40 53 68 q -1 -1 18 13 q -36 7 -21 -15 q -36 29 -40 15 q -24 59 -32 43 q -6 89 -15 75 q 7 110 3 103 q 19 126 13 117 q 31 147 26 136 q 37 167 36 157 q 29 183 38 176 q -4 206 14 199 q -37 229 -22 213 q -60 263 -53 244 q -68 301 -67 282 q -58 376 -72 338 q -7 431 -43 415 q 38 438 15 440 q 77 422 61 435 q 97 389 93 410 q 88 343 101 368 q 74 328 82 332 q 57 322 65 325 q 41 313 49 318 q 29 296 33 308 q 32 251 22 272 q 65 218 42 229 q 119 211 92 207 q 173 229 147 215 q 220 264 199 243 q 257 307 242 285 q 273 363 274 335 q 263 417 272 390 q 238 468 253 443 q 213 517 224 493 q 185 613 189 563 q 195 708 181 663 q 242 792 210 754 q 319 851 274 831 q 378 869 347 864 q 439 885 408 875 q 478 913 464 892 q 503 954 492 933 q 526 1005 513 978 q 567 1038 539 1032 q 594 1034 589 1042 q 596 1014 600 1026 q 583 988 592 1001 q 571 965 575 974 q 558 943 567 956 q 542 917 549 931 q 534 892 535 904 q 544 871 533 879 q 584 841 567 854 q 608 794 601 828 q 606 744 613 768 q 583 703 599 721 q 544 676 567 686 q 496 669 522 667 z "},"":{"ha":510,"x_min":-74,"x_max":585,"o":"m 460 686 q 464 736 461 710 q 454 785 467 763 q 415 802 439 808 q 372 781 392 796 q 296 705 328 749 q 232 615 264 661 q 194 558 214 588 q 156 497 174 528 q 126 432 139 465 q 110 364 114 399 q 119 310 107 335 q 161 276 131 285 q 213 275 188 268 q 263 297 239 282 q 306 333 286 313 q 343 371 326 353 q 359 393 346 375 q 388 428 372 411 q 419 457 403 446 q 444 458 435 468 q 442 425 454 447 q 409 379 429 403 q 369 336 389 356 q 343 310 349 317 q 247 239 297 268 q 133 204 196 210 q 92 192 106 201 q 65 156 78 182 q 43 107 54 132 q 19 58 32 82 q -1 23 11 39 q -32 0 -12 7 q -65 6 -56 -7 q -64 40 -74 18 q -43 77 -56 60 q -19 111 -31 94 q -4 134 -14 121 q 14 161 6 147 q 26 189 22 175 q 26 214 31 203 q 3 245 21 232 q -25 274 -14 258 q -40 328 -37 299 q -39 385 -42 357 q -6 504 -33 447 q 58 610 22 561 q 139 701 94 658 q 235 778 183 743 q 287 808 261 796 q 343 831 313 819 q 397 855 372 842 q 440 896 421 868 q 472 951 460 921 q 500 1010 485 982 q 512 1029 508 1024 q 531 1038 515 1035 q 551 1040 536 1039 q 569 1038 565 1042 q 574 1007 585 1029 q 547 959 564 985 q 512 910 529 933 q 496 875 494 886 q 506 860 497 865 q 526 850 515 854 q 549 841 538 846 q 565 829 560 836 q 576 778 583 807 q 558 725 569 749 q 535 685 547 704 q 500 658 522 667 q 466 657 481 651 q 460 686 451 663 z "},"@":{"ha":931,"x_min":-69,"x_max":1000,"o":"m 275 410 q 405 533 343 489 q 519 594 467 578 q 613 601 572 610 q 681 563 654 592 q 756 603 718 603 l 799 603 q 823 587 818 603 q 810 544 828 571 q 782 504 804 538 q 733 426 760 471 q 677 331 706 381 q 626 240 649 282 q 594 165 599 189 q 603 139 589 142 q 667 166 629 135 q 744 251 706 197 q 818 374 783 304 q 875 516 853 444 q 901 656 897 588 q 885 774 906 725 q 785 867 851 846 q 631 865 718 888 q 449 777 544 843 q 268 610 354 711 q 126 399 183 510 q 43 187 69 289 q 24 -3 17 85 q 71 -147 31 -92 q 221 -223 124 -221 q 431 -158 318 -225 q 479 -143 456 -144 q 515 -149 503 -142 q 524 -172 528 -157 q 493 -210 519 -187 q 342 -294 415 -264 q 202 -329 268 -325 q 83 -311 136 -333 q -7 -240 29 -289 q -63 -68 -57 -172 q -37 158 -69 36 q 61 410 -6 281 q 231 661 128 540 q 440 856 332 781 q 648 959 549 932 q 830 963 747 986 q 961 867 913 940 q 999 731 999 813 q 974 557 1000 649 q 899 372 947 465 q 792 201 851 279 q 667 68 733 122 q 539 1 601 14 q 480 4 503 -6 q 447 38 457 14 q 440 95 438 61 q 456 169 442 129 q 398 110 429 140 q 334 55 367 79 q 269 14 301 31 q 207 -3 236 -3 q 144 29 167 -3 q 126 117 121 61 q 167 248 132 174 q 275 410 201 322 m 300 110 q 353 146 329 122 q 397 194 378 169 q 465 285 433 239 q 524 381 497 331 q 549 426 538 404 q 569 471 561 447 q 576 501 574 483 q 569 532 579 518 q 537 544 557 549 q 503 532 517 539 q 432 470 464 510 q 375 396 400 431 q 346 353 358 375 q 319 311 333 332 q 293 268 307 290 q 269 225 279 246 q 258 201 265 214 q 247 176 251 189 q 240 149 242 163 q 244 126 239 136 q 267 103 253 106 q 300 110 282 101 z "},";":{"ha":425,"x_min":56,"x_max":357,"o":"m 246 44 q 211 -26 235 1 q 139 -83 188 -53 q 100 -102 121 -96 q 67 -106 79 -108 q 60 -103 63 -104 q 57 -93 56 -97 q 67 -85 58 -85 q 89 -81 76 -85 q 121 -64 100 -75 q 146 -39 142 -53 q 142 -18 149 -25 q 112 16 124 -4 q 107 60 100 36 q 144 110 114 92 q 204 121 174 129 q 239 92 225 115 q 246 44 253 69 m 215 325 q 217 361 213 342 q 231 398 221 381 q 255 428 240 415 q 288 447 269 442 q 319 447 306 453 q 342 431 333 442 q 353 403 350 419 q 353 371 357 388 q 331 326 349 349 q 291 292 313 304 q 249 286 269 281 q 215 325 228 292 z "},"(":{"ha":419,"x_min":-69,"x_max":489,"o":"m 489 1153 q 455 1113 489 1135 q 368 1053 421 1092 q 251 951 315 1014 q 126 785 186 888 q 61 648 88 718 q 22 506 35 578 q 9 363 8 433 q 26 228 10 292 q 61 147 38 183 q 108 83 85 111 q 149 36 131 56 q 167 10 167 17 q 154 -10 167 -10 q 121 5 142 -10 q 76 46 100 19 q 26 111 51 72 q -22 198 0 150 q -56 303 -43 246 q -69 424 -69 360 q -33 651 -69 553 q 81 843 4 750 q 215 985 149 925 q 336 1084 282 1044 q 426 1143 390 1124 q 467 1163 461 1163 q 483 1163 476 1163 q 489 1153 489 1163 z "},")":{"ha":419,"x_min":-69,"x_max":489,"o":"m 489 739 q 479 619 489 675 q 451 512 469 563 q 405 414 433 461 q 338 321 376 367 q 203 178 269 239 q 83 79 136 118 q -6 22 29 40 q -46 3 -40 3 q -63 3 -57 3 q -69 11 -69 3 q -36 51 -69 31 q 51 110 -3 72 q 168 212 104 149 q 293 378 232 275 q 358 515 331 444 q 397 658 385 586 q 409 801 410 731 q 392 936 408 871 q 358 1017 382 981 q 311 1081 335 1053 q 270 1127 288 1108 q 253 1156 253 1146 q 265 1174 253 1174 q 297 1159 276 1174 q 343 1118 318 1144 q 394 1053 368 1092 q 440 966 419 1014 q 475 860 461 918 q 489 739 489 803 z "},":":{"ha":481,"x_min":56,"x_max":308,"o":"m 167 325 q 168 361 164 342 q 182 398 172 381 q 206 428 192 415 q 239 447 221 442 q 271 447 257 453 q 293 431 285 442 q 305 403 301 419 q 304 371 308 388 q 282 326 300 349 q 242 292 264 304 q 200 286 221 281 q 167 325 179 292 m 58 1 q 60 38 56 18 q 73 74 64 57 q 97 105 82 92 q 129 122 111 118 q 161 123 147 128 q 183 106 175 118 q 195 79 192 94 q 196 47 199 64 q 174 3 192 25 q 134 -31 156 -19 q 92 -37 113 -43 q 58 1 71 -32 m 167 325 q 168 361 164 342 q 182 398 172 381 q 206 428 192 415 q 239 447 221 442 q 271 447 257 453 q 293 431 285 442 q 305 403 301 419 q 304 371 308 388 q 282 326 300 349 q 242 292 264 304 q 200 286 221 281 q 167 325 179 292 z "},"-":{"ha":783,"x_min":176,"x_max":572,"o":"m 203 317 q 184 322 192 317 q 176 335 176 328 l 176 357 q 184 369 176 364 q 203 375 192 375 l 544 375 q 564 369 556 375 q 572 357 572 364 l 572 335 q 564 322 572 328 q 544 317 556 317 l 203 317 z "},"+":{"ha":858,"x_min":114,"x_max":671,"o":"m 424 375 l 644 375 q 663 369 656 375 q 671 357 671 364 l 671 335 q 663 322 671 328 q 644 317 656 317 l 424 317 l 424 92 q 418 73 424 81 q 406 65 413 65 l 385 65 q 372 73 378 65 q 365 92 365 81 l 365 317 l 140 317 q 122 322 129 317 q 114 335 114 328 l 114 357 q 122 369 114 364 q 140 375 129 375 l 365 375 l 365 596 q 372 615 365 607 q 385 622 378 622 l 406 622 q 418 615 413 622 q 424 596 424 607 l 424 375 z "},"":{"ha":490,"x_min":-69,"x_max":560,"o":"m 421 865 q 439 868 431 868 q 456 869 447 868 q 496 865 476 868 q 530 856 515 863 q 552 835 544 849 q 560 801 560 822 q 553 754 560 781 q 535 706 547 728 q 507 668 524 683 q 469 653 490 653 q 445 666 450 653 q 440 694 440 679 q 441 725 440 711 q 442 753 442 739 q 431 788 442 776 q 403 800 419 800 q 357 789 378 800 q 319 760 336 778 q 288 720 301 742 q 261 678 274 699 q 256 664 256 669 q 264 653 256 657 q 275 647 272 649 q 340 617 307 629 q 404 589 372 604 q 423 567 418 582 q 424 539 428 553 q 409 515 419 525 q 382 507 399 504 q 303 541 342 515 q 224 579 264 567 q 210 567 214 579 q 200 546 206 556 q 247 523 219 532 q 299 503 274 514 q 335 484 324 493 q 351 468 347 475 q 360 445 360 457 q 353 423 360 433 q 337 406 347 413 q 314 403 326 400 q 239 431 274 410 q 165 467 204 453 q 142 406 154 439 q 129 342 129 372 q 133 315 129 329 q 146 290 138 301 q 167 270 154 278 q 197 263 179 263 q 221 269 211 263 q 240 284 231 276 q 260 299 249 292 q 289 306 272 306 q 313 299 303 306 q 324 276 324 293 q 305 233 324 254 q 259 194 286 211 q 201 166 232 176 q 147 156 169 156 q 66 171 100 156 q 11 213 32 186 q -19 274 -10 239 q -28 350 -28 308 q -15 449 -28 404 q 17 531 -1 493 q 8 534 17 531 q -12 543 -1 538 q -34 553 -24 549 q -46 558 -44 558 q -63 576 -57 565 q -69 600 -69 586 q -55 632 -69 621 q -28 643 -40 643 q -4 639 -17 643 q 19 628 8 635 q 42 617 31 622 q 63 608 53 611 q 69 613 65 608 q 75 623 72 618 q 79 632 78 628 q 81 635 81 636 q 67 647 81 642 q 39 660 54 653 q 10 676 24 667 q -4 703 -4 686 q 8 734 -4 718 q 40 750 21 750 q 65 745 51 750 q 93 733 79 740 q 121 719 107 726 q 147 710 135 713 q 264 803 199 760 q 421 865 329 847 z "},"\"":{"ha":140,"x_min":-69,"x_max":210,"o":"m 10 961 q -12 889 1 922 q -40 815 -25 856 q -56 806 -46 806 q -69 815 -65 806 l -69 832 q -68 842 -69 836 q -68 857 -67 847 q -62 905 -65 882 q -56 956 -60 928 q -53 992 -54 974 q -50 1028 -51 1010 l -49 1068 q -44 1104 -50 1085 q -32 1126 -39 1115 q -11 1138 -25 1138 q 12 1128 4 1139 q 28 1106 19 1118 q 31 1069 32 1086 q 26 1032 31 1051 l 10 961 m 188 961 q 165 890 178 924 q 136 817 151 857 q 121 807 129 807 q 107 817 113 807 l 107 833 q 108 842 107 836 q 108 857 110 849 q 113 906 111 883 q 121 957 115 929 q 124 993 122 975 q 126 1029 126 1011 l 128 1069 q 133 1106 126 1086 q 144 1128 138 1117 q 167 1139 151 1139 q 190 1130 182 1140 q 204 1107 197 1119 q 208 1070 210 1088 q 203 1033 207 1053 l 188 961 z "},"*":{"ha":728,"x_min":239,"x_max":797,"o":"m 489 819 l 360 690 q 343 681 353 683 q 329 685 333 679 l 313 701 q 310 715 308 706 q 319 732 311 725 l 446 857 l 267 858 q 248 863 256 857 q 240 878 240 869 l 239 899 q 248 911 240 906 q 267 917 256 917 l 447 917 l 319 1044 q 310 1061 311 1051 q 314 1076 308 1071 l 329 1093 q 344 1095 335 1097 q 360 1086 353 1093 l 488 958 l 488 1142 q 493 1160 489 1153 q 504 1168 497 1168 l 528 1168 q 540 1160 535 1168 q 546 1142 546 1153 l 546 960 l 676 1089 q 692 1097 683 1096 q 706 1094 701 1099 l 722 1079 q 726 1065 728 1074 q 718 1047 725 1056 l 586 917 l 772 917 q 790 911 783 917 q 797 899 797 906 l 797 878 q 790 864 797 869 q 772 857 783 858 l 588 857 l 718 729 q 724 697 733 710 l 707 683 q 692 679 701 678 q 676 688 683 681 l 546 817 l 546 636 q 540 618 546 626 q 528 611 535 610 l 504 611 q 492 618 497 611 q 489 636 488 625 l 489 819 z "},".":{"ha":275,"x_min":17,"x_max":161,"o":"m 19 1 q 21 38 17 18 q 35 74 25 57 q 59 105 44 92 q 92 122 74 118 q 124 123 110 128 q 146 106 138 118 q 158 79 154 94 q 157 47 161 64 q 135 3 153 25 q 95 -31 117 -19 q 53 -37 74 -43 q 19 1 32 -32 z "},",":{"ha":58,"x_min":-69,"x_max":128,"o":"m 121 44 q 86 -26 110 1 q 14 -83 63 -53 q -25 -102 -4 -96 q -58 -106 -46 -108 q -65 -103 -62 -104 q -68 -93 -69 -97 q -58 -85 -67 -85 q -36 -81 -49 -85 q -4 -64 -25 -75 q 21 -39 17 -53 q 17 -18 24 -25 q -13 16 -1 -4 q -18 60 -25 36 q 19 110 -11 92 q 79 121 49 129 q 114 92 100 115 q 121 44 128 69 z "},"|":{"ha":90942,"x_min":-69,"x_max":-11,"o":"m -11 24 q -17 5 -11 13 q -29 -1 -22 -3 l -51 -3 q -64 5 -58 -3 q -69 24 -69 13 l -68 1129 q -64 1149 -69 1140 q -51 1156 -58 1157 l -29 1157 q -17 1148 -22 1156 q -11 1129 -11 1140 l -11 24 z "},"=":{"ha":857,"x_min":151,"x_max":708,"o":"m 176 167 q 158 172 165 167 q 151 183 151 176 l 151 206 q 158 219 151 213 q 176 225 165 225 l 682 225 q 701 219 693 225 q 708 206 708 213 l 708 183 q 701 172 708 176 q 682 167 693 167 l 176 167 m 176 444 q 158 449 165 444 q 151 461 151 454 l 151 483 q 158 497 151 490 q 176 503 165 503 l 682 503 q 701 497 693 503 q 708 483 708 490 l 708 461 q 701 449 708 454 q 682 444 693 444 l 176 444 z "},"_":{"ha":579,"x_min":-69,"x_max":649,"o":"m -44 -1 q -62 4 -56 -1 q -69 17 -69 10 l -69 38 q -62 51 -69 44 q -44 57 -56 57 l 622 57 q 641 51 633 57 q 649 38 649 44 l 649 17 q 641 4 649 10 q 622 -1 633 -1 l -44 -1 z "},"":{"ha":981,"x_min":176,"x_max":768,"o":"m 203 317 q 184 322 192 317 q 176 335 176 328 l 176 357 q 184 369 176 364 q 203 375 192 375 l 742 375 q 760 369 753 375 q 768 357 768 364 l 768 335 q 760 322 768 328 q 742 317 753 317 l 203 317 z "},"":{"ha":1281,"x_min":176,"x_max":1069,"o":"m 203 317 q 184 322 192 317 q 176 335 176 328 l 176 357 q 184 369 176 364 q 203 375 192 375 l 1043 375 q 1062 369 1054 375 q 1069 357 1069 364 l 1069 335 q 1062 322 1069 328 q 1043 317 1054 317 l 203 317 z "},"":{"ha":760,"x_min":-69,"x_max":831,"o":"m -67 1 q -65 38 -69 18 q -52 74 -61 57 q -28 105 -43 92 q 4 122 -14 118 q 36 123 22 128 q 58 106 50 118 q 70 79 67 94 q 71 47 74 64 q 49 3 67 25 q 9 -31 31 -19 q -33 -37 -12 -43 q -67 1 -54 -32 m 322 1 q 324 38 319 18 q 338 74 328 57 q 362 105 347 92 q 394 122 376 118 q 426 123 413 128 q 449 106 440 118 q 460 79 457 94 q 461 47 464 64 q 438 3 456 25 q 399 -31 421 -19 q 356 -37 378 -43 q 322 1 335 -32 m 690 1 q 692 38 688 18 q 705 74 696 57 q 728 105 714 92 q 761 122 743 118 q 793 123 779 128 q 815 106 807 118 q 827 79 824 94 q 828 47 831 64 q 806 3 824 25 q 766 -31 788 -19 q 724 -37 744 -43 q 690 1 703 -32 z "},"":{"ha":418,"x_min":-69,"x_max":488,"o":"m 190 460 q 192 496 188 476 q 206 533 196 515 q 230 563 215 550 q 263 582 244 576 q 294 582 281 588 q 317 565 308 576 q 328 538 325 554 q 328 506 332 522 q 306 461 324 483 q 266 427 288 439 q 224 421 244 415 q 190 460 203 426 m 82 136 q 83 172 79 153 q 97 209 88 192 q 120 240 106 226 q 153 257 135 253 q 185 258 171 263 q 207 241 199 253 q 219 214 215 229 q 219 182 222 199 q 197 138 215 160 q 158 103 179 115 q 115 97 136 92 q 82 136 94 103 m 190 460 q 192 496 188 476 q 206 533 196 515 q 230 563 215 550 q 263 582 244 576 q 294 582 281 588 q 317 565 308 576 q 328 538 325 554 q 328 506 332 522 q 306 461 324 483 q 266 427 288 439 q 224 421 244 415 q 190 460 203 426 m -43 317 q -62 322 -54 317 q -69 335 -69 328 l -69 357 q -62 369 -69 364 q -43 375 -54 375 l 461 375 q 480 369 472 375 q 488 357 488 364 l 488 335 q 480 322 488 328 q 461 317 472 317 l -43 317 z "},"?":{"ha":1079,"x_min":249,"x_max":1150,"o":"m 913 1054 q 945 1051 928 1051 q 982 1046 963 1050 q 1066 1015 1031 1038 q 1122 960 1101 993 q 1146 885 1142 928 q 1138 796 1150 843 q 1068 672 1117 722 q 954 589 1019 621 q 810 527 883 554 q 665 468 738 500 q 586 431 625 451 q 510 386 547 410 q 463 344 482 369 q 428 288 443 319 q 418 275 425 282 q 404 271 411 268 q 397 285 397 274 q 399 301 396 296 q 465 397 425 356 q 556 469 506 438 q 697 560 626 517 q 839 653 768 604 q 940 742 897 692 q 1003 861 983 792 q 1008 887 1006 874 q 1010 914 1010 900 q 987 989 1013 960 q 913 1024 961 1018 q 792 1007 846 1031 q 689 942 738 983 q 610 860 644 904 q 565 753 576 815 q 607 683 557 701 q 614 646 644 669 q 564 625 590 626 q 511 632 538 624 q 472 662 483 642 q 458 710 461 682 q 474 802 454 761 q 525 879 493 843 q 698 1006 601 965 q 913 1054 794 1047 m 251 1 q 253 38 249 18 q 266 74 257 57 q 290 105 275 92 q 322 122 304 118 q 354 123 340 128 q 377 106 368 118 q 390 79 386 94 q 389 47 393 64 q 367 3 385 25 q 327 -31 349 -19 q 285 -37 306 -43 q 251 1 264 -32 z "},"!":{"ha":717,"x_min":46,"x_max":788,"o":"m 207 247 q 207 269 200 258 q 265 380 232 324 q 334 494 299 436 q 405 612 369 553 q 469 729 440 671 q 549 873 508 804 q 651 1003 590 942 q 675 1022 663 1013 q 701 1038 688 1032 q 730 1046 715 1044 q 758 1042 744 1047 q 782 1015 776 1032 q 785 978 788 999 q 776 939 783 958 q 763 906 769 919 q 686 777 726 838 q 593 663 646 717 q 426 472 504 574 q 260 267 347 369 q 258 264 260 264 q 257 261 257 264 q 238 246 246 250 q 224 242 231 242 q 214 244 218 242 q 207 247 210 246 m 49 24 q 50 61 46 42 q 64 98 54 81 q 88 128 74 115 q 121 146 103 142 q 153 147 139 151 q 175 130 167 142 q 187 103 183 118 q 186 71 190 88 q 164 26 182 49 q 124 -8 146 3 q 82 -15 103 -19 q 49 24 61 -10 z "},"/":{"ha":822,"x_min":-72,"x_max":897,"o":"m -35 -11 q -65 1 -56 -8 q -70 23 -72 8 q -61 47 -68 38 q 123 286 22 174 q 324 504 224 399 q 453 642 389 572 q 578 785 518 713 q 692 937 639 858 q 789 1103 746 1015 q 822 1140 804 1126 q 863 1156 839 1154 q 890 1147 882 1157 q 886 1118 897 1136 q 678 828 794 968 q 446 556 563 689 q 226 298 335 428 q 32 36 117 168 l 33 38 q 14 7 25 19 q -19 -12 3 -6 l -35 -11 z "},"\\":{"ha":822,"x_min":-75,"x_max":894,"o":"m 843 -12 q 809 7 819 -6 q 789 38 799 19 l 790 36 q 597 298 706 168 q 378 556 488 428 q 144 828 260 690 q -64 1118 28 967 q -67 1147 -75 1136 q -39 1156 -58 1157 q 1 1140 -15 1154 q 33 1103 18 1126 q 130 937 76 1015 q 244 785 183 858 q 369 642 304 713 q 499 504 433 572 q 701 286 600 399 q 885 47 801 174 q 892 23 890 38 q 888 1 894 8 q 857 -11 876 -10 l 843 -12 z "},"%":{"ha":1039,"x_min":-69,"x_max":1115,"o":"m 75 -12 q 109 7 99 -6 q 128 38 119 19 l 128 36 q 320 298 211 168 q 540 556 429 428 q 774 828 658 690 q 982 1118 889 967 q 985 1147 993 1136 q 957 1156 976 1157 q 917 1140 933 1154 q 885 1103 900 1126 q 787 937 840 1015 q 674 785 733 858 q 549 642 614 713 q 419 504 485 572 q 217 286 318 399 q 33 47 117 174 q 25 23 26 38 q 31 1 24 8 q 60 -11 39 -8 l 75 -12 m 179 1075 q 265 1129 219 1106 q 363 1156 311 1153 q 442 1140 406 1158 q 494 1079 478 1121 q 503 982 513 1032 q 481 885 494 932 q 442 790 465 836 q 389 700 418 743 q 333 629 364 664 q 267 566 303 594 q 192 517 232 538 q 106 492 151 497 q 23 500 64 486 q -42 550 -18 514 q -69 641 -69 590 q -57 738 -69 692 q 32 925 -32 840 q 179 1075 96 1010 m 38 663 q 33 626 36 646 q 33 585 31 606 q 44 550 35 565 q 74 529 53 535 q 134 536 104 519 q 188 572 164 553 q 290 698 250 625 q 365 843 331 771 q 401 926 385 883 q 426 1013 417 968 q 431 1044 429 1026 q 431 1080 433 1063 q 420 1111 429 1097 q 393 1129 411 1125 q 342 1120 368 1135 q 299 1092 317 1106 q 225 1018 258 1058 q 167 940 193 981 q 117 857 140 899 q 71 762 89 811 q 38 663 53 713 m 782 589 q 868 643 822 619 q 965 669 914 667 q 1044 653 1008 672 q 1097 593 1081 635 q 1106 496 1115 546 q 1083 399 1097 446 q 1044 303 1068 350 q 992 214 1021 257 q 936 143 967 178 q 870 80 906 108 q 794 31 835 51 q 708 6 754 11 q 626 14 667 0 q 561 64 585 28 q 534 155 533 104 q 546 251 535 206 q 635 439 571 354 q 782 589 699 524 m 640 176 q 636 140 639 160 q 635 99 633 119 q 647 64 638 79 q 676 43 656 49 q 738 50 708 33 q 790 86 767 67 q 893 212 853 139 q 968 357 933 285 q 1003 440 988 397 q 1031 526 1019 482 q 1035 558 1033 540 q 1034 594 1036 576 q 1023 625 1032 611 q 996 643 1014 639 q 945 634 971 649 q 901 606 919 619 q 829 532 860 569 q 771 453 797 494 q 719 371 744 413 q 674 276 692 325 q 640 176 656 226 z "},"":{"ha":1267,"x_min":-72,"x_max":1342,"o":"m -35 -11 q -65 1 -56 -8 q -70 23 -72 8 q -61 47 -68 38 q 123 286 22 174 q 324 504 224 399 q 453 642 389 572 q 578 785 518 713 q 692 937 639 858 q 789 1103 746 1015 q 822 1140 804 1126 q 863 1156 839 1154 q 890 1147 882 1157 q 886 1118 897 1136 q 678 828 794 968 q 446 556 563 689 q 226 298 335 428 q 32 36 117 168 l 33 38 q 14 7 25 19 q -19 -12 3 -6 l -35 -11 m 1056 506 q 1128 551 1089 532 q 1213 574 1168 571 q 1281 561 1249 576 q 1326 510 1313 546 q 1334 426 1342 469 q 1315 343 1326 382 q 1281 260 1301 300 q 1236 183 1261 219 q 1188 123 1214 153 q 1132 68 1163 93 q 1067 26 1101 43 q 993 4 1032 8 q 922 13 957 0 q 867 54 888 25 q 842 132 843 89 q 853 215 842 175 q 930 376 875 303 q 1056 506 985 450 m 933 150 q 930 119 932 136 q 930 85 928 101 q 940 56 932 69 q 965 38 947 43 q 1017 43 992 29 q 1063 72 1043 57 q 1151 181 1117 118 q 1217 307 1186 244 q 1247 376 1232 340 q 1268 451 1261 413 q 1272 478 1271 463 q 1272 509 1274 494 q 1262 535 1269 524 q 1239 551 1254 547 q 1196 544 1218 557 q 1158 519 1174 531 q 1096 457 1122 490 q 1046 389 1068 425 q 1003 317 1024 353 q 963 237 979 279 q 933 150 947 194 m 569 506 q 642 551 603 532 q 726 574 682 571 q 794 561 763 576 q 840 510 826 546 q 848 426 856 469 q 829 343 840 382 q 795 260 815 300 q 750 183 775 219 q 702 123 728 153 q 646 68 676 93 q 581 26 615 43 q 507 4 546 8 q 436 13 471 0 q 381 54 401 25 q 356 132 357 89 q 367 215 356 175 q 444 376 389 303 q 569 506 499 450 m 447 150 q 444 119 446 136 q 444 85 442 101 q 453 56 446 69 q 479 38 461 43 q 531 43 506 29 q 576 72 557 57 q 665 181 631 118 q 731 307 700 244 q 760 376 746 340 q 782 451 775 413 q 786 478 785 463 q 785 509 788 494 q 776 535 783 524 q 753 551 768 547 q 710 544 732 557 q 672 519 688 531 q 610 457 636 490 q 560 389 582 425 q 517 317 538 353 q 477 237 493 279 q 447 150 461 194 m 211 1085 q 284 1131 244 1111 q 368 1153 324 1150 q 435 1140 404 1156 q 482 1088 467 1124 q 489 1004 497 1047 q 469 921 481 961 q 437 838 457 878 q 392 763 417 799 q 344 702 369 732 q 288 647 318 672 q 222 605 257 622 q 149 583 188 588 q 78 591 113 579 q 22 633 43 603 q -2 711 -1 668 q 8 794 -3 754 q 85 955 31 882 q 211 1085 140 1028 m 89 729 q 85 698 88 715 q 85 664 83 681 q 95 634 88 647 q 121 615 103 621 q 173 622 147 608 q 218 651 199 635 q 306 759 271 696 q 371 885 340 822 q 401 956 386 919 q 424 1031 415 992 q 428 1058 426 1042 q 427 1088 429 1074 q 417 1115 425 1103 q 394 1131 410 1126 q 351 1123 372 1136 q 314 1099 329 1110 q 251 1036 278 1069 q 201 968 224 1004 q 157 896 178 932 q 118 815 133 857 q 89 729 103 774 z "},"":{"ha":999,"x_min":63,"x_max":964,"o":"m 300 -87 q 267 -84 285 -85 q 231 -79 250 -83 q 147 -49 182 -71 q 91 6 111 -26 q 67 81 71 39 q 75 171 63 124 q 145 295 96 244 q 258 378 193 346 q 402 440 329 413 q 547 499 475 467 q 626 536 588 515 q 703 581 665 557 q 750 622 731 597 q 785 679 769 647 q 794 692 788 685 q 808 696 801 699 q 816 682 815 693 q 814 665 817 671 q 747 570 788 611 q 657 497 707 529 q 515 406 586 450 q 374 314 444 363 q 272 225 315 275 q 210 106 229 175 q 205 80 207 93 q 203 53 203 67 q 226 -22 200 7 q 300 -57 251 -51 q 421 -40 367 -64 q 524 25 475 -17 q 602 107 568 63 q 647 214 636 151 q 606 283 656 265 q 599 321 568 297 q 649 342 622 340 q 701 335 675 343 q 740 305 729 325 q 754 257 751 285 q 739 165 758 206 q 688 88 719 124 q 515 -40 611 1 q 300 -87 418 -80 m 961 965 q 960 929 964 949 q 947 892 956 910 q 923 862 938 875 q 890 844 908 849 q 858 844 872 839 q 835 860 844 849 q 823 888 826 872 q 824 919 819 903 q 846 964 828 942 q 885 998 864 986 q 928 1004 907 1010 q 961 965 949 999 z "},"":{"ha":851,"x_min":-51,"x_max":690,"o":"m 529 747 q 529 725 536 736 q 471 615 504 671 q 402 500 438 558 q 331 383 367 442 q 267 265 296 324 q 187 122 228 190 q 85 -8 146 53 q 61 -28 74 -18 q 35 -44 49 -37 q 6 -51 21 -50 q -22 -47 -8 -53 q -46 -21 -40 -37 q -49 16 -51 -4 q -40 56 -47 36 q -26 89 -33 75 q 50 217 10 157 q 143 332 90 278 q 310 523 232 421 q 476 728 389 625 q 478 731 476 731 q 479 733 479 731 q 498 749 490 744 q 512 753 506 753 q 522 751 518 753 q 529 747 526 749 m 688 971 q 686 933 690 953 q 672 897 682 914 q 648 866 663 879 q 615 849 633 853 q 583 848 597 843 q 561 865 569 853 q 549 892 553 876 q 550 924 546 907 q 572 969 554 946 q 612 1003 590 992 q 654 1009 633 1014 q 688 971 675 1004 z "},"{":{"ha":558,"x_min":-69,"x_max":628,"o":"m 628 1122 q 510 1067 539 1096 q 441 999 481 1039 q 380 903 401 958 q 311 727 358 849 q 258 576 264 606 q 236 521 253 546 q 188 475 219 496 q 101 442 157 454 q 144 410 132 431 q 156 365 156 390 q 128 289 156 340 q 56 -34 101 238 q 121 -394 11 -306 l 90 -417 q -30 -321 -4 -368 q -62 -219 -56 -274 q -31 28 -69 -164 q 15 258 8 221 q 31 320 21 294 q 46 370 40 346 q 47 414 51 394 q 22 442 42 433 l 36 478 q 85 490 65 478 q 116 520 104 501 q 133 563 128 539 q 188 714 139 588 q 266 904 236 840 q 349 1016 296 968 q 453 1096 403 1064 q 617 1156 503 1128 l 628 1122 z "},"}":{"ha":558,"x_min":-69,"x_max":628,"o":"m -69 -383 q 48 -328 18 -357 q 117 -260 78 -300 q 177 -164 156 -219 q 247 42 199 -108 q 300 222 294 192 q 322 276 306 251 q 369 322 338 301 q 456 356 400 343 q 414 387 426 367 q 401 432 401 407 q 428 508 401 457 q 501 802 456 560 q 436 1135 546 1044 l 468 1156 q 588 1060 563 1107 q 621 958 614 1013 q 589 740 628 904 q 544 540 550 576 q 527 477 538 503 q 511 427 517 451 q 511 383 506 403 q 536 356 517 364 l 522 319 q 474 308 493 319 q 442 277 454 296 q 425 234 431 258 q 371 54 419 210 q 292 -165 322 -101 q 208 -276 261 -229 q 106 -356 156 -324 q -60 -417 56 -387 l -69 -383 z "},"<":{"ha":392,"x_min":-14,"x_max":461,"o":"m 208 8 l -3 268 q -11 307 -14 283 q 31 360 0 343 l 425 599 q 439 602 432 603 q 449 594 446 601 l 454 588 q 460 573 461 581 q 453 560 460 565 l 110 308 q 106 282 97 296 l 240 29 q 232 1 249 11 q 218 1 225 -1 q 208 8 211 3 z "},">":{"ha":551,"x_min":38,"x_max":513,"o":"m 501 335 q 510 296 513 319 q 468 243 499 260 l 74 4 q 60 1 67 0 q 50 8 53 1 l 44 15 q 38 30 38 22 q 46 43 39 38 l 389 294 q 393 321 401 307 l 258 574 q 267 601 250 592 q 281 602 274 604 q 290 594 288 600 l 501 335 z "},"'":{"ha":342,"x_min":358,"x_max":556,"o":"m 549 813 q 514 743 538 769 q 442 685 490 717 q 401 666 422 672 q 369 663 381 660 q 363 665 365 664 q 358 676 358 671 q 370 683 361 683 q 392 689 379 683 q 422 704 401 693 q 449 731 443 715 q 443 751 451 744 q 414 785 426 765 q 408 829 401 804 q 447 879 417 860 q 506 890 476 899 q 542 861 528 885 q 549 813 556 838 z "},"":{"ha":360,"x_min":232,"x_max":429,"o":"m 422 963 q 388 893 411 919 q 315 836 364 867 q 275 816 296 822 q 243 814 254 810 q 236 815 239 815 q 232 826 232 822 q 244 835 235 835 q 265 839 253 835 q 296 854 275 843 q 322 881 317 865 q 317 901 325 894 q 288 935 300 915 q 282 979 275 954 q 320 1029 290 1010 q 379 1040 350 1049 q 415 1012 401 1035 q 422 963 429 989 z "},"":{"ha":268,"x_min":29,"x_max":226,"o":"m 36 896 q 71 965 47 939 q 143 1024 94 992 q 183 1042 163 1036 q 215 1044 204 1049 q 222 1043 219 1044 q 225 1032 226 1038 q 215 1024 224 1024 q 193 1019 206 1024 q 163 1004 183 1015 q 136 978 142 993 q 142 957 133 964 q 171 924 158 943 q 176 879 183 904 q 138 829 168 849 q 79 818 108 810 q 43 847 57 824 q 36 896 29 871 z "},"":{"ha":333,"x_min":-72,"x_max":404,"o":"m 150 8 l -60 268 q -68 307 -72 286 q -28 360 -60 343 l 367 599 q 392 594 383 608 l 397 588 q 403 573 404 581 q 394 560 401 565 l 51 308 q 47 282 40 297 l 183 29 q 174 1 190 11 q 150 8 160 -3 z "},"":{"ha":333,"x_min":-71,"x_max":406,"o":"m 393 335 q 401 296 406 317 q 361 243 392 260 l -33 4 q -58 8 -50 -6 l -64 15 q -69 30 -71 22 q -61 43 -68 38 l 281 294 q 286 321 292 306 l 150 574 q 160 601 143 593 q 183 594 174 606 l 393 335 z "},"":{"ha":58,"x_min":-69,"x_max":128,"o":"m 121 44 q 86 -26 110 1 q 14 -83 63 -53 q -25 -102 -4 -96 q -58 -106 -46 -108 q -65 -103 -62 -104 q -68 -93 -69 -97 q -58 -85 -67 -85 q -36 -81 -49 -85 q -4 -64 -25 -75 q 21 -39 17 -53 q 17 -18 24 -25 q -13 16 -1 -4 q -18 60 -25 36 q 19 110 -11 92 q 79 121 49 129 q 114 92 100 115 q 121 44 128 69 z "},"":{"ha":267,"x_min":-69,"x_max":336,"o":"m 121 44 q 86 -26 110 1 q 14 -83 63 -53 q -25 -102 -4 -96 q -58 -106 -46 -108 q -65 -103 -62 -104 q -68 -93 -69 -97 q -58 -85 -67 -85 q -36 -81 -49 -85 q -4 -64 -25 -75 q 21 -39 17 -53 q 17 -18 24 -25 q -13 16 -1 -4 q -18 60 -25 36 q 19 110 -11 92 q 79 121 49 129 q 114 92 100 115 q 121 44 128 69 m 329 44 q 294 -26 318 1 q 222 -83 271 -53 q 183 -102 204 -96 q 150 -106 163 -108 q 143 -103 146 -104 q 140 -93 139 -97 q 151 -85 142 -85 q 172 -81 160 -85 q 204 -64 183 -75 q 229 -39 225 -53 q 225 -18 232 -25 q 195 16 207 -4 q 190 60 183 36 q 227 110 197 92 q 288 121 257 129 q 322 92 308 115 q 329 44 336 69 z "},"":{"ha":3,"x_min":-69,"x_max":74,"o":"m -67 440 q -65 478 -69 458 q -52 515 -61 497 q -28 545 -43 532 q 4 563 -14 558 q 36 563 22 568 q 58 547 50 558 q 70 519 67 535 q 71 488 74 504 q 49 442 67 465 q 9 408 31 419 q -33 402 -12 397 q -67 440 -54 407 z "},"":{"ha":822,"x_min":-72,"x_max":897,"o":"m -35 -1 q -65 10 -54 1 q -70 32 -72 17 q -61 57 -68 47 q 123 295 22 183 q 324 514 224 407 q 453 651 389 582 q 578 794 518 721 q 692 947 639 868 q 789 1113 746 1025 q 822 1149 804 1135 q 863 1164 839 1163 q 890 1156 882 1167 q 886 1128 897 1146 q 679 838 794 976 q 446 565 564 700 q 226 307 335 438 q 32 44 117 176 l 33 46 q 14 16 25 29 q -19 -4 3 3 l -35 -1 z "},"":{"ha":138,"x_min":-72,"x_max":210,"o":"m -67 411 q -64 483 -72 444 q -37 554 -56 521 q 10 613 -18 588 q 74 649 39 639 q 135 649 108 658 q 180 617 163 639 q 203 563 197 594 q 203 501 210 532 q 178 442 196 472 q 136 388 161 413 q 82 347 111 363 q 25 331 53 331 q -27 349 -3 331 q -67 411 -51 367 q -64 483 -72 444 q -37 554 -56 521 q 10 613 -18 588 q 74 649 39 639 q 135 649 108 658 q 180 617 163 639 q 203 563 197 594 q 203 501 210 532 q 178 442 196 472 q 136 388 161 413 q 82 347 111 363 q 25 331 53 331 q -27 349 -3 331 q -67 411 -51 367 z "},"#":{"ha":782,"x_min":-71,"x_max":853,"o":"m 607 688 l 832 688 q 848 682 843 688 q 850 669 853 676 l 839 647 q 825 635 836 640 q 803 629 814 629 l 579 629 l 490 444 l 714 444 q 730 439 725 444 q 732 426 735 433 l 721 404 q 708 392 718 397 q 686 386 697 386 l 463 386 l 361 176 q 347 158 356 165 q 331 151 338 151 l 308 151 q 299 158 301 151 q 303 176 297 165 l 404 386 l 219 386 l 118 176 q 103 158 113 165 q 88 151 94 151 l 65 151 q 56 158 58 151 q 60 176 54 165 l 161 386 l -50 386 q -66 392 -61 386 q -67 404 -71 397 l -57 426 q -44 439 -54 433 q -22 444 -33 444 l 189 444 l 279 629 l 67 629 q 51 635 56 629 q 51 647 47 640 l 61 669 q 74 682 64 676 q 96 688 85 688 l 307 688 l 417 913 q 432 932 422 924 q 449 940 442 940 l 471 940 q 479 932 478 940 q 475 913 481 924 l 364 688 l 550 688 l 660 913 q 675 932 665 924 q 692 940 685 940 l 714 940 q 722 932 721 940 q 718 913 724 924 l 607 688 m 247 444 l 432 444 l 522 629 l 336 629 l 247 444 z "},"":{"ha":622,"x_min":-72,"x_max":693,"o":"m 150 8 l -60 268 q -68 307 -72 286 q -28 360 -60 343 l 367 599 q 392 594 383 608 l 397 588 q 403 573 404 581 q 394 560 401 565 l 51 308 q 47 282 40 297 l 183 29 q 174 1 190 11 q 150 8 160 -3 m 440 8 l 229 268 q 221 307 217 286 q 261 360 229 343 l 656 599 q 681 594 674 608 l 686 588 q 692 573 693 581 q 683 560 690 565 l 342 308 q 336 282 329 296 l 472 29 q 463 1 479 10 q 440 8 447 -4 z "},"":{"ha":622,"x_min":-71,"x_max":694,"o":"m 683 335 q 690 296 694 315 q 650 243 681 260 l 256 4 q 232 8 239 -6 l 225 15 q 220 30 219 22 q 228 43 221 38 l 571 294 q 575 321 582 306 l 440 574 q 449 601 432 592 q 463 602 456 604 q 472 594 469 600 l 683 335 m 393 335 q 401 296 406 317 q 361 243 392 260 l -33 4 q -58 8 -50 -6 l -64 15 q -69 30 -71 22 q -61 43 -68 38 l 281 294 q 286 321 292 306 l 150 574 q 160 601 143 593 q 183 594 174 606 l 393 335 z "},"":{"ha":279,"x_min":-69,"x_max":349,"o":"m -62 896 q -28 965 -51 939 q 44 1024 -4 992 q 85 1042 64 1036 q 117 1044 106 1049 q 124 1043 121 1044 q 128 1032 128 1038 q 116 1024 125 1024 q 94 1019 107 1024 q 64 1004 85 1015 q 38 978 43 993 q 43 957 35 964 q 72 924 60 943 q 78 879 85 904 q 40 829 69 849 q -19 818 10 810 q -56 847 -42 824 q -62 896 -69 871 m 157 896 q 193 965 169 939 q 265 1024 217 992 q 304 1042 283 1036 q 336 1044 325 1049 q 343 1043 342 1044 q 347 1032 349 1038 q 336 1024 344 1024 q 315 1019 328 1024 q 283 1004 304 1015 q 258 978 263 993 q 263 957 254 964 q 292 924 281 943 q 297 879 304 904 q 260 829 289 849 q 200 818 231 810 q 164 847 178 824 q 157 896 150 871 z "},"":{"ha":279,"x_min":-69,"x_max":349,"o":"m 342 963 q 306 893 329 919 q 233 836 282 867 q 194 816 215 822 q 163 814 174 810 q 156 815 157 815 q 151 826 150 822 q 163 835 154 835 q 183 839 171 835 q 215 854 194 843 q 240 881 236 865 q 236 901 244 894 q 206 935 218 915 q 201 979 194 954 q 239 1029 210 1010 q 299 1040 268 1049 q 335 1012 321 1035 q 342 963 349 989 m 121 963 q 86 893 110 919 q 14 836 63 867 q -25 816 -4 822 q -58 814 -46 810 q -65 815 -62 815 q -68 826 -69 822 q -58 835 -67 835 q -36 839 -49 835 q -4 854 -25 843 q 21 881 17 865 q 17 901 24 894 q -13 935 -1 915 q -18 979 -25 954 q 19 1029 -11 1010 q 79 1040 49 1049 q 114 1012 100 1035 q 121 963 128 989 z "},"":{"ha":421,"x_min":-71,"x_max":492,"o":"m 239 272 l 28 532 q 19 571 15 550 q 60 624 28 607 l 454 863 q 479 858 472 872 l 485 851 q 490 837 492 844 q 482 824 489 829 l 140 572 q 135 546 128 560 l 271 293 q 261 265 278 274 q 239 272 246 260 m 150 171 q 182 161 167 151 l 197 175 q 203 190 204 179 q 196 207 203 200 l -18 483 q -33 494 -24 492 q -47 492 -42 496 l -65 478 q -70 465 -71 474 q -62 447 -69 456 l 150 171 z "},"":{"ha":371,"x_min":-71,"x_max":442,"o":"m 393 607 q 401 568 406 589 q 361 515 392 532 l -33 276 q -58 281 -50 267 l -64 288 q -69 301 -71 293 q -61 315 -68 310 l 281 565 q 286 593 293 578 l 150 846 q 160 874 143 865 q 183 867 174 878 l 393 607 m 28 225 q 14 210 18 218 q 14 194 10 201 l 25 176 q 39 169 29 169 q 58 176 49 169 l 426 400 q 439 414 436 406 q 439 429 442 422 l 426 447 q 415 454 424 454 q 397 449 406 454 l 28 225 z "},"":{"ha":182,"x_min":-82,"x_max":215,"o":"m -78 697 q 7 761 -37 733 q 93 824 51 789 q 116 844 104 833 q 140 864 128 856 q 165 875 151 872 q 190 871 178 878 q 210 840 215 857 q 194 810 204 824 q 163 783 186 799 q 108 749 139 767 q 42 716 76 732 q -19 690 8 700 l -60 676 q -77 681 -72 674 q -78 697 -82 688 z "},"":{"ha":107,"x_min":-72,"x_max":176,"o":"m 149 885 q 160 888 153 888 q 176 881 167 888 l 176 864 l 176 760 q 171 747 176 751 q 158 743 165 743 q 144 747 150 743 q 139 760 139 751 l 139 804 q 79 774 114 785 q -18 743 31 754 q -43 742 -39 743 q -60 743 -58 742 l -58 743 q -71 760 -69 750 q -60 776 -72 769 q -19 797 -40 786 q 24 819 1 808 q 69 846 44 832 q 118 871 94 860 l 149 885 z "},"`":{"ha":154,"x_min":-58,"x_max":204,"o":"m 201 674 q 198 656 204 663 q 181 656 192 650 l 144 676 q 88 713 118 690 q 28 757 57 735 q -20 799 0 779 q -46 832 -40 819 q -56 864 -53 847 q -32 890 -58 881 q -6 890 -18 894 q 16 874 6 885 q 36 851 26 864 q 56 828 46 839 q 131 750 92 786 q 201 674 169 714 z "},"":{"ha":190,"x_min":-69,"x_max":260,"o":"m 38 881 q 71 873 57 881 q 96 853 85 865 q 117 828 107 842 q 139 803 128 815 q 156 788 143 790 q 169 790 161 788 q 183 799 176 793 l 210 817 q 213 824 211 821 q 221 831 215 828 l 228 843 q 240 845 233 846 q 252 840 247 844 q 258 830 257 836 q 256 817 260 824 q 249 806 253 811 q 239 796 246 801 q 228 783 232 789 q 217 768 224 778 q 171 736 197 747 q 118 739 144 725 q 85 768 97 751 q 58 803 72 785 q 47 819 53 810 q 31 826 40 829 q 7 817 18 826 q -11 799 -4 808 l -31 775 q -49 768 -37 768 q -65 781 -61 771 q -60 801 -69 792 q -44 820 -54 807 q -23 847 -35 833 q 5 870 -11 860 q 38 881 21 881 z "},"":{"ha":222,"x_min":-69,"x_max":292,"o":"m 54 533 q -17 545 11 533 q -57 576 -44 557 q -68 619 -69 594 q -51 671 -67 644 l -25 671 q -16 616 -39 638 q 65 594 7 594 q 197 616 149 594 q 263 671 246 638 l 292 671 q 264 618 281 643 q 219 574 247 593 q 151 544 192 556 q 54 533 111 533 z "},"":{"ha":111,"x_min":-69,"x_max":181,"o":"m 121 38 l 131 0 q 133 -6 128 -4 q 143 -11 139 -7 q 170 -41 160 -21 q 178 -87 181 -61 q 139 -147 174 -124 q 64 -171 104 -169 q 22 -167 42 -171 q -15 -158 3 -164 q -29 -153 -19 -157 q -47 -144 -39 -150 q -62 -133 -56 -139 q -68 -122 -69 -128 q -56 -112 -67 -112 q -39 -115 -46 -112 q -4 -126 -25 -122 q 37 -128 17 -129 q 74 -122 57 -128 q 97 -103 90 -115 q 102 -90 100 -99 q 100 -71 104 -81 q 85 -56 97 -60 q 58 -53 72 -53 q 28 -54 43 -53 q 3 -56 13 -56 q 10 -30 7 -43 q 18 -4 14 -17 q 37 2 28 -1 q 121 38 46 6 z "},"":{"ha":107,"x_min":-69,"x_max":176,"o":"m -44 749 q -54 745 -49 746 q -67 749 -60 744 q -69 767 -69 753 l -69 871 q -65 885 -69 881 q -53 889 -60 889 q -41 885 -46 889 q -36 871 -36 881 l -36 819 q -6 841 -22 832 q 28 856 11 850 q 126 886 76 876 q 150 888 144 886 q 163 886 161 888 q 175 872 174 881 q 165 857 176 864 q 80 812 124 838 q -12 763 36 786 l -44 749 z "},"":{"ha":263,"x_min":-69,"x_max":389,"o":"m 325 565 q 258 431 297 490 q 182 308 219 371 q 142 239 163 272 q 100 171 121 206 q 85 149 93 161 q 72 122 76 136 q 65 94 67 108 q 72 68 64 81 q 86 58 79 58 q 149 82 110 49 q 229 165 189 115 q 303 267 269 215 q 349 346 336 319 q 357 360 351 350 q 368 377 363 369 q 378 385 374 385 q 386 371 383 385 q 376 343 389 364 q 308 223 343 286 q 231 106 274 160 q 136 17 189 53 q 15 -18 83 -18 q -24 -9 -6 -18 q -56 24 -43 0 q -68 66 -67 43 q -65 113 -69 89 q -52 158 -61 136 q -35 199 -43 181 q 53 351 4 278 q 143 500 101 424 q 156 532 153 517 q 164 565 160 547 q 169 585 167 576 q 178 597 171 593 q 213 607 194 606 q 251 608 232 608 q 288 607 269 607 q 324 611 307 607 q 326 588 325 599 q 325 565 328 576 z "},"":{"ha":11,"x_min":-69,"x_max":88,"o":"m -69 844 q -62 881 -69 863 q -41 914 -54 899 q -11 940 -28 929 q 24 951 6 950 q 74 925 60 954 q 74 865 88 896 q 44 826 65 844 q -1 799 22 807 q -44 801 -24 792 q -69 844 -64 810 z "},"":{"ha":132,"x_min":-69,"x_max":201,"o":"m 201 51 q 155 27 188 44 q 90 -12 122 10 q 26 -71 49 -42 q 8 -128 4 -100 q 27 -162 10 -150 q 79 -169 44 -174 l 79 -192 q -23 -191 13 -206 q -64 -140 -58 -176 q -42 -66 -69 -107 q 65 14 -14 -25 q 87 25 69 17 q 124 43 104 33 q 163 61 144 53 q 185 72 181 69 l 201 51 z "},"":{"ha":178,"x_min":-71,"x_max":251,"o":"m -68 925 q -67 954 -71 939 q -56 983 -64 969 q -37 1008 -49 997 q -11 1022 -25 1018 q 33 1009 17 1031 q 42 961 49 988 q 24 925 38 943 q -8 898 10 907 q -42 893 -25 889 q -68 925 -58 897 m 135 925 q 135 954 132 939 q 147 983 139 969 q 167 1008 156 997 q 193 1022 179 1018 q 236 1009 221 1031 q 246 961 251 988 q 228 925 242 943 q 197 898 214 907 q 162 893 179 889 q 135 925 144 897 z "},"":{"ha":1586,"x_min":-74,"x_max":1660,"o":"m 871 510 q 835 508 849 510 q 814 502 822 507 q 799 490 806 497 q 783 469 793 482 q 717 387 750 429 q 651 304 685 344 q 518 156 586 228 q 371 22 450 83 q 235 -41 310 -21 q 86 -32 160 -61 q -22 56 15 -4 q -67 188 -58 117 q -65 345 -74 265 q -21 496 -56 425 q 22 572 -3 535 q 74 640 46 608 q 132 698 101 671 q 196 749 163 725 q 258 786 222 768 q 332 814 293 804 q 410 822 371 824 q 482 804 449 821 q 536 760 515 788 q 567 701 557 733 q 578 632 578 668 q 572 561 578 596 q 547 489 565 522 q 503 426 529 456 q 492 413 500 424 q 472 394 483 403 q 450 381 461 385 q 432 386 439 376 q 431 403 428 393 q 440 423 433 413 q 456 444 447 433 q 468 463 464 454 q 488 510 479 485 q 500 558 497 535 q 497 630 506 596 q 458 690 489 664 q 404 724 429 714 q 343 733 379 733 q 268 722 300 732 q 201 689 236 711 q 90 572 133 644 q 31 421 46 499 q 23 347 24 385 q 31 274 22 310 q 56 206 39 239 q 104 149 74 174 q 170 115 135 124 q 241 110 206 106 q 312 128 276 114 q 378 163 347 143 q 507 265 449 210 q 624 382 565 319 q 678 445 651 414 q 732 508 706 476 l 733 510 l 696 510 q 677 515 685 510 q 669 528 669 521 l 669 553 q 677 566 669 560 q 696 572 685 572 l 789 572 q 840 631 814 600 q 890 692 865 661 q 1063 901 974 799 q 1260 1083 1151 1003 q 1349 1139 1301 1115 q 1450 1165 1397 1163 q 1499 1166 1474 1168 q 1543 1150 1524 1164 q 1576 1108 1567 1135 q 1581 1053 1585 1081 q 1561 982 1575 1015 q 1529 917 1547 949 q 1490 855 1511 885 q 1451 794 1469 825 l 1319 581 l 1113 246 q 1058 154 1085 201 q 1014 58 1032 107 q 1007 28 1010 40 q 999 10 1004 17 q 983 2 993 4 q 956 0 974 0 q 892 1 924 1 q 829 0 861 0 q 855 95 835 49 q 900 185 875 142 q 974 309 938 247 q 1047 433 1011 371 l 1097 510 l 871 510 m 1075 572 q 1128 583 1104 574 q 1167 615 1151 592 l 1251 751 q 1315 851 1283 801 q 1378 953 1346 901 q 1394 980 1383 964 q 1416 1013 1406 996 q 1433 1047 1426 1031 q 1439 1074 1440 1063 q 1415 1099 1435 1096 q 1370 1097 1394 1103 q 1324 1078 1346 1090 q 1292 1058 1301 1067 q 1181 963 1231 1018 q 1086 854 1131 908 q 975 715 1028 785 q 871 572 922 644 l 1075 572 m 1340 1260 q 1341 1289 1338 1274 q 1352 1318 1344 1304 q 1372 1342 1360 1332 q 1397 1357 1383 1353 q 1441 1344 1425 1365 q 1450 1296 1457 1322 q 1432 1260 1446 1278 q 1401 1233 1418 1242 q 1367 1228 1383 1224 q 1340 1260 1350 1232 m 1543 1260 q 1544 1289 1540 1274 q 1556 1318 1547 1304 q 1576 1342 1564 1332 q 1601 1357 1588 1353 q 1644 1344 1629 1365 q 1654 1296 1660 1322 q 1636 1260 1650 1278 q 1605 1233 1622 1242 q 1570 1228 1588 1224 q 1543 1260 1553 1232 z "},"":{"ha":942,"x_min":-76,"x_max":1013,"o":"m 331 815 q 267 831 300 821 q 203 856 233 840 q 150 895 174 872 q 114 951 126 918 q 108 1015 103 985 q 131 1072 114 1046 q 173 1117 147 1097 q 226 1149 199 1136 q 251 1155 232 1150 q 294 1164 269 1160 q 344 1169 318 1168 q 392 1168 371 1171 q 426 1155 414 1165 q 433 1125 438 1144 q 422 1113 431 1115 q 403 1110 414 1110 q 383 1114 393 1111 q 365 1118 372 1117 q 299 1115 333 1124 q 236 1086 264 1107 q 196 1025 204 1063 q 207 953 188 988 q 264 894 226 914 q 339 860 301 874 q 401 984 357 931 q 505 1075 446 1038 q 632 1135 564 1113 q 768 1165 700 1157 q 824 1167 793 1168 q 885 1163 856 1167 q 941 1149 915 1158 q 982 1128 967 1140 q 1011 1067 1010 1099 q 998 1004 1013 1035 q 958 947 983 974 q 907 904 932 921 q 752 836 839 858 q 586 806 665 814 q 527 804 561 803 q 469 801 493 806 q 459 790 461 797 q 461 776 457 783 q 474 765 465 769 q 497 760 483 760 q 546 764 519 761 q 599 766 572 767 q 651 758 626 765 q 697 732 676 750 q 713 703 713 718 q 705 676 714 689 q 681 655 696 664 q 650 642 665 646 q 565 635 611 631 q 481 650 519 639 q 444 668 461 657 q 408 686 428 679 q 366 685 386 693 q 328 667 346 676 q 254 617 289 644 q 192 554 219 589 q 144 482 164 521 q 113 401 124 443 q 104 317 103 360 q 122 232 106 274 q 197 137 149 167 q 304 103 246 107 q 424 115 363 99 q 536 156 485 131 q 652 230 599 188 q 750 325 706 272 q 774 356 763 340 q 794 389 785 371 q 800 403 797 394 q 807 419 803 411 q 817 434 811 428 q 829 442 822 440 q 845 438 842 444 q 847 422 849 432 q 840 403 844 413 q 833 389 836 393 q 760 272 803 328 q 665 167 717 215 q 553 80 613 118 q 431 18 494 42 q 343 -6 389 3 q 251 -15 297 -15 q 160 -5 206 -15 q 76 26 115 6 q 7 83 38 47 q -43 163 -24 118 q -67 313 -76 238 q -22 455 -58 388 q 72 577 14 522 q 193 668 129 632 q 276 704 233 690 q 364 732 319 718 q 345 772 350 751 q 331 815 340 793 m 492 715 q 521 693 506 703 q 556 683 536 683 q 579 688 567 683 q 583 707 592 692 q 566 719 578 717 q 540 722 554 722 q 513 719 526 721 q 492 715 500 717 m 474 850 q 614 861 544 850 q 747 900 683 872 q 801 928 769 910 q 861 969 833 946 q 904 1022 889 993 q 907 1079 919 1050 q 889 1106 901 1096 q 860 1119 876 1115 q 827 1124 844 1124 q 794 1121 810 1124 q 722 1101 758 1115 q 654 1068 686 1088 q 574 1013 611 1042 q 511 943 538 983 q 490 899 499 924 q 474 850 481 874 m 588 1193 q 672 1257 628 1229 q 758 1319 717 1285 q 781 1340 769 1329 q 805 1360 793 1351 q 830 1371 817 1368 q 856 1367 843 1374 q 875 1336 881 1353 q 860 1306 869 1319 q 828 1278 851 1294 q 773 1245 804 1263 q 708 1212 742 1228 q 646 1186 674 1196 l 606 1172 q 588 1176 593 1169 q 588 1193 583 1183 z "},"":{"ha":1654,"x_min":-71,"x_max":1724,"o":"m 1078 385 q 1206 633 1143 508 q 1343 878 1268 757 q 1414 990 1379 935 q 1489 1097 1449 1044 q 1528 1142 1503 1115 q 1583 1192 1553 1169 q 1643 1223 1613 1214 q 1701 1214 1674 1232 q 1722 1167 1724 1197 q 1707 1114 1721 1136 q 1690 1096 1699 1100 q 1673 1092 1682 1092 q 1653 1094 1664 1092 q 1629 1097 1643 1097 q 1572 1081 1599 1097 q 1524 1042 1546 1065 q 1483 994 1501 1019 q 1447 947 1464 968 q 1272 671 1347 817 q 1122 381 1197 525 q 1065 277 1094 328 q 1004 176 1036 226 q 979 130 993 153 q 950 86 965 107 q 934 63 946 79 q 910 33 922 47 q 887 16 897 19 q 875 31 876 13 q 886 60 874 42 q 901 92 899 79 q 919 156 913 124 q 926 221 925 188 q 929 312 931 267 q 924 403 928 357 q 918 494 921 449 q 917 586 915 540 q 932 753 919 674 q 968 917 944 833 q 888 772 931 842 q 806 628 846 701 q 731 491 767 560 q 656 356 696 422 q 558 217 614 290 q 434 85 503 144 q 285 -8 365 26 q 117 -31 206 -43 q 24 6 61 -24 q -34 79 -12 36 q -63 172 -56 122 q -68 271 -71 222 q -4 502 -62 397 q 149 688 54 607 q 239 749 186 718 q 346 791 292 779 q 448 786 400 803 q 525 707 496 769 q 541 601 547 658 q 511 500 535 544 q 501 486 510 497 q 481 460 493 475 q 456 431 469 446 q 429 408 442 417 q 407 398 417 399 q 394 411 397 397 q 400 424 394 415 q 414 440 406 432 q 430 456 422 449 q 440 468 438 464 q 456 504 451 488 q 461 540 461 521 q 449 635 467 588 q 385 707 431 683 q 289 720 336 731 q 200 681 242 710 q 125 610 158 651 q 72 529 92 568 q 38 438 51 489 q 22 337 24 388 q 33 238 19 286 q 83 156 47 190 q 165 110 121 118 q 256 111 210 101 q 344 144 301 121 q 422 196 388 168 q 533 301 483 243 q 624 424 582 360 q 703 554 665 488 q 781 686 742 621 q 903 885 840 786 q 1042 1075 967 983 q 1063 1098 1047 1081 q 1098 1132 1079 1115 q 1133 1158 1117 1149 q 1158 1156 1150 1167 q 1161 1140 1164 1147 q 1152 1127 1158 1133 q 1139 1116 1146 1121 q 1128 1107 1132 1111 q 1103 1073 1113 1092 q 1086 1031 1093 1054 q 1069 919 1071 978 q 1067 803 1067 860 q 1069 681 1067 742 q 1069 558 1072 621 q 1056 426 1068 492 q 1031 294 1043 361 q 1054 339 1042 317 q 1078 385 1067 361 m 1326 1376 q 1360 1369 1346 1376 q 1385 1349 1374 1361 q 1406 1324 1396 1338 q 1428 1299 1417 1311 q 1444 1283 1432 1286 q 1458 1286 1450 1283 q 1472 1294 1465 1289 l 1499 1313 q 1502 1320 1500 1317 q 1510 1326 1504 1324 l 1517 1339 q 1529 1341 1522 1342 q 1541 1336 1536 1340 q 1547 1326 1546 1332 q 1544 1313 1549 1319 q 1538 1302 1542 1307 q 1528 1292 1535 1297 q 1517 1279 1521 1285 q 1506 1264 1513 1274 q 1460 1232 1486 1243 q 1407 1235 1433 1221 q 1374 1264 1386 1247 q 1347 1299 1361 1281 q 1335 1315 1342 1306 q 1319 1322 1329 1325 q 1296 1313 1307 1322 q 1278 1294 1285 1304 l 1258 1271 q 1240 1264 1251 1264 q 1224 1277 1228 1267 q 1229 1297 1219 1288 q 1244 1316 1235 1303 q 1266 1342 1254 1329 q 1294 1366 1278 1356 q 1326 1376 1310 1376 z "},"":{"ha":892,"x_min":-71,"x_max":963,"o":"m 467 489 q 388 521 422 489 q 339 593 354 553 q 328 694 321 640 q 353 794 335 747 q 407 893 374 847 q 478 981 440 939 q 557 1058 515 1022 q 647 1121 599 1093 q 749 1163 693 1147 q 857 1163 804 1178 q 926 1106 904 1147 q 954 1021 947 1065 q 957 912 963 967 q 937 803 951 857 q 901 697 922 749 q 857 597 881 644 q 770 432 817 511 q 663 279 724 353 q 592 196 629 236 q 512 120 554 156 q 422 56 469 85 q 322 10 375 28 q 213 -10 274 -6 q 101 1 153 -15 q 19 52 57 15 q -37 131 -18 89 q -65 228 -58 176 q -66 332 -71 279 q -45 435 -61 385 q -7 531 -29 486 q 119 736 47 638 q 283 914 192 835 q 355 975 319 946 q 431 1031 390 1004 q 450 1041 436 1033 q 479 1055 464 1049 q 507 1062 494 1061 q 522 1051 519 1063 q 516 1038 524 1044 q 503 1028 508 1031 q 469 1004 488 1015 q 436 982 451 993 q 356 904 392 946 q 288 818 319 863 q 220 722 251 772 q 165 618 189 672 q 128 529 146 576 q 101 433 111 482 q 89 335 90 385 q 101 239 88 286 q 156 158 118 189 q 242 115 194 126 q 342 110 290 103 q 433 143 393 118 q 574 268 500 185 q 710 453 647 351 q 817 665 774 556 q 865 869 861 774 q 863 945 867 907 q 845 1015 860 983 q 803 1068 831 1047 q 731 1090 775 1089 q 631 1067 678 1092 q 546 1002 583 1042 q 481 914 508 963 q 442 819 454 865 q 428 717 429 771 q 456 621 428 664 q 524 573 482 581 q 611 576 567 565 q 676 609 647 588 q 733 651 704 631 q 738 623 738 632 q 725 600 739 614 q 703 583 714 590 q 682 565 693 575 q 581 509 632 529 q 467 489 529 489 m 629 1258 q 630 1288 626 1272 q 641 1317 633 1303 q 660 1341 649 1331 q 686 1356 672 1351 q 730 1342 714 1364 q 739 1294 746 1321 q 721 1258 735 1276 q 690 1231 707 1240 q 656 1226 672 1222 q 629 1258 639 1231 m 832 1258 q 833 1288 829 1272 q 844 1317 836 1303 q 865 1341 853 1331 q 890 1356 876 1351 q 933 1342 918 1364 q 943 1294 949 1321 q 925 1258 939 1276 q 894 1231 911 1240 q 859 1226 876 1222 q 832 1258 842 1231 z "}}}
